<?xml version="1.0" encoding="utf-8"?>
<!-- Generator: Adobe Illustrator 21.1.0, SVG Export Plug-In . SVG Version: 6.00 Build 0)  -->
<!DOCTYPE svg PUBLIC "-//W3C//DTD SVG 1.1//EN" "http://www.w3.org/Graphics/SVG/1.1/DTD/svg11.dtd">
<svg version="1.1" id="Ebene_1" xmlns="http://www.w3.org/2000/svg" xmlns:xlink="http://www.w3.org/1999/xlink" x="0px" y="0px"
	 width="672.7px" height="161.5px" viewBox="0 0 672.7 161.5" style="enable-background:new 0 0 672.7 161.5;" xml:space="preserve"
	>
<g>
	<path d="M194.1,136.5c-8.5-18.6-17.4-38-26.4-57.5c-8.9-19.4-17.8-38.8-26.4-57.5c-0.3-0.5-0.9-0.9-1.5-0.9c-0.6,0-1.3,0.3-1.6,0.9
		L85.5,136.4c-0.2,0.6-0.1,1.1,0.2,1.5c0.3,0.4,0.8,0.6,1.4,0.6h14.8c0.6,0,1.1-0.4,1.6-1.1l12.1-26.7H164l0.1,0.2
		c1.7,3.7,3.5,7.6,5.2,11.4c2.3,5,4.7,10.2,6.9,15.2c0.5,0.7,1,1,1.6,1h14.8c0.6,0,1.1-0.2,1.4-0.6
		C194.2,137.7,194.3,137.1,194.1,136.5z M122.3,95.5l17.5-39.2l0.3,0.6l17.3,38.6H122.3z"/>
	<path d="M241.9,66.3c-8.3,0-15.5,3.2-21.4,9.6l-0.5,0.5V21.9c0-0.6-0.8-1.4-1.7-1.4h-13.1c-0.9,0-1.7,0.8-1.7,1.4v115.3
		c0,0.9,0.7,1.5,1.7,1.5h13c0.9,0,1.7-0.7,1.7-1.5v-6.1l0.5,0.5c5.8,6,13.5,9.4,20.9,9.4c23.3,0,33.8-19.6,33.8-37.8
		C275.2,85.3,263.5,66.3,241.9,66.3z M238.7,126.6c-12.9,0-19.6-11.6-19.6-23.1c0-11,6.9-22.6,19.6-22.6c12,0,20.4,9.3,20.4,22.6
		C259.1,115,252.8,126.6,238.7,126.6z"/>
	<path d="M300.5,20.6h-13c-0.9,0-1.7,0.8-1.7,1.4v115.3c0,0.9,0.7,1.5,1.7,1.5h13c0.7,0,1.5-0.6,1.5-1.5V21.9
		C302,21.4,301.2,20.6,300.5,20.6z"/>
	<path d="M347.7,66.3c-21.2,0-34.3,14.5-34.3,37.8c0,21.7,14.2,36.9,34.6,36.9c13.8,0,25.5-7,32.1-19.3l0.1-0.2
		c0.1-0.5-0.2-1-0.9-1.5l-11-6.2c-0.8-0.5-1.5-0.4-2,0.4c-4.4,7.1-8.5,12.5-18.1,12.5c-10.3,0-17.8-6.9-18.6-17.2v-0.3h49.9
		c0.8,0,1.7-0.4,1.7-1.4v-2.1C381.1,87.5,372.4,66.3,347.7,66.3z M330.7,95.5l0.1-0.4c2.1-7.2,8.5-14.6,16.9-14.6
		c9.4,0,14.8,7.5,16.7,14.6l0.1,0.4H330.7z"/>
	<path d="M433.1,68.5h-16.2V50.1c0-0.8-0.6-1.4-1.5-1.4h-13c-0.8,0-1.7,0.4-1.7,1.4v7.7c0,3.5,0,10.7-9.7,10.7h-2.7
		c-0.9,0-1.7,0.8-1.7,1.4v12.2c0,1.1,1.3,1.2,1.7,1.2h12.4V113c0,19.1,7.1,28,22.4,28c4.4,0,8-0.5,10.5-1.6v-0.1
		c0.6-0.1,1.1-0.9,1.1-1.2v-12.8c0-0.7-0.8-1.4-1.7-1.4c-0.3,0-0.9,0.2-1.1,0.3c-1.8,0.7-3.8,1.5-6.5,1.5c-0.6,0-1.3,0-2-0.1
		c-6.7-1.5-6.6-10.2-6.6-16V83.4H433c0.4,0,1.7-0.1,1.7-1.2V70C434.8,69.2,434,68.5,433.1,68.5z"/>
	<path d="M479.1,66.3c-21.1,0-37.6,16.4-37.6,37.3s16.5,37.3,37.6,37.3s37.6-16.4,37.6-37.3C516.8,82.7,500.2,66.3,479.1,66.3z
		 M479.1,125.7c-11.7,0-21.3-9.9-21.3-22s9.5-21.9,21.3-21.9c11.9,0,21.6,9.8,21.6,21.9S491,125.7,479.1,125.7z"/>
	<path d="M561.8,66.3c-7,0-13.8,2.7-18.2,7.3l-0.5,0.5l-0.2-4.3c0-0.6-0.8-1.4-1.7-1.4h-13c-0.9,0-1.7,0.8-1.7,1.4v67.4
		c0,0.9,0.7,1.5,1.7,1.5h13c0.9,0,1.7-0.7,1.7-1.5v-30.8c0-11.4,0-25.5,14.9-25.5c12.3,0,13.3,8.1,13.3,17.8v38.5
		c0,0.9,0.7,1.5,1.7,1.5h13c0.9,0,1.5-0.6,1.5-1.5V97C587.3,75.8,579.4,66.3,561.8,66.3z"/>
</g>
</svg>
