<?xml version="1.0" encoding="utf-8"?>
<!-- Generator: Adobe Illustrator 21.1.0, SVG Export Plug-In . SVG Version: 6.00 Build 0)  -->
<!DOCTYPE svg PUBLIC "-//W3C//DTD SVG 1.1//EN" "http://www.w3.org/Graphics/SVG/1.1/DTD/svg11.dtd">
<svg version="1.1" id="Accenture_Interactive" xmlns="http://www.w3.org/2000/svg" xmlns:xlink="http://www.w3.org/1999/xlink"
	 x="0px" y="0px" width="397.9px" height="60px" viewBox="0 0 397.9 60" style="enable-background:new 0 0 397.9 60;"
	 xml:space="preserve">
<style type="text/css">
	.st0{fill:#FF9500;}
</style>
<g>
	<g>
		<path d="M9.5,1.1h8.6l9.4,29h-6.8l-2-6.4H8.1l-2,6.4H0L9.5,1.1z M9.6,19h7.7L13.4,6.5L9.6,19z"/>
		<path d="M28,19.7v-0.3c0-6.9,4.9-11,10.9-11c4.9,0,9.4,2.1,10,8.2h-5.6C42.9,14.2,41.4,13,39,13c-3,0-5.1,2.3-5.1,6.3v0.3
			c0,4.3,1.9,6.4,5.2,6.4c2.4,0,4.3-1.4,4.5-4.1H49c-0.3,5-4,8.5-10.1,8.5C32.7,30.5,28,26.7,28,19.7z"/>
		<path d="M50.3,19.7v-0.3c0-6.9,4.9-11,10.9-11c4.9,0,9.4,2.1,10,8.2h-5.6c-0.4-2.5-1.9-3.6-4.3-3.6c-3,0-5.1,2.3-5.1,6.3v0.3
			c0,4.3,1.9,6.4,5.2,6.4c2.4,0,4.3-1.4,4.5-4.1h5.3c-0.3,5-4,8.5-10.1,8.5C55,30.5,50.3,26.7,50.3,19.7z"/>
		<path d="M72.7,19.7v-0.3c0-6.7,4.7-11,10.9-11c5.5,0,10.3,3.2,10.3,10.8v1.6H78.7c0.2,3.5,2.1,5.6,5.3,5.6c2.7,0,4.1-1.2,4.4-3
			h5.6c-0.7,4.6-4.3,7.1-10.1,7.1C77.4,30.5,72.7,26.5,72.7,19.7z M88.2,17.2c-0.2-3.2-1.8-4.7-4.6-4.7c-2.6,0-4.4,1.7-4.9,4.7H88.2
			z"/>
		<path d="M96.8,8.9h5.9v3.4c1.1-2.1,3.4-3.9,6.9-3.9c4.2,0,7.1,2.5,7.1,8.2v13.5h-5.9V17.4c0-2.9-1.1-4.3-3.7-4.3
			c-2.5,0-4.4,1.5-4.4,4.7v12.2h-5.9L96.8,8.9L96.8,8.9z"/>
		<path d="M121.5,23.8V13.1h-2.7V8.9h2.7V4.3h5.8v4.6h4.5v4.2h-4.5v10.2c0,1.7,0.9,2.5,2.4,2.5c0.9,0,1.5-0.1,2.2-0.4v4.5
			c-0.8,0.3-2,0.6-3.6,0.6C123.9,30.5,121.5,28.2,121.5,23.8z"/>
		<path d="M134.1,22.5V8.9h5.8v12.8c0,2.9,1.2,4.3,3.7,4.3c2.5,0,4.4-1.5,4.4-4.7V8.9h5.8v21.2H148v-3.3c-1.1,2.1-3.2,3.8-6.7,3.8
			C137.2,30.5,134.1,28.1,134.1,22.5z"/>
		<path d="M157.8,8.9h5.9v4.1c1.3-2.8,3.4-4.3,6.9-4.4V14c-4.3,0-6.9,1.4-6.9,5.4v10.6h-5.9V8.9z"/>
		<path d="M171.5,19.7v-0.3c0-6.7,4.7-11,10.9-11c5.5,0,10.3,3.2,10.3,10.8v1.6h-15.3c0.2,3.5,2.1,5.6,5.3,5.6c2.7,0,4.1-1.2,4.4-3
			h5.6c-0.7,4.6-4.3,7.1-10.1,7.1C176.1,30.5,171.5,26.5,171.5,19.7z M187,17.2c-0.2-3.2-1.8-4.7-4.6-4.7c-2.6,0-4.4,1.7-4.9,4.7
			H187z"/>
	</g>
	<g>
		<g>
			<path d="M204.6,43.3h3.8c2.5,0,4.6,1.1,4.6,3.9v0.1c0,2.8-2.1,3.9-4.6,3.9h-2.1v5.4h-1.6V43.3z M208.5,49.8
				c1.9,0,2.9-0.9,2.9-2.6v-0.1c0-1.9-1.1-2.6-2.9-2.6h-2.3v5.3H208.5z"/>
			<path d="M213.8,53.8c0-2.2,2.4-3,4.8-3h1.4v-0.7c0-1.5-0.6-2.2-2.1-2.2c-1.3,0-2.1,0.6-2.2,1.7h-1.5c0.2-2.2,2-3,3.8-3
				c1.8,0,3.5,0.8,3.5,3.5v6.4H220v-1.2c-0.7,0.9-1.6,1.4-3,1.4C215.2,56.7,213.8,55.8,213.8,53.8z M220,53.1v-1.2h-1.3
				c-1.9,0-3.4,0.5-3.4,1.9c0,1,0.5,1.6,1.8,1.6C218.8,55.4,220,54.6,220,53.1z"/>
			<path d="M223.9,46.8h1.5v1.7c0.6-1.1,1.4-1.8,3.2-1.9v1.4c-1.9,0.1-3.2,0.7-3.2,3.1v5.3h-1.5V46.8z"/>
			<path d="M230.9,54.1v-6h-1.4v-1.3h1.4v-2.2h1.5v2.2h2.3v1.3h-2.3v5.8c0,0.9,0.4,1.4,1.2,1.4c0.5,0,0.9-0.1,1.2-0.2v1.3
				c-0.3,0.1-0.7,0.2-1.3,0.2C231.8,56.6,230.9,55.6,230.9,54.1z"/>
			<path d="M240.2,51.7v-0.1c0-2.9,2-4.9,4.8-4.9s4.7,2,4.7,4.9v0.1c0,2.9-2,4.9-4.8,4.9C242.2,56.7,240.2,54.6,240.2,51.7z
				 M248.1,51.7v-0.1c0-2.2-1.2-3.7-3.2-3.7c-1.9,0-3.2,1.4-3.2,3.7v0.1c0,2.2,1.2,3.6,3.2,3.6C246.9,55.4,248.1,53.9,248.1,51.7z"
				/>
			<path d="M251.7,48.1h-1.4v-1.3h1.4v-1.6c0-2,1-3.1,2.9-3.1c0.5,0,0.8,0.1,1.1,0.2v1.3c-0.3-0.1-0.7-0.2-1.1-0.2
				c-1,0-1.4,0.7-1.4,1.7v1.7h2.4v1.3h-2.4v8.4h-1.5V48.1z"/>
			<path d="M265.2,43.3h2.1l4.5,13.2h-1.6l-1.3-3.8h-5.5l-1.3,3.8h-1.5L265.2,43.3z M263.9,51.4h4.6l-2.3-6.8L263.9,51.4z"/>
			<path d="M272.5,51.8v-0.1c0-3,2.1-5,4.7-5c2,0,3.9,0.9,4.2,3.4h-1.5c-0.2-1.5-1.3-2.1-2.7-2.1c-1.8,0-3.1,1.4-3.1,3.7v0.1
				c0,2.4,1.3,3.6,3.2,3.6c1.4,0,2.6-0.8,2.8-2.4h1.4c-0.2,2.1-1.9,3.6-4.2,3.6C274.5,56.7,272.5,54.8,272.5,51.8z"/>
			<path d="M282.5,51.8v-0.1c0-3,2.1-5,4.7-5c2,0,3.9,0.9,4.2,3.4h-1.5c-0.2-1.5-1.3-2.1-2.7-2.1c-1.8,0-3.1,1.4-3.1,3.7v0.1
				c0,2.4,1.3,3.6,3.2,3.6c1.4,0,2.6-0.8,2.8-2.4h1.4c-0.2,2.1-1.9,3.6-4.2,3.6C284.6,56.7,282.5,54.8,282.5,51.8z"/>
			<path d="M292.6,51.8v-0.1c0-2.9,1.9-5,4.5-5c2.2,0,4.3,1.3,4.3,4.8V52h-7.3c0.1,2.2,1.1,3.4,3.1,3.4c1.5,0,2.4-0.6,2.6-1.7h1.5
				c-0.3,1.9-1.9,3-4.1,3C294.5,56.7,292.6,54.7,292.6,51.8z M299.9,50.7c-0.1-2-1.2-2.8-2.8-2.8c-1.6,0-2.6,1.1-2.9,2.8H299.9z"/>
			<path d="M303.2,46.8h1.5v1.5c0.4-0.9,1.5-1.7,3.1-1.7c2,0,3.4,1.1,3.4,3.9v5.9h-1.5v-6c0-1.7-0.7-2.5-2.3-2.5
				c-1.4,0-2.7,0.9-2.7,2.6v5.9h-1.5L303.2,46.8L303.2,46.8z"/>
			<path d="M313.8,54.1v-6h-1.4v-1.3h1.4v-2.2h1.5v2.2h2.3v1.3h-2.3v5.8c0,0.9,0.4,1.4,1.2,1.4c0.5,0,0.8-0.1,1.2-0.2v1.3
				c-0.3,0.1-0.7,0.2-1.3,0.2C314.7,56.6,313.8,55.6,313.8,54.1z"/>
			<path d="M319.1,52.9v-6.1h1.5v6c0,1.7,0.7,2.5,2.2,2.5c1.4,0,2.7-0.9,2.7-2.6v-5.9h1.5v9.7h-1.5V55c-0.4,0.9-1.5,1.7-3.1,1.7
				C320.5,56.7,319.1,55.6,319.1,52.9z"/>
			<path d="M329.5,46.8h1.5v1.7c0.6-1.1,1.4-1.8,3.2-1.9v1.4c-1.9,0.1-3.2,0.7-3.2,3.1v5.3h-1.5V46.8z"/>
			<path d="M334.8,51.8v-0.1c0-2.9,1.9-5,4.5-5c2.2,0,4.3,1.3,4.3,4.8V52h-7.3c0.1,2.2,1.1,3.4,3.1,3.4c1.5,0,2.4-0.6,2.6-1.7h1.5
				c-0.3,1.9-1.9,3-4.1,3C336.7,56.7,334.8,54.7,334.8,51.8z M342.1,50.7c-0.1-2-1.2-2.8-2.8-2.8c-1.6,0-2.6,1.1-2.9,2.8H342.1z"/>
			<path d="M349.9,43.3h3.5c4.5,0,6.7,2.8,6.7,6.5v0.2c0,3.7-2.1,6.6-6.7,6.6h-3.5V43.3z M353.3,55.2c3.4,0,5.1-2,5.1-5.3v-0.1
				c0-3-1.5-5.2-5.1-5.2h-1.8v10.6H353.3z"/>
			<path d="M361.9,43.8c0-0.6,0.5-1,1-1c0.6,0,1,0.5,1,1c0,0.6-0.5,1-1,1C362.3,44.8,361.9,44.4,361.9,43.8z M362.2,46.8h1.5v9.7
				h-1.5V46.8z"/>
			<path d="M365.6,57h1.6c0.2,1.1,1.1,1.7,2.8,1.7c1.9,0,3.1-0.9,3.1-3v-1.4c-0.6,0.9-1.9,1.8-3.3,1.8c-2.5,0-4.4-1.9-4.4-4.6v-0.1
				c0-2.6,1.8-4.8,4.5-4.8c1.6,0,2.6,0.8,3.2,1.7v-1.6h1.5v9c0,2.8-1.9,4.2-4.6,4.2C367.1,60,365.8,58.7,365.6,57z M373.1,51.5v-0.1
				c0-2.2-1.2-3.4-3.1-3.4c-1.9,0-3.1,1.4-3.1,3.5v0.1c0,2.1,1.3,3.4,3,3.4C371.7,54.9,373.1,53.6,373.1,51.5z"/>
			<path d="M376.7,43.8c0-0.6,0.5-1,1-1c0.6,0,1,0.5,1,1c0,0.6-0.5,1-1,1C377.2,44.8,376.7,44.4,376.7,43.8z M377,46.8h1.5v9.7H377
				V46.8z"/>
			<path d="M381.3,54.1v-6h-1.4v-1.3h1.4v-2.2h1.5v2.2h2.3v1.3h-2.3v5.8c0,0.9,0.4,1.4,1.2,1.4c0.5,0,0.9-0.1,1.2-0.2v1.3
				c-0.3,0.1-0.7,0.2-1.3,0.2C382.1,56.6,381.3,55.6,381.3,54.1z"/>
			<path d="M386.2,53.8c0-2.2,2.4-3,4.8-3h1.4v-0.7c0-1.5-0.6-2.2-2.1-2.2c-1.3,0-2.1,0.6-2.2,1.7h-1.5c0.2-2.2,2-3,3.8-3
				c1.8,0,3.5,0.8,3.5,3.5v6.4h-1.5v-1.2c-0.7,0.9-1.6,1.4-3,1.4C387.7,56.7,386.2,55.8,386.2,53.8z M392.5,53.1v-1.2h-1.3
				c-1.9,0-3.4,0.5-3.4,1.9c0,1,0.5,1.6,1.8,1.6C391.2,55.4,392.5,54.6,392.5,53.1z"/>
			<path d="M396.3,42.2h1.6v14.3h-1.6V42.2z"/>
		</g>
	</g>
	<g>
		<path class="st0" d="M204.6,1.1h3.5v29h-3.5V1.1z"/>
		<path class="st0" d="M214.5,8.9h3.4v3.4c1-2,3.3-3.7,6.8-3.7c4.4,0,7.5,2.4,7.5,8.6v13h-3.4V16.8c0-3.7-1.6-5.4-5-5.4
			c-3.1,0-5.9,2-5.9,5.8v12.8h-3.4L214.5,8.9L214.5,8.9z"/>
		<path class="st0" d="M238.1,24.8V11.7h-3V8.9h3V4.1h3.4v4.8h4.9v2.8h-4.9v12.7c0,2.1,0.9,3.1,2.6,3.1c1.1,0,1.9-0.2,2.6-0.4v2.8
			c-0.7,0.2-1.5,0.4-2.9,0.4C240,30.4,238.1,28.1,238.1,24.8z"/>
		<path class="st0" d="M248.7,19.7v-0.3c0-6.4,4.1-10.9,9.9-10.9c4.9,0,9.5,3,9.5,10.5v1.1h-16c0.2,4.8,2.5,7.5,6.8,7.5
			c3.3,0,5.2-1.2,5.6-3.7h3.4c-0.7,4.3-4.3,6.5-9,6.5C252.9,30.4,248.7,26.2,248.7,19.7z M264.7,17.4c-0.3-4.4-2.6-6.1-6.1-6.1
			c-3.4,0-5.8,2.4-6.3,6.1H264.7z"/>
		<path class="st0" d="M272.6,8.9h3.4v3.8c1.3-2.4,3.2-4.1,7-4.2v3.2c-4.3,0.2-7,1.5-7,6.8v11.6h-3.4L272.6,8.9L272.6,8.9z"/>
		<path class="st0" d="M284.9,24.2c0-4.9,5.2-6.6,10.6-6.6h3v-1.5c0-3.4-1.3-4.8-4.5-4.8c-2.9,0-4.5,1.2-4.9,3.8h-3.4
			c0.4-4.8,4.3-6.6,8.4-6.6c4.1,0,7.7,1.7,7.7,7.6v14h-3.4v-2.7c-1.6,2-3.5,3-6.6,3C288,30.4,284.9,28.5,284.9,24.2z M298.5,22.7V20
			h-2.9c-4.3,0-7.4,1.1-7.4,4.2c0,2.2,1.1,3.6,4,3.6C295.8,27.8,298.5,25.9,298.5,22.7z"/>
		<path class="st0" d="M306.1,19.7v-0.3c0-6.5,4.6-10.9,10.3-10.9c4.4,0,8.6,2,9.2,7.4h-3.3c-0.5-3.4-3-4.6-5.9-4.6
			c-3.9,0-6.8,3.1-6.8,8.1v0.3c0,5.2,2.8,7.9,6.9,7.9c3,0,5.7-1.7,6.1-5.2h3.1c-0.4,4.6-4.1,8-9.2,8
			C310.6,30.4,306.1,26.3,306.1,19.7z"/>
		<path class="st0" d="M330.7,24.8V11.7h-3V8.9h3V4.1h3.4v4.8h4.9v2.8h-4.9v12.7c0,2.1,0.9,3.1,2.6,3.1c1.1,0,1.9-0.2,2.6-0.4v2.8
			c-0.7,0.2-1.5,0.4-2.9,0.4C332.6,30.4,330.7,28.1,330.7,24.8z"/>
		<path class="st0" d="M342.5,2.2c0-1.2,1-2.2,2.2-2.2c1.2,0,2.2,1,2.2,2.2c0,1.2-1,2.2-2.2,2.2S342.5,3.4,342.5,2.2z M343.1,8.9
			h3.4v21.2h-3.4V8.9z"/>
		<path class="st0" d="M349.9,8.9h3.6l6.3,17.8l6.2-17.8h3.5l-7.6,21.2h-4.3L349.9,8.9z"/>
		<path class="st0" d="M370.9,19.7v-0.3c0-6.4,4.1-10.9,9.9-10.9c4.9,0,9.5,3,9.5,10.5v1.1h-16c0.2,4.8,2.5,7.5,6.8,7.5
			c3.3,0,5.2-1.2,5.6-3.7h3.4c-0.7,4.3-4.3,6.5-9,6.5C375.1,30.4,370.9,26.2,370.9,19.7z M386.9,17.4c-0.3-4.4-2.6-6.1-6.1-6.1
			c-3.4,0-5.8,2.4-6.3,6.1H386.9z"/>
	</g>
</g>
</svg>
