<?xml version="1.0" encoding="utf-8"?>
<!-- Generator: Adobe Illustrator 15.0.0, SVG Export Plug-In . SVG Version: 6.00 Build 0)  -->
<!DOCTYPE svg PUBLIC "-//W3C//DTD SVG 1.0//EN" "http://www.w3.org/TR/2001/REC-SVG-20010904/DTD/svg10.dtd">
<svg version="1.0" id="Layer_1" xmlns="http://www.w3.org/2000/svg" xmlns:xlink="http://www.w3.org/1999/xlink" x="0px" y="0px"
	 width="1195px" height="354px" viewBox="0 0 1195 354" enable-background="new 0 0 1195 354" xml:space="preserve">
<g>
	<g>
		<path fill="#49B719" d="M655.11,23.66c5.89-3.56,13.54-3.72,19.82-1.08c5.56,2.34,8.9,8.47,8.59,14.39
			c-0.05,35,0.01,69.99-0.01,104.99c0,22.01-0.04,44.01,0.03,66.02c-0.86,15.57-3.85,31.25-10.73,45.35
			c-6.74,14.53-16.85,27.56-29.55,37.37c-15.85,12.59-35.68,19.84-55.8,21.4c-17.88,1.15-35.75-3.55-51.74-11.36
			c-23.07-12.09-41.46-33.21-49.68-57.98c-8.07-24.41-7.02-51.51,2.46-75.36c4.92-11.97,12.48-22.74,21.55-31.93
			c9.98-10.55,22.34-18.76,35.82-24.15c16.43-5.87,34.34-8.27,51.64-5.35c19.01,2.63,36.92,11.54,51.21,24.23
			c0.08-31.42-0.01-62.85,0.04-94.27C648.73,31.15,650.94,26.21,655.11,23.66z M571.68,141.32c-15.27,2.43-29.92,10.06-39.81,22.07
			c-10.62,11.89-16.39,27.69-16.88,43.55c-0.13,15.29,4.35,30.8,13.75,42.98c9.61,12.37,23.22,21.99,38.68,25.25
			c16.08,3.76,33.57,1.05,47.79-7.34c14.08-8.49,25.35-21.93,30.14-37.78c5.81-17.95,4-38.14-4.97-54.75
			c-6.97-12.64-17.88-23.26-31.15-29.1C597.52,141.06,584.31,139.2,571.68,141.32z"/>
	</g>
</g>
<g>
	<g>
		<path fill="#006FBC" d="M37.77,23.39c5.78-2.47,12.59-2.52,18.42-0.17c5.04,2,8.33,7.34,8.29,12.7c0.1,27.58-0.1,55.16,0.12,82.73
			c12.76-13.4,28.29-24.15,45.48-31.03c33.98-12.58,73.68-10.73,105.31,7.47c27.69,15.88,49.84,42.09,58.86,72.91
			c3.63,12,5.58,24.5,5.97,37.02c-0.31,28.3-8.96,56.89-26.47,79.35c-18.55,24.18-46.14,41.22-76.21,46.48
			c-24.56,5-50.33,1.05-73.23-8.7c-27.2-12.18-49.73-34.42-62.37-61.4c-7.14-15.6-10.99-32.66-11.69-49.77
			c0.14-30.35-0.42-60.68-0.25-91.02c0.17-28.02-0.48-56.04-0.22-84.06C29.87,30.68,32.9,25.5,37.77,23.39z M144.73,115.34
			c-13.09,1.52-25.91,5.76-37.08,12.79c-10.57,6.47-19.29,15.52-26.71,25.35c-23.03,31.99-21.54,79.25,3.3,109.84
			c7.04,8.58,15.37,16.17,24.84,21.98c17.95,10.83,39.82,14.99,60.49,11.57c17.92-2.79,34.91-11.29,47.72-24.14
			c14.64-13.91,24.41-32.83,27.26-52.82c2.81-16.76,0.26-34.2-6.14-49.87c-6.57-15.43-17.68-28.77-31.05-38.8
			C189.5,118.24,166.58,112.79,144.73,115.34z"/>
	</g>
</g>
<g>
	<g>
		<path fill="#FF7700" d="M771.92,84.47c34.76-23.86,80.66-29.27,120.56-16.4c46.63,15.22,83.36,56.84,92.98,104.91
			c2.11,10.22,3.38,20.64,3.54,31.08c-0.44,19.96-4.12,39.99-12.07,58.36c-10.7,24.93-28.5,46.87-51.3,61.69
			c-17.33,11.49-37.43,18.58-57.96,21.54c-21.28,3.3-43.22,0.56-63.59-6.13c-30.77-9.91-57.18-31.65-73.95-59.15
			c-13.46-21.65-20.22-46.98-21.28-72.34c-0.4-22.62,4.24-45.39,13.69-65.97C733.43,118.91,750.95,99.04,771.92,84.47z
			 M791.52,113.04c-16.94,11.28-30.81,27.33-39.11,45.95c-6.56,15.4-9.94,32.24-9.53,48.98c1.06,18.32,5.85,36.61,15.36,52.4
			c10.6,17.9,26.53,32.7,45.4,41.55c15.61,6.95,32.73,11.02,49.89,10.27c15.28-0.97,30.32-5.2,44-12.06
			c17.19-8.96,31.88-22.73,41.78-39.41c9.63-15.89,14.5-34.32,15.56-52.78c0.48-26.07-7.48-52.8-24.4-72.94
			c-12.04-14.8-28.2-26.06-46.01-32.78C854.04,91.62,818.45,94.93,791.52,113.04z"/>
	</g>
</g>
<g>
	<g>
		<path fill="#00B9F4" d="M355.21,128.83c17.94-6.03,38.19-4.99,55.34,3.06c15.66,7.4,28.04,20.81,35.75,36.17
			c5.69,11.75,8.19,24.91,7.96,37.92c-0.03,12.34,0,24.68-0.01,37.02c-0.02,8.02,0.01,16.05,0.01,24.07
			c0.03,5.28-2.03,11.03-6.78,13.82c-4.71,3.03-10.64,2.63-15.97,2.08c-6.81-1.1-10.91-7.67-11.89-14.05
			c-12.05,8.15-26.6,12.75-41.18,12.36c-18.65,0.1-37.13-7.63-50.28-20.83c-11.84-11.22-19.91-26.3-22.68-42.37
			c-3.26-16.73-0.9-34.45,6.39-49.84C320.71,150.38,336.07,135.18,355.21,128.83z M370.94,157.62c-5.49,1.21-10.83,3.2-15.63,6.16
			c-9.33,5.63-15.58,15.35-18.38,25.73c-1.58,6.28-3.18,12.86-1.76,19.33c1.88,13.64,8.83,27.41,21.32,34.13
			c9.35,4.91,20.47,8.18,30.96,5.29c12.36-2.49,24.05-9.94,29.86-21.37c4.99-10.05,8.02-21.83,5.08-32.93
			c-2.38-12.83-9.74-25.24-21.6-31.33C391.72,158.04,381.05,154.86,370.94,157.62z"/>
	</g>
</g>
<g>
	<g>
		<path fill="#FF3B00" d="M1042.93,143.5c24.54-19.95,62.16-21.03,88.03-2.97c11.73,8.15,21.1,19.76,26.8,32.85
			c12.7,29.4,5.49,66.71-18.95,87.89c-20.02,19.31-51.49,24.33-77.13,14.31c-14.17-5.43-26.09-15.82-34.74-28.16
			c-14.69-21.42-17.11-50.33-6.86-74.12C1025.1,161.69,1033.26,151.58,1042.93,143.5z M1081.98,159.59
			c-10.49,1.92-20.74,6.89-27.45,15.37c-6.36,8.29-9.53,18.71-10.21,29.04c0.67,9.86,3.45,19.85,9.35,27.91
			c6.73,9.6,18.01,14.89,29.3,16.89c7.74,1.78,15.66-0.52,22.96-3.06c11.49-4.31,20.73-13.95,24.43-25.67
			c2.3-7.26,4.41-15.05,2.5-22.65c-2.18-13.6-9.93-26.95-22.67-33.07C1101.54,160.24,1091.55,157.39,1081.98,159.59z"/>
	</g>
	<path fill="#FF3B00" d="M777.32,190.79c4.45-7.72,13.61-11.6,22.23-11.78c7.59,0.35,15.41,3.71,19.8,10.12
		c3.76,5.41,5.75,12.27,4.81,18.85c-1.22,8.81-6.36,17.5-14.92,20.85c-8.5,4-18.9,2.22-26.23-3.4c-5.42-4.16-8.23-10.78-9.41-17.35
		C772.62,202.11,774.4,195.98,777.32,190.79z"/>
</g>
</svg>
