<?xml version="1.0" standalone="no"?>
<!DOCTYPE svg PUBLIC "-//W3C//DTD SVG 20010904//EN"
 "http://www.w3.org/TR/2001/REC-SVG-20010904/DTD/svg10.dtd">
<svg version="1.0" xmlns="http://www.w3.org/2000/svg"
 width="2000.000000pt" height="573.000000pt" viewBox="0 0 2000.000000 573.000000"
 preserveAspectRatio="xMidYMid meet">
<metadata>
Created by potrace 1.14, written by Peter Selinger 2001-2017
</metadata>
<g transform="translate(0.000000,573.000000) scale(0.100000,-0.100000)"
fill="#000000" stroke="none">
<path d="M37 5693 c-4 -3 -7 -1281 -7 -2840 l0 -2833 3015 0 3015 0 0 2840 0
2840 -3008 0 c-1655 0 -3012 -3 -3015 -7z m3115 -809 c202 -28 373 -76 522
-148 226 -109 420 -307 506 -517 100 -241 107 -529 19 -749 -66 -163 -214
-335 -375 -436 l-76 -47 100 -33 c432 -141 707 -446 772 -857 15 -93 8 -280
-14 -382 -91 -423 -409 -714 -916 -839 -226 -55 -244 -56 -1194 -56 l-876 0 0
2040 0 2040 710 0 c590 0 728 -3 822 -16z"/>
<path d="M2340 3735 l0 -526 323 3 c358 5 389 10 542 83 134 64 230 162 274
281 27 72 41 195 30 270 -22 143 -123 274 -261 339 -141 66 -156 68 -550 73
l-358 3 0 -526z"/>
<path d="M2340 2005 l0 -555 454 0 c489 0 549 5 694 54 185 63 308 176 363
332 30 85 36 223 14 299 -51 178 -174 304 -362 370 -141 49 -220 55 -710 55
l-453 0 0 -555z"/>
<path d="M6990 2860 l0 -2840 3010 0 3010 0 0 2840 0 2840 -3010 0 -3010 0 0
-2840z m3184 2017 c318 -66 508 -147 687 -293 142 -116 260 -299 315 -489 32
-110 44 -321 24 -441 -40 -251 -179 -458 -410 -609 l-89 -59 98 -32 c335 -110
577 -316 697 -594 67 -153 78 -214 78 -415 0 -163 -3 -189 -27 -279 -32 -118
-98 -258 -161 -343 -156 -207 -413 -363 -731 -443 -231 -59 -254 -60 -1210
-60 l-875 0 0 2041 0 2040 763 -4 c654 -3 773 -6 841 -20z"/>
<path d="M9300 3734 l0 -525 318 3 c312 4 318 4 407 32 195 59 318 152 385
289 126 259 34 538 -217 658 -122 58 -208 69 -570 69 l-323 0 0 -526z"/>
<path d="M9300 2005 l0 -556 488 4 c465 3 491 4 572 26 304 79 470 269 470
537 0 145 -61 282 -168 374 -62 54 -186 114 -292 141 -81 21 -108 23 -577 26
l-493 4 0 -556z"/>
<path d="M13940 2860 l0 -2840 3015 0 3015 0 -2 2838 -3 2837 -3012 3 -3013 2
0 -2840z m3515 2080 c182 -12 326 -35 535 -86 156 -38 535 -161 665 -216 l80
-34 3 -372 c1 -205 -1 -372 -5 -372 -4 0 -69 31 -143 69 -569 291 -1167 426
-1622 366 -565 -74 -1004 -358 -1208 -779 -83 -171 -128 -333 -151 -547 -27
-243 29 -526 150 -766 181 -359 492 -601 915 -713 492 -130 943 -96 1472 111
164 65 386 174 532 262 l92 57 0 -390 0 -389 -42 -25 c-69 -40 -292 -133 -433
-181 -380 -127 -745 -182 -1148 -172 -249 6 -417 28 -642 82 -441 106 -738
263 -1029 545 -240 233 -404 490 -510 798 -182 532 -148 1068 99 1563 101 203
198 341 350 498 264 273 567 453 996 590 280 90 653 126 1044 101z"/>
</g>
</svg>
