<?xml version="1.0" encoding="UTF-8" standalone="no"?>
<!-- Created with Inkscape (http://www.inkscape.org/) -->

<svg
   xmlns:svg="http://www.w3.org/2000/svg"
   xmlns="http://www.w3.org/2000/svg"
   version="1.0"
   width="885.82678"
   height="179.06989"
   id="svg1877"
   viewBox="0 0 886 179"
   >
  <defs
     id="defs1879" />
  <g
     id="g3657">
    <path
       d="m 838.48108,63.635314 c 16.09016,0 26.26228,10.726653 26.26228,26.076975 0,14.795431 -9.98716,26.076961 -26.44724,26.076961 -14.98039,0 -26.07661,-11.65145 -26.07661,-25.707041 0,-15.720242 10.72629,-26.446895 26.26157,-26.446895 l 0,0 z m 26.26228,-17.754449 0,13.315748 -0.36992,0 c -6.47291,-10.726299 -18.12437,-15.534921 -30.51567,-15.534921 -27.37169,0 -43.83106,20.343543 -43.83106,46.605477 0,25.151811 17.56913,45.526531 44.20098,45.526531 11.09658,0 22.56272,-4.28492 29.03563,-12.977 l 0.36992,0 0,6.47291 c 0,17.60031 -6.65751,29.80665 -28.11118,29.80665 -12.39129,0 -21.63826,-4.62331 -30.51531,-12.76122 L 791.691,164.45941 c 12.57555,11.09693 27.5563,14.61047 44.01603,14.61047 34.58409,0 50.11972,-20.34354 50.11972,-52.36937 l 0,-80.819645 -21.08339,0 0,0 z"
       id="path3620"
       style="fill:#000000;fill-rule:evenodd" />
    <path
       d="m 732.23856,134.65311 22.19244,0 0,-47.529921 c 0,-4.80862 2.95937,-22.378112 23.85815,-22.378112 3.51355,0 7.02744,0.739488 10.7263,1.664292 l 0,-21.453307 c -2.58945,-0.739842 -5.17783,-1.29437 -7.95224,-1.29437 -11.65146,0 -21.45366,6.102992 -26.26193,16.274763 l -0.37028,0 0,-14.05559 -22.19244,0 0,88.772245 0,0 z"
       id="path3618"
       style="fill:#000000;fill-rule:evenodd" />
    <path
       d="m 649.70077,81.389409 c 1.66429,-12.760867 9.80185,-21.083032 22.93264,-21.083032 13.87098,0 22.37846,8.137558 22.56342,21.083032 l -45.49606,0 z m 67.68886,16.64504 0,-6.10299 c 0,-30.885594 -16.83,-48.269767 -41.61189,-48.269767 -26.81681,0 -48.26976,18.679251 -48.26976,46.605477 0,27.926221 21.45295,46.635941 48.26976,46.635941 14.05559,0 27.18638,-5.02405 37.54311,-17.78527 L 697.416,107.09646 c -5.54846,6.84319 -12.76122,12.02138 -23.85779,12.02138 -12.3913,0 -22.37811,-7.95225 -23.85744,-21.083391 l 67.68886,0 0,0 z"
       id="path3614"
       style="fill:#000000;fill-rule:evenodd" />
    <path
       d="m 595.44494,90.267169 c 0,13.870631 -9.80185,26.631141 -26.07696,26.631141 -16.27477,0 -26.07697,-12.76051 -26.07697,-26.631141 0,-13.870635 9.8022,-26.631855 26.07697,-26.631855 16.27511,0 26.07696,12.76122 26.07696,26.631855 z m -73.60653,44.385941 21.08339,0 0,-13.3161 0.36921,0 c 6.47362,10.72701 18.12472,15.5661 30.51567,15.5661 27.37169,0 43.83141,-20.37472 43.83141,-46.635941 0,-26.261934 -17.56948,-46.605477 -42.90661,-46.605477 -16.64504,0 -25.52209,7.767283 -30.14539,13.500708 l -0.55524,0 0,-56.425038 -22.19244,0 0,133.915748 0,0 z"
       id="path3610"
       style="fill:#000000;fill-rule:evenodd" />
    <path
       d="m 365.81278,134.65311 22.19351,0 0,-48.455081 c 0,-11.836062 5.73271,-22.562715 20.34319,-22.562715 10.72665,0 15.16535,7.212755 15.16535,18.124375 l 0,52.893421 22.19315,0 0,-48.085151 c 0,-11.46615 5.17854,-22.932645 19.04917,-22.932645 13.13044,0 16.45973,9.617243 16.45973,20.713465 l 0,50.304331 22.19279,0 0,-52.893421 c 0,-21.268352 -8.32216,-38.097997 -31.995,-38.097997 -13.31539,0 -22.74732,5.177835 -29.22094,16.459724 -4.62331,-11.096929 -14.05559,-16.459724 -27.74091,-16.459724 -14.79543,0 -23.30291,7.767283 -27.18673,16.089803 l -0.36992,0 0,-13.87063 -21.08339,0 0,88.772245 0,0 z"
       id="path3608"
       style="fill:#000000;fill-rule:evenodd" />
    <path
       d="m 171.02976,90.267169 c 0,-13.870635 9.80185,-26.631855 26.07661,-26.631855 16.27476,0 26.07697,12.76122 26.07697,26.631855 0,13.870631 -9.80221,26.631141 -26.07697,26.631141 -16.27476,0 -26.07661,-12.76051 -26.07661,-26.631141 l 0,0 z m -22.1928,0 c 0,27.926221 21.4526,46.635941 48.26941,46.635941 26.81646,0 48.26976,-18.70972 48.26976,-46.635941 0,-27.926226 -21.4533,-46.605477 -48.26976,-46.605477 -26.81681,0 -48.26941,18.679251 -48.26941,46.605477 l 0,0 z"
       id="path3604"
       style="fill:#000000;fill-rule:evenodd" />
    <path
       d="m 111.63153,134.65311 22.19315,0 0,-134.65311 -22.19315,0 0,134.65311 z"
       id="path3602"
       style="fill:#000000;fill-rule:evenodd" />
    <path
       d="m 23.302559,23.687716 19.233779,0 c 17.569133,0 25.337125,5.548465 25.337125,16.83 0,9.80185 -7.767992,16.459724 -23.302558,16.459724 l -21.268346,0 0,-33.289724 0,0 z m 0,53.263345 22.377401,0 c 18.864566,0 27.741613,4.808628 27.741613,18.493938 0,17.199921 -16.645039,19.234141 -28.665708,19.234141 l -21.453306,0 0,-37.728079 0,0 z M 0,134.65311 l 47.159999,0 c 24.782244,0 49.564133,-8.87775 49.564133,-37.358151 0,-16.829646 -11.83642,-29.775827 -28.295787,-31.625079 l 0,-0.370275 c 13.500708,-4.06878 22.748027,-13.87063 22.748027,-28.665708 0,-23.85744 -20.344247,-32.919448 -40.132908,-32.919448 L 0,3.714449 0,134.65311 z"
       id="path3596"
       style="fill:#000000;fill-rule:evenodd" />
    <path
       d="m 277.96747,90.267169 c 0,-13.870635 9.80185,-26.631855 26.07697,-26.631855 16.27476,0 26.07661,12.76122 26.07661,26.631855 0,13.870631 -9.80185,26.631141 -26.07661,26.631141 -16.27512,0 -26.07697,-12.76051 -26.07697,-26.631141 l 0,0 z m -22.19279,0 c 0,27.926221 21.45295,46.635941 48.26976,46.635941 26.81646,0 48.26976,-18.70972 48.26976,-46.635941 0,-27.926226 -21.4533,-46.605477 -48.26976,-46.605477 -26.81681,0 -48.26976,18.679251 -48.26976,46.605477 l 0,0 z"
       id="path10"
       style="fill:#000000;fill-rule:evenodd" />
  </g>
</svg>
