<?xml version="1.0" encoding="utf-8"?>
<!-- Generator: Adobe Illustrator 21.1.0, SVG Export Plug-In . SVG Version: 6.00 Build 0)  -->
<!DOCTYPE svg PUBLIC "-//W3C//DTD SVG 1.1//EN" "http://www.w3.org/Graphics/SVG/1.1/DTD/svg11.dtd">
<svg version="1.1" id="Layer_1" xmlns="http://www.w3.org/2000/svg" xmlns:xlink="http://www.w3.org/1999/xlink" x="0px" y="0px"
	 width="503.4px" height="96px" viewBox="0 0 503.4 96" style="enable-background:new 0 0 503.4 96;" xml:space="preserve">
<g>
	<path d="M36.8,35v-0.2c7.3-2.2,12.2-7.5,12.2-15.4c0-12.8-10.9-17.7-21.6-17.7H0v70.5h25.4c13.3,0,26.7-4.8,26.7-20.1
		C52.1,43,45.7,36,36.8,35z M12.5,12.4h10.4c9.5,0,13.6,3,13.6,9.1c0,5.3-4.2,8.9-12.5,8.9H12.5V12.4z M24.1,61.4H12.5V41.1h12
		c10.2,0,14.9,2.6,14.9,10C39.5,60.3,30.6,61.4,24.1,61.4z"/>
	<rect x="60.2" width="11.9" height="72.1"/>
	<path d="M106.2,23.2c-14.4,0-26,10.1-26,25.1c0,15,11.5,25.1,26,25.1c14.4,0,26-10.1,26-25.1C132.1,33.2,120.6,23.2,106.2,23.2z
		 M106.2,62.6c-8.8,0-14-6.9-14-14.3c0-7.5,5.3-14.3,14-14.3c8.8,0,14,6.9,14,14.3C120.2,55.7,114.9,62.6,106.2,62.6z"/>
	<path d="M163.5,23.2c-14.4,0-26,10.1-26,25.1c0,15,11.5,25.1,26,25.1c14.4,0,26-10.1,26-25.1C189.5,33.2,177.9,23.2,163.5,23.2z
		 M163.5,62.6c-8.8,0-14-6.9-14-14.3c0-7.5,5.3-14.3,14-14.3c8.8,0,14,6.9,14,14.3C177.5,55.7,172.3,62.6,163.5,62.6z"/>
	<path d="M253.6,23.2c-7.2,0-12.2,2.8-15.7,8.9c-2.5-6-7.6-8.9-14.9-8.9c-8,0-12.5,4.2-14.6,8.7h-0.2v-7.5h-11.3v47.8h11.9V46.1
		c0-6.4,3.1-12.1,10.9-12.1c5.8,0,8.2,3.9,8.2,9.8v28.5h11.9V46.3c0-6.2,2.8-12.3,10.3-12.3c7.1,0,8.9,5.2,8.9,11.1v27.1h11.9V43.7
		C270.8,32.2,266.4,23.2,253.6,23.2z"/>
	<path d="M309,23.2c-9,0-13.7,4.2-16.2,7.3h-0.3V0h-11.9v72.1h11.3V65h0.2c3.5,5.8,9.8,8.4,16.4,8.4c14.7,0,23.6-10.9,23.6-25.1
		C332.1,34.1,322.6,23.2,309,23.2z M306.1,62.6c-8.8,0-14-6.9-14-14.3c0-7.5,5.3-14.3,14-14.3c8.8,0,14,6.9,14,14.3
		C320.1,55.7,314.9,62.6,306.1,62.6z"/>
	<path d="M363.5,23.2c-14.4,0-26,10.1-26,25.1c0,15,11.5,25.1,26,25.1c7.6,0,14.6-2.7,20.2-9.6l-8.6-6.5c-3,3.7-6.9,6.5-12.8,6.5
		c-6.7,0-12-4.3-12.8-11.3h36.4v-3.3C385.9,32.5,376.8,23.2,363.5,23.2z M349.4,43.5c0.9-6.9,5.3-11.3,12.3-11.3
		c7.5,0,12,4.4,12.1,11.3H349.4z"/>
	<path d="M405.8,31.9h-0.2v-7.6h-11.9v47.8h11.9V46.6c0-2.6,1.6-12,12.8-12c1.9,0,3.8,0.4,5.8,0.9V23.9c-1.4-0.4-2.8-0.7-4.3-0.7
		C413.6,23.2,408.4,26.5,405.8,31.9z"/>
	<path d="M465,31.5h-0.2c-3.5-5.8-9.8-8.4-16.4-8.4c-14.7,0-23.6,11-23.6,25.1c0,13.5,9.5,24.5,23.8,24.5c6,0,12.1-2.3,15.6-7h0.2
		v3.5c0,9.5-3.6,16-15.1,16c-6.7,0-11.6-2.5-16.4-6.9l-7.2,9.8c6.8,6,14.8,7.9,23.7,7.9c18.6,0,27-10.9,27-28.2V24.4H465V31.5z
		 M450.8,62c-8.1,0-14-6.3-14-13.8c0-8.5,5.8-14.2,14.1-14.2c8.7,0,14.1,5.8,14.1,14C465,55.9,459.7,62,450.8,62z"/>
	<path d="M496.8,13.9c0.5-0.6,0.7-1.3,0.7-2.2c0-0.8-0.1-1.4-0.4-1.9c-0.3-0.5-0.7-0.9-1.1-1.2c-0.5-0.3-1-0.5-1.5-0.6
		c-0.6-0.1-1.2-0.2-1.8-0.2h-5.5v12.8h3v-5h1.8l2.8,5h3.6l-3.4-5.4C495.7,14.8,496.3,14.4,496.8,13.9z M493.8,12.9
		c-0.4,0.3-0.8,0.5-1.3,0.5h-2.3v-3.2h2.3c0.4,0,0.8,0.1,1.2,0.4c0.4,0.2,0.7,0.6,0.7,1.1C494.4,12.2,494.2,12.6,493.8,12.9z"/>
	<path d="M502.5,9.8c-0.6-1.4-1.4-2.6-2.5-3.6c-1-1-2.2-1.8-3.6-2.4c-1.4-0.6-2.9-0.9-4.4-0.9c-1.6,0-3,0.3-4.4,0.9
		c-1.4,0.6-2.6,1.4-3.6,2.4c-1,1-1.9,2.2-2.5,3.6c-0.6,1.4-0.9,2.9-0.9,4.4c0,1.6,0.3,3,0.9,4.4c0.6,1.4,1.4,2.6,2.5,3.6
		c1,1,2.2,1.8,3.6,2.4c1.4,0.6,2.9,0.9,4.4,0.9c1.6,0,3-0.3,4.4-0.9c1.4-0.6,2.6-1.4,3.6-2.4c1-1,1.9-2.2,2.5-3.6
		c0.6-1.4,0.9-2.8,0.9-4.4C503.4,12.7,503.1,11.2,502.5,9.8z M500.8,18c-0.5,1.2-1.2,2.2-2,3.1c-0.9,0.9-1.9,1.6-3,2.1
		c-1.2,0.5-2.4,0.8-3.8,0.8c-1.3,0-2.6-0.2-3.8-0.8c-1.2-0.5-2.2-1.2-3-2.1c-0.9-0.9-1.5-1.9-2-3.1c-0.5-1.2-0.8-2.4-0.8-3.7
		c0-1.3,0.2-2.6,0.8-3.8c0.5-1.2,1.2-2.2,2-3.1c0.9-0.9,1.9-1.5,3-2c1.2-0.5,2.4-0.8,3.8-0.8c1.3,0,2.6,0.2,3.8,0.8
		c1.2,0.5,2.2,1.2,3,2c0.9,0.9,1.5,1.9,2,3.1c0.5,1.2,0.8,2.4,0.8,3.8C501.6,15.6,501.3,16.8,500.8,18z"/>
</g>
</svg>
