<?xml version="1.0" encoding="utf-8"?>
<!DOCTYPE svg PUBLIC "-//W3C//DTD SVG 1.1//EN" "http://www.w3.org/Graphics/SVG/1.1/DTD/svg11.dtd">
<svg xmlns="http://www.w3.org/2000/svg" viewBox="-195 237.8 452 84.5"><path d="M-154.7 301.4c.8 3.1 2 6.5 3.6 8.6 2.9 5 8.4 7.1 8.4 7.1l-1.7 3.8h-29.2l-1.7-3.8s5.5-2.1 8.4-7.1c1.6-2.2 2.8-5.7 3.6-8.9-2.9 2.9-7.4 5.9-12.5 5.9-10.6 0-19-6.5-19.3-19.9-.5-25.8 30.6-43.4 35.5-46.2h1c4.9 2.7 36 20.3 35.5 46.2-.3 13.4-8.7 19.9-19.3 19.9-4.9.1-9.2-2.8-12.3-5.6zm51.4-19.7c0-6 .9-11.5 2.8-16.4 1.9-5 4.4-9.3 7.7-12.9s7.1-6.4 11.6-8.3 9.3-2.9 14.5-2.9c4.6 0 8.8.7 12.5 2 3.8 1.3 7 3.1 9.7 5.4s5 5.1 6.7 8.4 3 6.9 3.8 10.8h-16c-1.4-3.6-3.3-6.5-6-8.7-2.6-2.2-6.2-3.3-10.7-3.3-3.2 0-6 .6-8.4 1.9-2.5 1.3-4.6 3.1-6.3 5.4-1.7 2.3-3.1 5.1-4 8.3s-1.3 6.6-1.3 10.4c0 3.8.4 7.2 1.3 10.4s2.2 5.9 4 8.2c1.7 2.3 3.9 4.1 6.3 5.4 2.5 1.3 5.3 2 8.4 2 4.5 0 8.1-1.1 10.7-3.3 2.6-2.2 4.6-5.2 6-8.8h16.1c-.8 4-2 7.7-3.8 10.9-1.7 3.3-4 6.1-6.8 8.4-2.8 2.3-6 4.1-9.7 5.4-3.7 1.3-7.9 2-12.5 2-5.2 0-10-1-14.5-2.9s-8.3-4.7-11.6-8.3c-3.2-3.6-5.8-7.9-7.7-12.9-1.8-5.1-2.8-10.6-2.8-16.6zM8.2 321v-3.1c-.9.9-2.7 1.9-5.3 2.8-2.6.9-5.5 1.3-8.6 1.3-2.9 0-5.6-.4-8.2-1.2s-4.8-2-6.7-3.6-3.4-3.5-4.5-5.8-1.7-4.9-1.7-7.9c0-2.7.6-5.2 1.7-7.5s2.7-4.2 4.7-5.8 4.4-2.8 7-3.7c2.7-.9 5.6-1.3 8.8-1.3 2.5 0 4.9.3 7.4 1s4.3 1.5 5.5 2.3v-4.2c0-2.5-.7-4.6-2.2-6.3-1.5-1.7-3.8-2.6-7-2.6-2.3 0-4.1.5-5.5 1.4-1.4.9-2.3 2.3-2.9 4h-15.1c.4-2.6 1.3-4.9 2.6-7.2s3-4.2 5.1-5.8c2.1-1.7 4.5-3 7.2-3.9s5.7-1.4 9-1.4c7.7 0 13.6 1.9 17.8 5.8s6.3 9.3 6.3 16.2V321H8.2zm0-19.7c-.3-.8-.7-1.5-1.4-2-.7-.6-1.5-1.1-2.4-1.6-.9-.5-2-.8-3.1-1-1.1-.2-2.2-.3-3.3-.3-1.3 0-2.5.1-3.7.4-1.2.3-2.3.7-3.3 1.3-1 .6-1.7 1.3-2.3 2.2-.6.9-.8 1.9-.8 3.1 0 1.3.3 2.3.8 3.2.6.9 1.3 1.6 2.3 2.2 1 .6 2.1 1 3.3 1.3s2.4.4 3.7.4c1.1 0 2.2-.1 3.3-.3 1.1-.2 2.1-.5 3.1-1s1.7-.9 2.4-1.5 1.2-1.3 1.4-2v-4.4zm44 19.7H36.4v-83.2h15.9V321zm29.6 0H65.9v-57.2h15.9V321zm1.5-73.7c0 2.7-.9 4.9-2.8 6.6-1.9 1.7-4.1 2.5-6.7 2.5-2.5 0-4.7-.8-6.5-2.5-1.9-1.7-2.8-3.9-2.8-6.6 0-2.6.9-4.8 2.8-6.5 1.9-1.7 4.1-2.5 6.5-2.5 2.6 0 4.8.8 6.7 2.5 1.9 1.7 2.8 3.8 2.8 6.5zm28.2 73.7H95.6v-83.2h15.9v30.8c.6-.8 1.4-1.5 2.4-2.3 1-.8 2.2-1.4 3.4-2s2.6-1 4-1.3c1.5-.3 2.9-.5 4.5-.5 4.2 0 7.9.8 11.1 2.4s5.9 3.7 8.2 6.5c2.3 2.7 4 5.9 5.1 9.5s1.7 7.5 1.7 11.6-.6 8-1.7 11.6-2.9 6.8-5.1 9.5c-2.3 2.7-5 4.9-8.2 6.4s-6.9 2.3-11.1 2.3c-1.5 0-3-.2-4.5-.5s-2.8-.8-4-1.3c-1.2-.6-2.4-1.2-3.4-1.9s-1.8-1.5-2.4-2.2v4.6zm0-19.2c.9 2 2.4 3.6 4.3 4.8s4.1 1.9 6.6 1.9c2.1 0 4.1-.4 5.8-1.2 1.7-.8 3.1-1.9 4.3-3.3 1.2-1.4 2-3.1 2.7-5.1s1-4.1 1-6.4-.3-4.4-1-6.4-1.5-3.6-2.7-5.1-2.6-2.5-4.3-3.4c-1.7-.9-3.6-1.3-5.8-1.3-2.4 0-4.6.6-6.5 1.9-2 1.2-3.4 2.8-4.4 4.8v18.8zm85.4-22.4c-1.1-.7-2.3-1.2-3.7-1.5-1.4-.3-2.8-.4-4.2-.4-2.6 0-5 .7-7 2-2 1.4-3.3 3.4-3.9 6V321h-15.9v-57.2h15.9v5.6c1.2-2 2.9-3.7 5.2-5 2.3-1.3 4.8-1.9 7.6-1.9 1.5 0 2.7.1 3.8.3 1.1.2 1.8.4 2.2.7v15.9zm59.7 22.9c-.9 6.1-3.6 10.9-7.9 14.5s-10.1 5.4-17.3 5.4c-4.2 0-8-.7-11.4-2.2-3.4-1.5-6.3-3.5-8.8-6.1-2.4-2.6-4.3-5.8-5.7-9.4-1.4-3.6-2-7.7-2-12.1 0-4.4.7-8.3 2-12 1.4-3.6 3.3-6.8 5.7-9.5 2.4-2.7 5.4-4.8 8.8-6.3 3.4-1.5 7.1-2.2 11-2.2 4.3 0 8 .7 11.2 2.1 3.2 1.4 5.9 3.3 8.1 5.8 2.2 2.5 3.8 5.5 5 9 1.2 3.5 1.7 7.3 1.7 11.5v4.9h-38.1c.2 2.1.6 4.1 1.2 5.8.6 1.7 1.5 3.2 2.6 4.4s2.3 2.1 3.8 2.7c1.5.6 3.1.9 4.9.9 2.6 0 4.9-.6 6.8-1.8 1.9-1.2 3.1-3 3.7-5.4h14.7zm-25.4-27c-1.5 0-2.9.3-4.2.8-1.3.5-2.4 1.2-3.5 2.1-1 .9-1.9 2-2.6 3.3-.7 1.3-1.3 2.9-1.6 4.7h22.3c-.1-1.5-.3-3-.8-4.3-.4-1.3-1.1-2.5-2-3.5-.9-1-2-1.7-3.2-2.3-1.2-.5-2.7-.8-4.4-.8z" fill=""/></svg>