<?xml version="1.0" encoding="utf-8"?>
<!-- Generator: Adobe Illustrator 21.1.0, SVG Export Plug-In . SVG Version: 6.00 Build 0)  -->
<!DOCTYPE svg PUBLIC "-//W3C//DTD SVG 1.1//EN" "http://www.w3.org/Graphics/SVG/1.1/DTD/svg11.dtd">
<svg version="1.1" id="Layer_1" xmlns="http://www.w3.org/2000/svg" xmlns:xlink="http://www.w3.org/1999/xlink" x="0px" y="0px"
	 width="718.7px" height="238.5px" viewBox="0 0 718.7 238.5" style="enable-background:new 0 0 718.7 238.5;" xml:space="preserve"
	>
<style type="text/css">
	.st0{fill:#404041;}
	.st1{fill:#FFFFFF;}
	.st2{fill:#F38020;}
	.st3{fill:#FAAE40;}
</style>
<g>
	<path class="st0" d="M712.6,194c-3.4,0-6.1-2.7-6.1-6.1c0-3.3,2.7-6.1,6.1-6.1c3.3,0,6.1,2.7,6.1,6.1
		C718.7,191.2,715.9,194,712.6,194 M712.6,183c-2.7,0-4.9,2.2-4.9,4.9c0,2.7,2.2,4.9,4.9,4.9s4.9-2.2,4.9-4.9S715.3,183,712.6,183
		 M715.7,191.1h-1.4l-1.2-2.3h-1.6v2.3h-1.3v-6.7h3.2c1.4,0,2.3,0.9,2.3,2.2c0,1-0.6,1.7-1.4,2L715.7,191.1z M713.3,187.6
		c0.5,0,1-0.3,1-1c0-0.8-0.4-1-1-1h-2v2H713.3L713.3,187.6z"/>
	<polygon class="st0" points="77.1,181.2 92.7,181.2 92.7,223.7 119.8,223.7 119.8,237.3 77.1,237.3 	"/>
	<path class="st0" d="M135.9,209.4v-0.2c0-16.1,13-29.2,30.3-29.2s30.1,12.9,30.1,29v0.2c0,16.1-13,29.2-30.3,29.2
		S135.9,225.5,135.9,209.4 M180.5,209.4v-0.2c0-8.1-5.8-15.1-14.4-15.1c-8.5,0-14.2,6.9-14.2,15v0.2c0,8.1,5.8,15.1,14.3,15.1
		C174.8,224.4,180.5,217.5,180.5,209.4"/>
	<path class="st0" d="M215.4,212.7v-31.5h15.8v31.2c0,8.1,4.1,11.9,10.3,11.9s10.3-3.7,10.3-11.5v-31.6h15.8v31.1
		c0,18.1-10.3,26-26.3,26C225.4,238.3,215.4,230.3,215.4,212.7"/>
	<path class="st0" d="M291.4,181.2H313c20,0,31.7,11.5,31.7,27.7v0.2c0,16.2-11.8,28.2-32,28.2h-21.3L291.4,181.2L291.4,181.2z
		 M313.3,223.5c9.3,0,15.5-5.1,15.5-14.2v-0.2c0-9-6.2-14.2-15.5-14.2H307v28.5h6.3V223.5z"/>
	<polygon class="st0" points="367.3,181.2 412.2,181.2 412.2,194.8 382.8,194.8 382.8,204.4 409.4,204.4 409.4,217.3 382.8,217.3 
		382.8,237.3 367.3,237.3 	"/>
	<polygon class="st0" points="433.8,181.2 449.3,181.2 449.3,223.7 476.5,223.7 476.5,237.3 433.8,237.3 	"/>
	<path class="st0" d="M517.1,180.8h15l23.9,56.5h-16.7l-4.1-10h-21.6l-4,10h-16.3L517.1,180.8z M530.8,215.2l-6.2-15.9l-6.3,15.9
		H530.8z"/>
	<path class="st0" d="M576,181.2h26.5c8.6,0,14.5,2.2,18.3,6.1c3.3,3.2,5,7.5,5,13.1v0.2c0,8.6-4.6,14.3-11.5,17.2l13.4,19.6h-18
		l-11.3-17h-6.8v17H576V181.2L576,181.2z M601.8,208.1c5.3,0,8.3-2.6,8.3-6.6v-0.2c0-4.4-3.2-6.6-8.4-6.6h-10.2v13.4H601.8
		L601.8,208.1z"/>
	<polygon class="st0" points="648.2,181.2 693.3,181.2 693.3,194.4 663.6,194.4 663.6,202.9 690.5,202.9 690.5,215.2 663.6,215.2 
		663.6,224.1 693.7,224.1 693.7,237.3 648.2,237.3 	"/>
	<path class="st0" d="M43.1,216c-2.2,4.9-6.8,8.4-12.8,8.4c-8.5,0-14.3-7.1-14.3-15.1v-0.2c0-8.1,5.7-15,14.2-15
		c6.4,0,11.3,3.9,13.3,9.3h16.4c-2.6-13.4-14.4-23.3-29.6-23.3C13,180.1,0,193.2,0,209.3v0.2c0,16.1,12.8,29,30.1,29
		c14.8,0,26.4-9.6,29.4-22.4L43.1,216L43.1,216z"/>
	<g>
		<polygon class="st1" points="674.9,91.7 632,67.1 624.6,63.9 449.1,65.1 449.1,154.2 674.9,154.2 		"/>
		<path class="st2" d="M596.8,146c2.1-7.2,1.3-13.8-2.2-18.7c-3.2-4.5-8.6-7.1-15.1-7.4l-123.1-1.6c-0.8,0-1.5-0.4-1.9-1
			s-0.5-1.4-0.3-2.2c0.4-1.2,1.6-2.1,2.9-2.2l124.2-1.6c14.7-0.7,30.7-12.6,36.3-27.2l7.1-18.5c0.3-0.8,0.4-1.6,0.2-2.4
			C616.9,27,584.6,0,546,0c-35.6,0-65.8,23-76.6,54.9c-7-5.2-15.9-8-25.5-7.1c-17.1,1.7-30.8,15.4-32.5,32.5
			c-0.4,4.4-0.1,8.7,0.9,12.7c-27.9,0.8-50.2,23.6-50.2,51.7c0,2.5,0.2,5,0.5,7.5c0.2,1.2,1.2,2.1,2.4,2.1h227.2
			c1.3,0,2.5-0.9,2.9-2.2L596.8,146z"/>
		<path class="st3" d="M636,66.9c-1.1,0-2.3,0-3.4,0.1c-0.8,0-1.5,0.6-1.8,1.4L626,85.1c-2.1,7.2-1.3,13.8,2.2,18.7
			c3.2,4.5,8.6,7.1,15.1,7.4l26.2,1.6c0.8,0,1.5,0.4,1.9,1s0.5,1.5,0.3,2.2c-0.4,1.2-1.6,2.1-2.9,2.2l-27.3,1.6
			c-14.8,0.7-30.7,12.6-36.3,27.2l-2,5.1c-0.4,1,0.3,2,1.4,2h93.8c1.1,0,2.1-0.7,2.4-1.8c1.6-5.8,2.5-11.9,2.5-18.2
			C703.3,97.1,673.1,66.9,636,66.9"/>
	</g>
</g>
</svg>
