<?xml version="1.0" standalone="no"?>
<!DOCTYPE svg PUBLIC "-//W3C//DTD SVG 20010904//EN"
 "http://www.w3.org/TR/2001/REC-SVG-20010904/DTD/svg10.dtd">
<svg version="1.0" xmlns="http://www.w3.org/2000/svg"
 width="235.000000pt" height="156.000000pt" viewBox="0 0 235.000000 156.000000"
 preserveAspectRatio="xMidYMid meet">
<metadata>
Created by potrace 1.14, written by Peter Selinger 2001-2017
</metadata>
<g transform="translate(0.000000,156.000000) scale(0.100000,-0.100000)"
fill="#000000" stroke="none">
<path d="M173 1441 c-26 -12 -52 -35 -70 -62 -25 -37 -28 -52 -28 -120 0 -86
14 -115 75 -156 40 -28 107 -30 152 -7 25 13 32 13 39 3 14 -23 20 -3 17 57
l-3 59 -22 -47 c-25 -55 -60 -81 -104 -76 -46 4 -68 40 -75 119 -10 105 2 177
37 212 24 23 35 28 57 22 37 -9 61 -33 83 -80 l19 -40 0 57 c0 43 -3 56 -13
52 -7 -2 -32 2 -56 11 -54 19 -57 19 -108 -4z"/>
<path d="M1018 1301 c-30 -15 -38 -16 -38 -5 0 11 -14 14 -57 13 -32 -1 -48
-4 -35 -6 21 -4 22 -9 22 -103 0 -85 -2 -99 -17 -103 -10 -3 11 -5 47 -5 36 0
59 2 53 5 -9 3 -13 29 -13 77 0 59 4 78 21 100 44 56 69 23 69 -93 0 -67 -3
-80 -17 -84 -10 -3 14 -5 52 -4 39 0 60 2 48 4 -22 4 -23 9 -23 92 0 54 -5 93
-12 104 -21 26 -59 30 -100 8z"/>
<path d="M432 1294 c-12 -8 -22 -24 -22 -34 0 -19 32 -36 50 -25 13 8 13 45 0
45 -5 0 -10 5 -10 10 0 6 18 10 39 10 42 0 51 -11 51 -61 0 -25 -4 -29 -27
-29 -87 0 -139 -43 -115 -94 15 -33 75 -45 113 -23 24 13 30 13 40 1 22 -27
89 -9 89 24 -1 16 -1 16 -11 -1 -19 -33 -29 -6 -29 78 0 75 -2 85 -22 99 -13
10 -43 16 -73 16 -30 0 -60 -6 -73 -16z"/>
<path d="M663 1303 c15 -4 17 -18 17 -103 0 -85 -2 -99 -17 -103 -10 -3 18 -5
62 -4 44 0 67 2 51 4 l-28 5 2 81 c5 135 8 127 -52 126 -29 -1 -45 -3 -35 -6z"/>
<path d="M1222 1294 c-94 -66 -48 -214 67 -214 33 0 86 39 94 70 7 28 -2 25
-13 -4 -14 -38 -56 -61 -88 -50 -20 7 -28 19 -34 49 -13 60 -8 65 71 65 l70 0
-11 30 c-21 63 -103 91 -156 54z"/>
<path d="M1435 1286 c-30 -31 -32 -55 -4 -90 29 -36 99 -37 134 -1 27 26 31
46 15 75 -6 11 -6 21 -1 24 5 3 11 -1 15 -9 8 -21 38 -19 34 3 -3 14 -16 17
-86 20 -76 2 -85 0 -107 -22z"/>
<path d="M1663 1303 c15 -4 17 -18 17 -103 0 -85 -2 -99 -17 -103 -10 -3 14
-5 52 -5 39 0 62 2 53 5 -16 4 -18 18 -18 109 l0 104 -52 -1 c-29 -1 -45 -3
-35 -6z"/>
<path d="M1828 1281 c-30 -27 -33 -35 -33 -85 0 -71 30 -106 98 -113 41 -5 49
-2 77 25 16 17 30 36 30 44 0 7 -9 -1 -19 -19 -46 -75 -121 -46 -121 48 l0 29
70 0 c64 0 70 2 70 21 0 11 -13 34 -29 50 -41 41 -98 41 -143 0z"/>
<path d="M1424 1162 c-20 -13 -24 -46 -10 -73 12 -24 12 -28 -5 -43 -11 -9
-19 -23 -19 -31 0 -39 79 -75 134 -61 71 18 111 111 67 155 -17 17 -33 21 -92
21 -66 0 -71 1 -66 20 6 23 6 22 -9 12z m156 -107 c47 -57 -87 -128 -140 -75
-24 24 -25 47 -3 72 21 23 124 26 143 3z"/>
<path d="M83 993 c15 -4 17 -20 17 -160 0 -132 -3 -159 -17 -175 -15 -17 -14
-18 28 -18 42 0 43 0 21 16 -21 15 -22 21 -22 172 0 92 4 151 9 142 5 -8 29
-73 54 -145 66 -191 67 -193 77 -175 4 8 31 82 59 164 28 83 54 152 56 155 3
2 5 -68 5 -157 0 -144 -2 -161 -17 -165 -10 -3 14 -5 52 -5 39 0 62 2 53 5
-16 4 -18 21 -18 173 0 152 2 169 18 173 9 3 -8 5 -39 6 l-56 1 -21 -57 c-11
-32 -30 -86 -43 -121 -12 -34 -24 -61 -26 -59 -2 2 -21 55 -42 118 l-38 114
-64 2 c-35 1 -56 -1 -46 -4z"/>
<path d="M723 993 c15 -4 17 -21 17 -169 0 -161 0 -165 -22 -174 -17 -6 -3 -9
52 -9 55 0 69 3 53 9 -23 9 -23 12 -23 180 l0 170 -47 -1 c-27 -1 -40 -3 -30
-6z"/>
<path d="M873 993 c15 -4 17 -21 17 -173 0 -167 0 -169 -22 -173 -13 -2 11 -5
52 -5 54 -1 69 2 53 8 -23 9 -23 12 -23 180 l0 170 -47 -1 c-27 -1 -40 -3 -30
-6z"/>
<path d="M531 844 c-88 -74 -41 -210 71 -208 25 1 47 9 63 24 22 21 42 66 24
54 -5 -3 -9 -11 -9 -18 0 -37 -80 -62 -108 -34 -7 7 -12 31 -12 55 l0 43 64 0
c36 0 68 4 71 10 10 16 -24 69 -55 85 -42 22 -74 19 -109 -11z"/>
<path d="M1060 857 c-33 -16 -70 -73 -70 -107 0 -40 40 -92 83 -109 33 -12 42
-12 82 4 66 25 92 88 65 159 -20 53 -104 81 -160 53z m84 -19 c18 -26 22 -138
6 -169 -12 -21 -50 -25 -68 -7 -7 7 -12 44 -12 95 0 68 3 84 18 92 26 16 39
13 56 -11z"/>
<path d="M1366 849 c-21 -17 -26 -18 -26 -5 0 13 -11 16 -52 15 -29 -1 -45 -3
-35 -6 15 -4 17 -18 17 -103 0 -85 -2 -99 -17 -103 -10 -3 14 -5 52 -5 39 0
62 2 53 5 -15 4 -18 17 -18 82 0 64 4 81 20 99 24 26 55 29 64 6 3 -9 6 -51 6
-94 0 -65 -3 -81 -17 -89 -14 -8 0 -10 52 -10 52 0 64 3 48 9 -21 9 -23 15
-23 98 0 73 -3 92 -18 105 -25 23 -74 21 -106 -4z"/>
<path d="M82 553 c14 -3 17 -24 20 -143 l3 -140 33 -32 c30 -31 37 -33 103
-33 67 0 72 2 100 33 l29 32 0 135 c0 131 1 136 23 145 17 7 12 9 -28 9 -40 0
-45 -2 -27 -9 21 -9 22 -14 22 -128 0 -136 -10 -177 -51 -197 -34 -18 -50 -19
-82 -4 -40 18 -50 54 -55 196 l-4 131 23 5 c13 2 -10 4 -51 4 -41 1 -68 -1
-58 -4z"/>
<path d="M1922 513 c-3 -28 -49 -83 -70 -84 -11 0 -12 -2 -4 -6 8 -3 12 -32
12 -94 0 -76 3 -92 20 -109 11 -11 29 -20 41 -20 26 0 59 18 59 32 0 7 -5 6
-15 -2 -27 -23 -36 2 -33 96 l3 89 35 0 c34 0 35 -1 82 -108 47 -108 47 -108
32 -147 -15 -37 -17 -39 -38 -25 -19 13 -25 13 -42 1 -15 -12 -17 -18 -8 -33
17 -28 50 -28 69 1 10 14 41 83 70 153 29 70 62 137 73 150 l20 23 -41 0 c-37
0 -39 -1 -22 -14 18 -13 18 -15 -5 -72 l-24 -58 -27 60 c-33 72 -33 71 -11 77
9 3 -24 5 -75 6 l-92 1 -4 53 c-2 28 -4 42 -5 30z"/>
<path d="M548 421 c-30 -15 -38 -16 -42 -5 -4 9 -21 14 -53 13 -26 -1 -40 -3
-30 -6 15 -4 17 -18 17 -103 0 -85 -2 -99 -17 -103 -10 -3 11 -5 47 -5 36 0
59 2 53 5 -9 3 -13 29 -13 78 0 63 3 78 23 101 16 18 30 25 40 21 14 -5 17
-22 17 -101 0 -66 -4 -96 -12 -99 -7 -3 16 -5 52 -5 36 0 57 2 48 5 -15 4 -18
17 -18 92 0 71 -3 91 -17 103 -30 26 -57 29 -95 9z"/>
<path d="M1427 420 c-21 -17 -26 -18 -31 -5 -4 11 -20 15 -58 14 -29 -1 -43
-4 -30 -6 21 -4 22 -9 22 -103 0 -85 -2 -99 -17 -103 -10 -3 16 -5 57 -4 41 0
65 2 53 4 -21 4 -23 10 -23 79 0 73 11 114 30 114 6 0 10 -9 10 -19 0 -15 18
-31 35 -31 7 0 35 32 35 40 0 13 -30 40 -44 40 -7 0 -25 -9 -39 -20z"/>
<path d="M723 423 c15 -4 17 -18 17 -103 0 -85 -2 -99 -17 -103 -10 -3 14 -5
52 -5 39 0 62 2 53 5 -16 4 -18 18 -18 109 l0 104 -52 -1 c-29 -1 -45 -3 -35
-6z"/>
<path d="M846 422 c11 -7 35 -56 84 -169 12 -29 25 -53 29 -53 3 0 24 44 46
97 22 53 49 105 59 115 19 18 19 18 -25 17 -24 -1 -36 -3 -26 -6 9 -2 17 -13
17 -23 0 -20 -38 -115 -44 -109 -2 2 -15 31 -29 64 -23 54 -24 61 -9 67 10 4
-12 7 -48 7 -36 0 -60 -3 -54 -7z"/>
<path d="M1110 401 c-75 -74 -39 -187 62 -198 37 -4 49 -1 76 22 18 15 32 34
32 43 0 11 -8 5 -20 -15 -21 -35 -63 -52 -89 -36 -17 11 -35 79 -27 100 4 9
27 13 71 13 59 0 65 2 65 21 0 11 -13 34 -29 50 -41 41 -101 41 -141 0z"/>
<path d="M1547 416 c-24 -18 -32 -76 -15 -100 8 -10 39 -24 69 -30 58 -13 72
-32 44 -60 -26 -25 -55 -19 -91 20 l-34 35 0 -38 0 -38 66 0 c54 0 68 4 80 20
37 50 25 110 -23 120 -82 17 -88 20 -88 45 0 21 5 26 35 28 28 3 39 -2 57 -25
l23 -28 0 30 c0 29 -1 30 -53 32 -32 2 -59 -2 -70 -11z"/>
</g>
</svg>
