<?xml version="1.0" encoding="utf-8"?>
<!-- Generator: Adobe Illustrator 21.1.0, SVG Export Plug-In . SVG Version: 6.00 Build 0)  -->
<!DOCTYPE svg PUBLIC "-//W3C//DTD SVG 1.1//EN" "http://www.w3.org/Graphics/SVG/1.1/DTD/svg11.dtd">
<svg version="1.1" id="Ebene_1" xmlns="http://www.w3.org/2000/svg" xmlns:xlink="http://www.w3.org/1999/xlink" x="0px" y="0px"
	 width="157px" height="32px" viewBox="0 0 157 32" style="enable-background:new 0 0 157 32;" xml:space="preserve">
<style type="text/css">
	.st0{fill:#FAE501;}
	.st1{fill:#4FB5E1;}
	.st2{fill:#F05751;}
	.st3{fill:#0681B6;}
	.st4{fill:#CD4739;}
	.st5{fill:#2A3039;}
</style>
<path class="st0" d="M9.7,22.3C8,20.7,7,18.5,7,16s1-4.7,2.6-6.3c1.4-1.4,1.4-3.6,0-5s-3.6-1.4-5,0C1.8,7.6,0,11.6,0,16
	s1.8,8.4,4.7,11.3c1.4,1.4,3.6,1.4,5,0C11,25.9,11,23.7,9.7,22.3z"/>
<path class="st1" d="M9.7,9.7C11.3,8,13.5,7,16,7s4.7,1,6.3,2.6c1.4,1.4,3.6,1.4,5,0s1.4-3.6,0-5C24.4,1.8,20.4,0,16,0
	S7.6,1.8,4.7,4.7c-1.4,1.4-1.4,3.6,0,5C6.1,11,8.3,11,9.7,9.7z"/>
<path class="st2" d="M22.3,22.3C20.7,24,18.5,25,16,25s-4.7-1-6.3-2.6c-1.4-1.4-3.6-1.4-5,0s-1.4,3.6,0,5C7.6,30.2,11.6,32,16,32
	s8.4-1.8,11.3-4.7c1.4-1.4,1.4-3.6,0-5C25.9,21,23.7,21,22.3,22.3z"/>
<circle class="st3" cx="7.2" cy="7.2" r="3.5"/>
<circle class="st4" cx="7.2" cy="24.8" r="3.5"/>
<path class="st5" d="M43,19.3c1-0.8,1.2-0.3,2,0.5c0.4,0.4,1.6,1.2,0.8,1.8c-1.6,1.3-3,1.9-5.1,1.9c-4.6,0-7.9-3.5-7.7-8
	c0.1-2.1,0.9-4,2.5-5.3C37,9,38.8,8.4,40.7,8.5c1,0,1.8,0.2,2.7,0.5c0.6,0.2,1.2,0.5,1.7,0.9c1,0.8,0.5,1.2-0.2,2
	c-0.2,0.2-0.3,0.4-0.5,0.5c-0.4,0.4-0.7,0.7-1.2,0.3c-1-0.7-2.4-1.1-3.6-0.8c-4,1-3.8,8.1,1.1,8.1C41.5,20.1,42.4,19.8,43,19.3z
	 M154.1,23.2c-0.7,0-1.2-0.5-1.2-1.2V6.3c0-0.7,0.5-1.2,1.2-1.2h1.3c0.7,0,1.2,0.5,1.2,1.2V22c0,0.7-0.5,1.2-1.2,1.2
	C155.4,23.2,154.1,23.2,154.1,23.2z M147.2,21.4c-1.4,1.3-2.8,2-4.8,2c-4.1,0-6-3.4-6-7.1V9.9c0-0.7,0.5-1.2,1.2-1.2h1.3
	c0.7,0,1.2,0.5,1.2,1.2v6.4c0,2.1,1.1,3.7,3.4,3.7c2.2,0,3.6-1.9,3.6-3.9V9.9c0-0.7,0.5-1.2,1.2-1.2h1.3c0.7,0,1.2,0.5,1.2,1.2V22
	c0,0.7-0.5,1.2-1.2,1.2h-1.1c-0.7,0-1.1-0.6-1.2-1.2L147.2,21.4L147.2,21.4z M131.6,8.8h2.5c0.7,0,1.2,0.6,1.2,1.2v0.8
	c0,0.7-0.5,1.2-1.2,1.2h-2.5v10c0,0.7-0.5,1.2-1.2,1.2h-1.3c-0.7,0-1.2-0.5-1.2-1.2V8.3c0-3,1.7-5.4,4.8-5.7h1.9
	c0.7,0,1.2,0.6,1.2,1.2v0.8c0,0.7-0.5,1.2-1.2,1.2h-1c-1.5,0-2.1,1.1-2.1,2.5v0.5H131.6z M122.5,8.8h2.8c0.7,0,1.2,0.5,1.2,1.2v0.8
	c0,0.7-0.5,1.2-1.2,1.2h-2.8v6.1c0,1.2,0.6,1.8,1.8,1.8h0.6c0.7,0,1.2,0.5,1.2,1.2V22c0,0.7-0.5,1.2-1.2,1.2h-1.7
	c-3-0.2-4.3-2.1-4.3-5.1V6.3c0-0.7,0.5-1.2,1.2-1.2h1.3c0.7,0,1.2,0.5,1.2,1.2L122.5,8.8L122.5,8.8L122.5,8.8z M82.4,8.8h2.8
	c0.7,0,1.2,0.5,1.2,1.2v0.8c0,0.7-0.5,1.2-1.2,1.2h-2.8v6.1c0,1.2,0.6,1.9,1.8,1.9h0.6c0.7,0,1.2,0.5,1.2,1.2V22
	c0,0.7-0.5,1.2-1.2,1.2H84c-3.3,0-5.2-1.4-5.2-5.1V6.3c0-0.7,0.5-1.2,1.2-1.2h1.3c0.7,0,1.2,0.5,1.2,1.2L82.4,8.8
	C82.5,8.8,82.4,8.8,82.4,8.8z M66.1,10.5c1.3-1.3,2.8-2,4.6-2c4.1,0,6.2,3.3,6.2,7.1V22c0,0.7-0.5,1.2-1.2,1.2h-1.3
	c-0.7,0-1.2-0.5-1.2-1.2v-6.4c0-2.1-1.1-3.7-3.4-3.7c-2.2,0-3.6,1.8-3.6,3.9V22c0,0.7-0.5,1.2-1.2,1.2h-1.3c-0.7,0-1.2-0.5-1.2-1.2
	V9.9c0-0.7,0.5-1.2,1.2-1.2h1.1c0.7,0,1.1,0.6,1.2,1.2L66.1,10.5z M106.3,10.5c1.3-1.3,2.8-2,4.6-2c4.1,0,6.2,3.3,6.2,7.1V22
	c0,0.7-0.5,1.2-1.2,1.2h-1.3c-0.7,0-1.2-0.5-1.2-1.2v-6.4c0-2.1-1.1-3.7-3.4-3.7c-2.2,0-3.6,1.8-3.6,3.9V22c0,0.7-0.5,1.2-1.2,1.2
	h-1.3c-0.7,0-1.2-0.5-1.2-1.2V9.9c0-0.7,0.5-1.2,1.2-1.2h1.1c0.7,0,1.1,0.6,1.2,1.2C106.2,9.9,106.3,10.5,106.3,10.5z M53.8,8.4
	c-4.4,0-7.5,3.2-7.5,7.6s3.1,7.6,7.5,7.6c4.5,0,7.6-3.1,7.6-7.6C61.4,11.6,58.2,8.4,53.8,8.4z M90.4,17.3c0.3,2,2.3,2.9,4.2,2.9
	c0.9,0,1.9-0.2,2.7-0.6c0.1-0.1,0.3-0.1,0.4-0.2c0.5-0.3,0.9-0.4,1.3,0l0.7,0.7l0.6,0.6c0.6,0.8,0.2,1-0.5,1.4
	c-1.5,1-3.4,1.5-5.2,1.5c-4.8,0-8-2.9-8-7.7c0-4.6,3.2-7.6,7.7-7.6c4.7,0,7.3,2.7,7.4,7.4c0,1.3,0.1,1.7-1.2,1.7H90.4
	C90.4,17.4,90.4,17.3,90.4,17.3z M53.8,11.8c2.3,0,3.8,2,3.8,4.2c0,2.3-1.4,4.1-3.8,4.1S50,18.3,50,16S51.5,11.8,53.8,11.8z
	 M90.5,14.2H98c-0.3-1.9-1.8-2.6-3.6-2.6C92.5,11.6,91,12.5,90.5,14.2z"/>
</svg>
