<?xml version="1.0" encoding="utf-8"?>
<!-- Generator: Adobe Illustrator 21.0.0, SVG Export Plug-In . SVG Version: 6.00 Build 0)  -->
<!DOCTYPE svg PUBLIC "-//W3C//DTD SVG 1.1//EN" "http://www.w3.org/Graphics/SVG/1.1/DTD/svg11.dtd">
<svg version="1.1" id="Ebene_1" xmlns="http://www.w3.org/2000/svg" xmlns:xlink="http://www.w3.org/1999/xlink" x="0px" y="0px"
	 width="1366px" height="768px" viewBox="0 0 1366 768" style="enable-background:new 0 0 1366 768;" xml:space="preserve">
<style type="text/css">
	.st0{fill:#1BBBE9;}
	.st1{fill:#0095D0;}
	.st2{fill:#37559E;}
	.st3{fill:#00B0E3;}
	.st4{fill:#648CC3;}
	.st5{fill:#00315C;}
	.st6{fill:#93A0A7;}
</style>
<g>
	<g>
		<g>
			<g>
				<path class="st0" d="M554.6,159.6l0,285.6h123.2V159.8L554.6,159.6z M636.7,390.5h-41.2V214.3h41.2V390.5z"/>
			</g>
		</g>
		<rect x="459.3" y="258.6" class="st1" width="81.8" height="86.6"/>
		<polygon class="st2" points="636.4,57.6 636.4,146.3 691.2,146.3 691.2,445.2 786.4,445.2 786.4,57.6 		"/>
		<polygon class="st3" points="895.4,340.1 895.4,445.1 799.8,445.2 799.8,340.1 		"/>
		<polygon class="st1" points="799.8,326.7 895.4,326.7 895.4,221.4 836.2,221.4 836.2,166.7 799.8,166.7 		"/>
		<rect x="459.3" y="358.7" class="st4" width="81.7" height="86.6"/>
	</g>
	<g>
		<polygon class="st5" points="59,615.3 182.9,615.3 182.9,594 87.1,594 87.1,565.9 174.7,565.9 174.7,546.2 87.1,546.2 87.1,521.4 
			182.9,521.4 182.9,501.2 59,501.2 		"/>
		<polygon class="st5" points="291.1,521.7 346.4,521.7 346.4,501.2 208.2,501.2 208.2,521.7 263.3,521.7 263.3,615.3 291.1,615.3 
					"/>
		<polygon class="st5" points="400.1,521.4 496,521.4 496,501.2 372,501.2 372,615.3 495.9,615.3 495.9,594 400.1,594 400.1,565.9 
			487.8,565.9 487.8,546.2 400.1,546.2 		"/>
		<path class="st5" d="M630.6,615.2h28.2v-21.8h-57.2H556v-71.3h102.6c0,0,0,0,0,0h0.2v-20.9h-57.2v0h-43.9
			c-11.5,0-19.3,1.9-23.5,5.5c-4.1,3.7-6.2,10.8-6.2,21.4v60.2c0,10.4,2.1,17.5,6.2,21.3c4.1,3.8,12,5.7,23.5,5.7H629
			C629.6,615.3,630.1,615.3,630.6,615.2"/>
		<polygon class="st5" points="767.3,521.7 822.6,521.7 822.6,501.2 684.4,501.2 684.4,521.7 739.4,521.7 739.4,615.3 767.3,615.3 
					"/>
		<path class="st5" d="M982,609.8c4.2-3.7,6.3-10.8,6.3-21.5v-87.2h-28.1V594h-79.1v-92.8h-28.1v87.2c0,10.6,2.1,17.8,6.2,21.5
			c4.1,3.7,12,5.5,23.5,5.5h75.6C970,615.3,977.8,613.5,982,609.8"/>
		<path class="st5" d="M1124.9,552.5h-76.4v-31.8h76.4V552.5z M1150.7,615.3l-23.6-43.3c15.6-0.9,23.5-8,23.5-21.7v-27
			c0-14.7-8.9-22.1-26.7-22.1h-102.9v114.1h27.5v-43.2h51.4l23.2,43.1L1150.7,615.3L1150.7,615.3z"/>
		<polygon class="st5" points="1211.1,594 1211.1,565.9 1298.8,565.9 1298.8,546.2 1211.1,546.2 1211.1,521.4 1307,521.4 
			1307,501.2 1183.1,501.2 1183.1,615.3 1307,615.3 1307,594 		"/>
	</g>
	<g>
		<path class="st6" d="M1127.7,693.5c0.2,11.8,9.7,17,21.3,17c10.2,0,20.3-4.2,20.3-14.9c0-4.9-3.2-10.2-9.9-12.1
			c-2.7-0.7-14-3.5-14.7-3.7c-3.7-0.9-6.1-2.8-6.1-6.1c0-4.8,5.2-6.2,9.4-6.2c6.2,0,10.6,2.3,11,8.4h8.9c0-9.9-8.9-15.2-19.6-15.2
			c-9.2,0-18.7,4.5-18.7,14c0,4.9,2.6,9.8,11.3,12c7,1.8,11.7,2.7,15.2,3.9c2.1,0.7,4.2,2.2,4.2,5.8c0,3.6-2.9,7.2-10.8,7.2
			c-7.2,0-12.9-2.9-12.9-10.2L1127.7,693.5L1127.7,693.5z"/>
		<polygon class="st6" points="1072.9,669 1089.1,669 1089.1,709.3 1098,709.3 1098,669 1114.3,669 1114.3,661.8 1072.9,661.8 		"/>
		<path class="st6" d="M1058.2,676.9c-1.1-10.3-10.1-16.2-21.7-16.2c-15.3,0-24.5,11.3-24.5,24.9c0,13.6,9.1,24.9,24.5,24.9
			c12.4,0,21-7.8,21.8-19.2h-8.7c-0.7,6.9-5.1,12.4-13,12.4c-11,0-15.5-9-15.5-18.1c0-9.1,4.6-18.1,15.5-18.1c7.4,0,11.2,4,12.7,9.4
			L1058.2,676.9L1058.2,676.9z"/>
		<polygon class="st6" points="956.6,709.3 993.9,709.3 993.9,702.1 965.6,702.1 965.6,688.2 991.3,688.2 991.3,681.4 965.6,681.4 
			965.6,669 993.4,669 993.4,661.8 956.6,661.8 		"/>
		<polygon class="st6" points="894.6,669 910.7,669 910.7,709.3 919.7,709.3 919.7,669 935.9,669 935.9,661.8 894.6,661.8 		"/>
		<rect x="864.8" y="661.8" class="st6" width="8.9" height="47.5"/>
		<polygon class="st6" points="798.1,709.3 807.1,709.3 807.1,687.9 830.4,687.9 830.4,709.3 839.3,709.3 839.3,661.8 830.4,661.8 
			830.4,680.7 807.1,680.7 807.1,661.8 798.1,661.8 		"/>
		<path class="st6" d="M775.4,676.9c-1.1-10.3-10.1-16.2-21.7-16.2c-15.3,0-24.5,11.3-24.5,24.9c0,13.6,9.1,24.9,24.5,24.9
			c12.4,0,21-7.8,21.8-19.2h-8.7c-0.7,6.9-5.1,12.4-13,12.4c-11,0-15.5-9-15.5-18.1c0-9.1,4.6-18.1,15.5-18.1c7.4,0,11.2,4,12.7,9.4
			L775.4,676.9L775.4,676.9z"/>
		<polygon class="st6" points="514.1,709.3 549,709.3 549,702.1 523,702.1 523,661.8 514.1,661.8 		"/>
		<polygon class="st6" points="396.1,669 412.3,669 412.3,709.3 421.2,709.3 421.2,669 437.5,669 437.5,661.8 396.1,661.8 		"/>
		<rect x="366.3" y="661.8" class="st6" width="8.9" height="47.5"/>
		<path class="st6" d="M341.9,684.3h-21.8v6.3h13.6c-0.1,8-5.2,13.2-14.3,13c-11,0-15.5-9-15.5-18.1c0-9.1,4.6-18.1,15.5-18.1
			c6.4,0,12.3,3.2,13.2,9.4h8.7c-1.4-10.7-10.7-16.2-21.9-16.2c-15.3,0-24.5,11.3-24.5,24.9c0,13.6,9.1,24.9,24.5,24.9
			c6.2,0,10.6-1.7,15.4-6.7l1.4,5.6h5.7C341.9,709.3,341.9,684.3,341.9,684.3z"/>
		<rect x="262.6" y="661.8" class="st6" width="8.9" height="47.5"/>
		<path class="st6" d="M666.8,709.3h8.9v-19.6h13.2c8.2,0,10.2,3.9,10.2,12.6c0,2.3,0,4.9,1.4,7h9.6c-1.9-1.9-2.8-7-2.8-12.5
			c0-7.5-4.5-9.6-7.6-10v-0.1c1.6-0.5,8.4-2.9,8.4-12c0-8-5.7-12.8-16.9-12.8h-24.4L666.8,709.3L666.8,709.3z M675.8,668.6h14.5
			c4.6,0,8.9,1.2,8.9,7.3c0,5-3.1,7.6-8.7,7.6h-14.7L675.8,668.6L675.8,668.6z"/>
		<path class="st6" d="M598.6,709.3h9.2l4.8-12.6H633l4.8,12.6h9.6l-19.7-47.5h-9.5L598.6,709.3z M622.8,670h0.1h0.1l7.7,20.4h-15.6
			L622.8,670z"/>
		<path class="st6" d="M445.6,709.3h9.2l4.8-12.6h20.4l4.8,12.6h9.6l-19.7-47.5h-9.5L445.6,709.3z M469.8,670h0.1h0.1l7.7,20.4
			h-15.6L469.8,670z"/>
		<path class="st6" d="M196.2,709.3h21.2c15.8,0,22.5-10.6,22.5-23.7c0-13.1-6.8-23.7-22.5-23.7h-21.2V709.3z M205.1,668.6h8.8
			c14,0,17,7.5,17,17c0,9.5-3,17-17,17h-8.8V668.6z"/>
	</g>
</g>
</svg>
