<?xml version="1.0" encoding="utf-8"?>
<!-- Generator: Adobe Illustrator 21.0.0, SVG Export Plug-In . SVG Version: 6.00 Build 0)  -->
<!DOCTYPE svg PUBLIC "-//W3C//DTD SVG 1.1//EN" "http://www.w3.org/Graphics/SVG/1.1/DTD/svg11.dtd">
<svg version="1.1" id="Ebene_1" xmlns="http://www.w3.org/2000/svg" xmlns:xlink="http://www.w3.org/1999/xlink" x="0px" y="0px"
	 width="792px" height="552px" viewBox="0 0 792 552" style="enable-background:new 0 0 792 552;" xml:space="preserve">
<style type="text/css">
	.st0{fill:#3C5A99;}
</style>
<path class="st0" d="M82.3,226.6c-8.8,0-11.3,3.9-11.3,12.5v14.2h23.4l-2.3,23H71v69.7H43v-69.7H24.1v-23H43v-13.8
	c0-23.2,9.3-35.4,35.4-35.4c5.6,0,12.3,0.4,16.3,1v21.6 M96.3,302.5c0,25.9,12.3,45.3,37.9,45.3c14,0,22.8-7,26.7-15.9v14h26.9
	v-92.6h-26.9v14.2c-4.1-8.9-12.6-16.2-26.7-16.2c-25.7,0-37.9,19.5-37.9,45.3 M124.4,296.2c0-13.8,5.1-23,18.1-23
	c11.5,0,17.3,8.4,17.3,21.6v9.3c0,13.2-5.8,21.6-17.3,21.6c-13,0-18.1-9.1-18.1-23V296.2z M246.2,251.3c-32.9,0-47.9,17.7-47.9,46.1
	v4.3c0,28.4,15,46.1,47.9,46.1c10.9,0,21.2-2.3,26.9-6.2l-6.2-19.9c-4.3,2.1-11.3,4.3-18.7,4.3c-15.2,0-21.8-8.8-21.8-23.7v-5.4
	c0-15,6.6-23.7,21.8-23.7c7.4,0,14.4,2.1,18.7,4.3l6.2-19.9C267.4,253.6,257.1,251.3,246.2,251.3 M276.7,303.1
	c0,27.2,13.2,44.9,48.6,44.9c13.4,0,28.6-2.9,36-6.8l-5.1-19.3c-8.2,3.5-19.3,5.6-29.8,5.6c-15.6,0-21.2-5.6-21.8-18.3h59v-14.8
	c0-25.7-12.6-43.2-41.4-43.2c-30.6,0-45.5,17.3-45.5,43.6V303.1 M304.7,291c0-12.5,4.9-20.4,17.5-20.4c12.3,0,16.3,8,16.3,18.1v2.3
	H304.7 M467.6,296.6c0-25.9-12.5-45.3-38.1-45.3c-13,0-22,6.6-26.1,14.8v-61.9l-28,2.5v139.2h26.5v-14c3.9,8.9,13.6,16,27.6,16
	c25.7,0,38.1-19.5,38.1-45.3 M439.6,303c0,13-5.1,22.8-18.5,22.8c-11.5,0-17.7-8.2-17.7-21.4v-9.7c0-13.2,6.2-21.4,17.7-21.4
	c13.4,0,18.5,9.7,18.5,22.8V303z M477,301.9c0,26.7,15.2,45.9,46.1,45.9c30.9,0,46.1-19.3,46.1-45.9v-4.7
	c0-26.7-15.2-45.9-46.1-45.9c-30.9,0-46.1,19.3-46.1,45.9V301.9 M541.2,303.8c0,12.3-5.1,22-18.1,22c-13,0-18.1-9.7-18.1-22v-8.6
	c0-12.3,5.1-22,18.1-22c13,0,18.1,9.7,18.1,22V303.8z M578.5,301.9c0,26.7,15.2,45.9,46.1,45.9c30.9,0,46.1-19.3,46.1-45.9v-4.7
	c0-26.7-15.2-45.9-46.1-45.9c-30.9,0-46.1,19.3-46.1,45.9V301.9 M642.8,303.8c0,12.3-5.1,22-18.1,22c-13,0-18.1-9.7-18.1-22v-8.6
	c0-12.3,5.1-22,18.1-22c13,0,18.1,9.7,18.1,22V303.8z M709.3,204.2l-28,2.5v139.1h28v-45.3l28.8,45.3h29.8L737.7,299l29-45.7h-29.8
	l-27.6,44.2"/>
</svg>
