<?xml version="1.0" encoding="utf-8"?>
<!-- Generator: Adobe Illustrator 15.1.0, SVG Export Plug-In  -->
<!DOCTYPE svg PUBLIC "-//W3C//DTD SVG 1.1//EN" "http://www.w3.org/Graphics/SVG/1.1/DTD/svg11.dtd" [
	<!ENTITY ns_flows "http://ns.adobe.com/Flows/1.0/">
]>
<svg version="1.1"
	 xmlns="http://www.w3.org/2000/svg" xmlns:xlink="http://www.w3.org/1999/xlink" xmlns:a="http://ns.adobe.com/AdobeSVGViewerExtensions/3.0/"
	 x="0px" y="0px" width="372px" height="91px" viewBox="0 0 372 91" enable-background="new 0 0 372 91" xml:space="preserve">
<defs>
</defs>
<polygon fill="#1295D3" points="166.125,0 199.169,90.787 202.657,90.787 169.613,0 "/>
<path fill="#1295D3" d="M369.207,25.708c-3.601-1.273-7.725-1.872-11.174-1.872c-9.447,0-16.795,4.946-16.795,14.245
	c0,16.27,22.493,13.048,22.493,24.745c0,6.146-5.996,8.546-10.27,8.546c-3.826,0-8.326-1.498-10.874-2.551l-0.751,6.976
	c3.45,1.124,7.051,2.172,10.724,2.172c10.497,0,19.12-4.423,19.12-15.596c0-17.244-22.493-14.918-22.493-24.968
	c0-5.473,4.945-6.974,9.146-6.974c3.897,0,6,0.676,9.821,2.174L369.207,25.708z M262.96,77.07h7.499V31.78h0.151l17.32,45.29h7.348
	l17.32-45.29h0.151v45.29h7.496V24.732h-12.372l-16.122,43.491l-16.419-43.491H262.96V77.07z M220.521,77.07h7.496V31.332h16.273
	v-6.6h-40.039v6.6h16.27V77.07z"/>
<path fill-rule="evenodd" clip-rule="evenodd" fill="#025290" d="M159.123,40.42c-1.077,0-2.076-0.216-3.028-0.626
	c-0.933-0.41-1.752-0.959-2.464-1.671c-0.703-0.702-1.264-1.522-1.668-2.464c-0.403-0.938-0.616-1.951-0.616-3.037
	c0-1.067,0.213-2.076,0.616-3.025c0.405-0.94,0.966-1.755,1.668-2.467c0.712-0.7,1.532-1.251,2.464-1.666
	c0.952-0.405,1.951-0.614,3.028-0.614c1.086,0,2.095,0.208,3.032,0.614c0.94,0.415,1.765,0.966,2.469,1.666
	c0.708,0.712,1.261,1.527,1.664,2.467c0.422,0.949,0.626,1.958,0.626,3.025c0,1.086-0.204,2.1-0.626,3.037
	c-0.402,0.942-0.956,1.762-1.664,2.464c-0.705,0.712-1.529,1.261-2.469,1.671C161.218,40.205,160.209,40.42,159.123,40.42
	 M159.123,38.908c0.834,0,1.594-0.163,2.301-0.47c0.712-0.304,1.335-0.746,1.865-1.306c0.532-0.549,0.956-1.22,1.251-1.99
	c0.319-0.767,0.475-1.604,0.475-2.52c0-0.892-0.156-1.736-0.475-2.503c-0.295-0.767-0.719-1.434-1.251-1.99
	c-0.53-0.556-1.153-1-1.865-1.311c-0.707-0.307-1.467-0.463-2.301-0.463c-0.817,0-1.583,0.156-2.294,0.463
	c-0.702,0.312-1.333,0.755-1.863,1.311c-0.532,0.556-0.947,1.223-1.253,1.99c-0.305,0.767-0.468,1.611-0.468,2.503
	c0,0.916,0.163,1.752,0.468,2.52c0.307,0.77,0.722,1.44,1.253,1.99c0.53,0.561,1.161,1.002,1.863,1.306
	C157.541,38.745,158.306,38.908,159.123,38.908 M156.136,28.189h3.27c1.064,0,1.877,0.204,2.428,0.592
	c0.544,0.4,0.83,1.062,0.83,1.994c0,0.763-0.204,1.333-0.599,1.702c-0.405,0.376-0.971,0.597-1.705,0.667l2.374,3.862h-1.688
	l-2.282-3.795h-0.992v3.795h-1.635V28.189z M157.771,31.97h1.44c0.25,0,0.475-0.021,0.69-0.05c0.216-0.026,0.415-0.079,0.578-0.17
	c0.165-0.091,0.285-0.216,0.398-0.389c0.098-0.172,0.151-0.405,0.151-0.719c0-0.254-0.053-0.462-0.163-0.618
	c-0.113-0.163-0.242-0.283-0.424-0.367c-0.168-0.084-0.357-0.151-0.575-0.168c-0.202-0.039-0.413-0.043-0.631-0.043h-1.464V31.97z"
	/>
<polygon fill-rule="evenodd" clip-rule="evenodd" fill="#025290" points="40.168,24.716 35.93,36.117 16.532,36.117 16.532,46.708 
	32.48,46.708 28,58.143 16.532,58.143 16.532,77.043 0,77.043 0,24.716 "/>
<polygon fill-rule="evenodd" clip-rule="evenodd" fill="#025290" points="45.236,24.716 45.205,77.043 61.523,77.043 61.523,24.716 
	"/>
<polygon fill-rule="evenodd" clip-rule="evenodd" fill="#025290" points="72.807,24.716 72.807,77.043 89.334,77.043 89.334,58.143 
	100.791,58.143 105.288,46.708 89.334,46.708 89.334,36.117 108.721,36.117 112.988,24.716 "/>
<path fill-rule="evenodd" clip-rule="evenodd" fill="#025290" d="M159.49,77.043h-16.249l-2.129-7.031h-18.404l-2.038,7.031h-15.774
	l18.804-52.328h16.956L159.49,77.043z M138.418,59.958l-6.509-21.798l-6.293,21.798H138.418z"/>
</svg>
