<?xml version="1.0" encoding="utf-8"?>
<!-- Generator: Adobe Illustrator 21.0.0, SVG Export Plug-In . SVG Version: 6.00 Build 0)  -->
<!DOCTYPE svg PUBLIC "-//W3C//DTD SVG 1.1//EN" "http://www.w3.org/Graphics/SVG/1.1/DTD/svg11.dtd">
<svg version="1.1" id="Ebene_1" xmlns="http://www.w3.org/2000/svg" xmlns:xlink="http://www.w3.org/1999/xlink" x="0px" y="0px"
	 width="883.7px" height="615.9px" viewBox="0 0 883.7 615.9" style="enable-background:new 0 0 883.7 615.9;" xml:space="preserve"
	>
<style type="text/css">
	.st0{fill:#124191;}
</style>
<title>Untitled</title>
<g transform="translate(-135 -140)">
	<path class="st0" d="M728.1,237.1c-11.5-13.1-11.8-28.3,0-40.4c11.5-11.5,26.3-11.8,40.4,0L728.1,237.1L728.1,237.1z M541.6,423.7
		c-11.5-13.1-11.8-28.6,0-40.4c11.5-11.5,26.3-11.8,40.8,0L541.6,423.7z M690.7,420.3l41.9-41.9l-45.3-45.1
		c-36.7-36.7-26-56.3-17.6-64.7c5.5-5.4,10.8-9.4,14.5-11.5c5,9.7,11.8,19.2,20.2,27.3c43.8,44.2,91.7,38.1,128.5,1.1
		c21.9-22,32.4-42.2,35.1-52.2L832,213.4c-4.4,9.4-14.5,25.7-26,37.2c-19.9,20.2-38.8,20.2-51.6,9.7l75.2-74.9l-9.4-9.4
		c-44.2-44.6-85.4-46.9-122.4-9.8c-24.6,24.6-28.1,55-17.2,82.6L653,216.2c-2.7,1-7.8,5-12.8,10.1c-14.5,14.9-17.9,37.7-14.2,52.9
		l-18.6-15.8L570.6,300l50.6,50.6c-40.1-33-76.3-31.4-109.6,2.1c-33.8,33.8-31.7,74.9-3.7,109.3l-4.7-4.7
		c-30.1-30.1-59-36.4-87.7-7.4c-16.8,16.5-19.6,32.7-17.8,47.2l-70.9-70.7l-41.1,41.1l137,137.3h83.7L448.6,547
		c-20.2-19.9-26.2-33.8-13.8-46.2c9.1-9.4,19.6-9.1,32.4,3.7l69.5,69.8l41.9-41.9l-52-51.9c41.2,34.1,86,25.7,120.1-8.7
		c17.8-17.5,27.7-33.8,32.4-44.8l-36.9-20.5c-5.4,9.4-13.4,21.2-22.2,30.4c-20.2,20.2-39.1,20.2-51.9,9.7l74.5-74.5L690.7,420.3
		L690.7,420.3z M344,680.5h8.5l16.9,34.8l16.7-34.8h8.5v57.3h-7.5v-44.5l-14.9,30.2h-6.6l-14.3-29.5v43.8H344L344,680.5L344,680.5z
		 M431.3,718.8c-0.1,0-0.4-0.1-1.1-0.2c-0.7-0.1-1.5-0.2-2.4-0.3c-1-0.1-2.1-0.1-3.2-0.2s-2.1-0.1-3.2-0.1c-1.7,0-3.2,0.2-4.5,0.7
		c-1.2,0.4-2.2,1-3,1.7c-0.8,0.8-1.3,1.6-1.6,2.6c-0.3,1-0.5,2.1-0.5,3.2c0,2.3,0.8,4,2.3,5.2c1.5,1.1,3.6,1.7,6.1,1.7
		c1.3,0,2.7-0.2,3.9-0.7c1.3-0.4,2.5-1.1,3.6-2c1.1-0.9,2-1.9,2.5-3.1c0.7-1.2,1-2.5,1-4L431.3,718.8L431.3,718.8z M431.9,737.8
		l-0.3-4.6c-1.2,1.7-3.1,3.2-5.5,4.2c-2.3,1-4.9,1.5-7.4,1.5c-1.6,0-3.3-0.2-4.9-0.7c-1.6-0.4-3.1-1.1-4.4-2.1s-2.4-2.3-3.2-3.9
		c-0.9-1.6-1.3-3.6-1.3-6c0-4.2,1.3-7.5,4-10.2c2.7-2.5,6.8-3.8,12.2-3.8c0.9,0,1.9,0,3,0.1c1.1,0.1,2.1,0.2,3.1,0.2
		c1,0.1,1.9,0.1,2.6,0.2c0.8,0.1,1.3,0.1,1.5,0.2v-2.4c0-3-0.9-5.1-2.6-6.4c-1.7-1.3-4.3-2-7.5-2c-3,0-5.5,0.3-7.4,1
		c-2.1,0.7-3.5,1.3-4.5,1.9l-2.2-5.2c0.7-0.4,1.3-0.8,2.1-1.1c0.9-0.4,2-0.9,3.2-1.3c1.3-0.4,2.7-0.8,4.4-1c1.6-0.2,3.5-0.4,5.6-0.4
		c4.9,0,8.9,1.2,11.7,3.6c2.8,2.4,4.4,5.9,4.4,10.6v27.7H431.9L431.9,737.8z M456.8,728.1c0.8,0.9,2.1,1.7,3.9,2.7
		c1.9,0.9,4.2,1.4,6.7,1.4c3.6,0,6.6-1.2,8.7-3.6s3.2-6.3,3.2-11.6c0-2.1-0.2-3.9-0.7-5.8c-0.4-1.7-1.1-3.3-2.1-4.6
		c-0.9-1.3-2.1-2.3-3.5-3c-1.4-0.8-3.1-1.1-4.9-1.1c-3.8,0-6.7,1.4-8.6,4.4s-2.8,7.1-2.8,12.6v8.5H456.8z M449.6,755.8v-58.7h6.7
		l0.3,5.4c0.3-0.7,0.9-1.3,1.6-2.1c0.7-0.8,1.6-1.4,2.6-2.1c1.1-0.7,2.4-1.2,3.6-1.5c1.3-0.4,3-0.7,4.7-0.7c3,0,5.6,0.5,7.9,1.6
		c2.2,1.1,4,2.6,5.6,4.5c1.5,1.9,2.5,4.2,3.3,6.7c0.7,2.5,1.1,5.2,1.1,8.2c0,4-0.5,7.4-1.6,10.2s-2.5,4.9-4.3,6.7s-3.8,3-6,3.7
		c-2.2,0.8-4.5,1.1-6.8,1.1c-2.7,0-5-0.3-6.9-1c-1.7-0.7-3.3-1.3-4.4-2v20.1L449.6,755.8L449.6,755.8z M495.8,729
		c1.3,0.7,3.3,1.5,5.7,2.4c2.4,0.9,5.2,1.3,8.5,1.3c1.7,0,3.3-0.1,4.5-0.4c1.2-0.3,2.1-0.8,2.7-1.2c0.7-0.5,1.2-1.1,1.4-1.9
		c0.3-0.7,0.4-1.4,0.4-2.2c0-1.4-0.5-2.7-1.6-3.7c-1.1-1-3.1-1.7-5.8-2.3l-4.9-1c-1.6-0.3-3.3-0.8-4.8-1.4c-1.5-0.5-2.7-1.4-3.8-2.3
		c-1.1-1-2-2.1-2.5-3.4c-0.7-1.3-1-2.8-1-4.7c0-3.7,1.4-6.7,4.4-8.9c2.8-2.2,6.8-3.4,11.6-3.4c3.2,0,6,0.4,8.5,1.1
		c2.5,0.8,4.5,1.6,6.1,2.5l-2.3,5.4c-0.4-0.2-1-0.5-1.9-0.9c-1-0.3-2-0.7-3-1c-1.2-0.3-2.4-0.5-3.6-0.8c-1.3-0.2-2.6-0.3-3.9-0.3
		c-3,0-5.2,0.5-6.7,1.5s-2.1,2.4-2.1,4.2c0,1.4,0.5,2.6,1.5,3.5c1,0.9,3.1,1.5,6,2.1l5,1c3.9,0.8,7,2.1,9.2,3.7
		c2.2,1.7,3.3,4.4,3.3,8.1c0,3.8-1.4,6.9-4.3,9.1c-2.8,2.3-6.9,3.4-12.2,3.4c-3.8,0-7.2-0.5-10.1-1.4c-2.8-1-5.1-2-6.8-3.1
		L495.8,729L495.8,729z M552.1,703.1V697h7.8v-4.7c0-2.4,0.3-4.7,0.9-6.8c0.7-2.1,1.5-3.8,2.7-5.2c1.3-1.4,2.8-2.6,4.9-3.5
		c2.1-0.9,4.4-1.3,7.2-1.3c1.9,0,3.5,0.1,4.8,0.3c1.3,0.2,2.2,0.4,2.6,0.5l-0.8,5.6c-0.2,0-1-0.1-2-0.2c-1.1-0.1-2.2-0.2-3.3-0.2
		c-3.1,0-5.5,0.9-7.2,2.5c-1.7,1.6-2.6,4.6-2.6,8.9v4h12.7v6.1h-12.7v34.6H560V703L552.1,703.1L552.1,703.1z M604.1,732.4
		c3.9,0,6.9-1.4,8.9-4.2c1.9-2.7,2.8-6.3,2.8-10.8c0-2.2-0.2-4.2-0.8-6c-0.5-1.9-1.2-3.4-2.2-4.7c-1-1.3-2.2-2.4-3.6-3.2
		c-1.5-0.8-3.2-1.1-5.1-1.1c-3.8,0-6.8,1.4-8.7,4.2s-3,6.4-3,10.8c0,4.5,1,8.2,2.8,10.9C597.2,731.1,600.2,732.4,604.1,732.4
		 M604.1,738.8c-3.1,0-5.7-0.5-8.1-1.5c-2.3-1-4.4-2.5-6-4.4c-1.6-1.9-2.8-4.2-3.7-6.8c-0.9-2.6-1.3-5.6-1.3-8.7s0.4-6,1.3-8.6
		c0.9-2.6,2.1-4.9,3.8-6.8c1.6-2,3.7-3.4,6-4.4c2.4-1.1,5-1.5,8-1.5s5.7,0.5,8.1,1.5c2.3,1,4.4,2.5,6,4.4s3,4.2,3.8,6.8
		c0.9,2.6,1.3,5.6,1.3,8.7c0,3.3-0.4,6.2-1.3,8.9c-0.9,2.6-2.1,4.9-3.7,6.8c-1.6,1.9-3.6,3.3-6,4.4
		C609.9,738.4,607.2,738.8,604.1,738.8 M656.7,703.2c-0.2-0.1-0.8-0.2-1.6-0.3c-0.8-0.1-1.6-0.1-2.4-0.1c-3.8,0-6.9,1.6-9.2,4.8
		c-2.3,3.2-3.4,7.7-3.4,13.2v17.1h-7.2v-40.8h6.7l0.3,6.9c0.4-1,1.1-1.9,1.9-2.7c0.9-0.9,1.7-1.7,2.8-2.4c1.1-0.7,2.3-1.2,3.7-1.6
		c1.4-0.4,3-0.7,4.6-0.7c0.8,0,1.6,0.1,2.6,0.2c1,0.1,1.6,0.2,1.7,0.3L656.7,703.2L656.7,703.2z M693,731.1h25v6.8h-32.5v-57.3h7.4
		V731.1L693,731.1z"/>
	<path class="st0" d="M726.4,697h7.2v40.8h-7.2V697z M734.7,683.8c0,1.4-0.4,2.6-1.2,3.6c-0.9,1-2,1.4-3.5,1.4
		c-1.5,0-2.6-0.4-3.5-1.4c-0.9-1-1.2-2.2-1.2-3.6s0.4-2.6,1.2-3.5c0.9-1,2-1.4,3.5-1.4c1.5,0,2.6,0.4,3.5,1.4
		C734.3,681.1,734.7,682.3,734.7,683.8L734.7,683.8z M741.6,703.1V697h7.8v-4.7c0-2.4,0.3-4.7,0.9-6.8c0.5-2.1,1.5-3.8,2.7-5.2
		c1.2-1.4,2.8-2.6,4.9-3.5c2-0.9,4.4-1.3,7.2-1.3c1.9,0,3.5,0.1,4.8,0.3s2.2,0.4,2.6,0.5l-0.8,5.6c-0.3,0-1-0.1-2-0.2
		c-1.1-0.1-2.2-0.2-3.3-0.2c-3.1,0-5.5,0.9-7.2,2.5c-1.7,1.6-2.5,4.6-2.5,8.9v4h12.6v6.1h-12.6v34.6h-7.2V703L741.6,703.1
		L741.6,703.1z M803.4,713.6c-0.2-3.6-1.2-6.4-2.7-8.5c-1.5-2-4-3.1-7.4-3.1c-3.5,0-6.1,1-7.8,3.1c-1.7,2.1-2.8,4.8-3.4,8.4h21.3
		V713.6z M808.3,735.9c-0.3,0.2-0.8,0.4-1.5,0.8c-0.8,0.3-1.7,0.7-2.8,1c-1.3,0.3-2.6,0.7-3.9,0.9c-1.5,0.2-3.2,0.3-5,0.3
		c-6.8,0-11.9-1.9-15.3-5.7c-3.4-3.8-5.1-9.1-5.1-15.8c0-3.2,0.4-6,1.2-8.6c0.8-2.6,2-4.9,3.6-6.8c1.5-1.9,3.5-3.3,5.8-4.4
		c2.3-1.1,5-1.5,8-1.5c2.7,0,5.2,0.4,7.4,1.3s4,2.2,5.6,3.9s2.7,4,3.5,6.9c0.9,2.8,1.2,6.1,1.2,10.1v1.3h-29c0.2,3.8,1.5,7,3.7,9.4
		c2.2,2.4,5.5,3.6,10.1,3.6c2.8,0,5.1-0.2,7-0.8c1.9-0.4,3.1-0.9,3.8-1.1L808.3,735.9L808.3,735.9z"/>
</g>
</svg>
