<?xml version="1.0" encoding="utf-8"?>
<!-- Generator: Adobe Illustrator 21.1.0, SVG Export Plug-In . SVG Version: 6.00 Build 0)  -->
<!DOCTYPE svg PUBLIC "-//W3C//DTD SVG 1.1//EN" "http://www.w3.org/Graphics/SVG/1.1/DTD/svg11.dtd">
<svg version="1.1" id="Layer_1" xmlns="http://www.w3.org/2000/svg" xmlns:xlink="http://www.w3.org/1999/xlink" x="0px" y="0px"
	 width="517.5px" height="186.7px" viewBox="0 0 517.5 186.7" style="enable-background:new 0 0 517.5 186.7;" xml:space="preserve"
	>
<style type="text/css">
	.st0{fill:#F15E42;}
	.st1{enable-background:new    ;}
	.st2{fill:#233235;}
</style>
<path class="st0" d="M93.4,0C41.8,0,0,41.8,0,93.3c0,51.6,41.8,93.4,93.4,93.4c51.5,0,93.3-41.8,93.3-93.4S144.9,0,93.4,0z
	 M103.7,141.4c-1.7-0.1-3.3-0.6-4.9-0.8c-4.1-0.6-8.4-0.6-12.5-0.2c-3.2,0.3-6.5,0.9-9.7,1.5c-6.3,1.1-12.5,2.3-18.8,3.6
	c-4.2,0.8-8.3,1.9-12.5,2c-3.6,0.1-7.2-0.5-10.7-1.7c-11-3.7-7.8-13.6-2.6-22.2c8-13.2,16.5-25.8,22.8-40.2
	c2.5-5.8,4.5-12.5,3.8-18.8c-1.7-15.3-14.5-8.7-21.9,1.3c-3.4,3.3-18.3,1.5-14.5-3.4c10.3-13,40.1-28.6,50.2-7.1
	c7.3,15.5,2.2,30.2-5.2,44.1c-5.6,10.5-11.7,21.4-16.3,29.9c-4.7,8.7-6.6,9.6,1.4,8.9c4.6-0.4,9.2-1.8,13.8-2.7
	c4.8-0.9,9.6-1.8,14.3-2.8c4.8-1,9.3-1.6,14.2-1.4c3,0.1,6.2,0.8,9,1.9c1.4,0.6,5.2,1.9,5,4.1C108.6,139.1,105.2,141.5,103.7,141.4z
	 M171.9,92.1c-2.2-0.1-4.5,0-6.6,0.1c-3.7,0.2-7.3,0.8-10.9,1.5c-1.6,0.3-3.3,0.7-4.9,1.1c-0.1,0.8-0.3,1.5-0.4,2.3
	c-1,6.2-3.7,22.6-5,28.8c-0.9,4.1-1.8,7-3.2,10.1c-0.9,2-2,4.4-3.4,5.7c-1.8,1.6-3.2,1.9-5.4,2.3c-2,0.4-4.2,0-5.1-1.1
	c-0.6-0.7-0.8-2-1-2.9c-0.2-1.2-0.2-2.5-0.2-3.7c-0.2-3.5,0.2-7.3,0.4-10.8c0.2-2.9,2-15.9,2.3-18.8c0.3-2.1,0.6-4.3,0.9-6.4
	c-9.1,2.6-18.3,5-27.7,5.9c-13.5,1.2-13.3-6.7-11.4-15.1c0.3-1.2,0.5-2.4,0.8-3.6c1.8-7.4,4-14.7,6.7-21.9c1.4-3.6,2.8-7.2,4.4-10.8
	c1.5-3.5,3.5-6.7,5.6-9.9c0.3-0.4,0.6-0.9,0.9-1.3c0.9-1.2,2-2.4,3.1-3.4c0.5-0.4,1.1-0.7,1.6-1c1.6-0.9,4.2-1,5.9-1
	c1.6,0.1,2.9,0.4,3.7,2.3c1,2.2,1,4.7,0.7,7c-1.5,10.4-3.5,13.4-10,30.3c-1.5,3.9-2.7,7.8-3.7,11.8c-0.3,1.3-1.2,4-0.5,5.3
	c1,1.7,3.4,1,5.1,0.8c4.3-0.5,8.3-1.9,12.5-2.8c1.2-0.3,2.4-0.5,3.6-0.8c0.1-0.6,0.2-1.1,0.3-1.7c2.5-12.6,4.5-23.7,8.5-35.9
	c0.6-1.7,2.5-5.8,3.9-8.3c1.2-2,3.4-4.2,4.9-4.7c1.9-0.6,5.5,0.4,6.2,1.6c2.3,4,3.1,11.8,1.7,18c-1.8,8-3.9,17.6-5.6,26.6
	c2-0.4,4-0.9,6-1.2c1.1-0.2,2.1-0.4,3.2-0.5c3.1-0.5,6.3-0.8,9.5-0.5c3,0.3,8.1,1.3,8.5,5C178.2,93,173.1,92.2,171.9,92.1z"/>
<g class="st1">
	<path class="st2" d="M257.3,140.4c-10.9,0-18.2-1.7-22-5.2c-3.8-3.4-5.7-9.9-5.7-19.2V82.5h-18.4V68h18.4V48.3l18.9-8.4V68h24.7
		v14.5h-24.7v34.4c0,3.2,0.8,5.5,2.4,6.9c1.7,1.5,4.4,2.1,7.8,2.1h14.5v14.5H257.3z"/>
	<path class="st2" d="M300.4,132.3c-6.4-6.5-9.6-15.8-9.6-27.9c0-12.1,3-21.1,9.2-28c6.1-6.8,14.5-10.3,25.3-10.3
		c10.1,0,18.7,3,24.8,9.5c6.1,6.5,8.8,15.7,8.8,26.8v7.7H310c0.1,5.7,1.7,9.9,5,12.7c3.3,2.8,8.3,4.2,14.8,4.2
		c4.3,0,8.6-0.6,12.9-1.9c3.9-1.2,8.3-3,13.2-5.9v17.3c-4.4,1.8-8.8,3.2-13.4,4.1c-4.6,1-9.5,1.4-14.1,1.4
		C315.8,142.1,306.8,138.8,300.4,132.3z M339.9,96c-0.1-5-1.4-8.8-3.8-11.3c-2.3-2.4-6-3.8-10.8-3.8c-4.4,0-7.9,1.3-10.5,3.9
		c-2.6,2.6-4.1,6.4-4.6,11.3L339.9,96z"/>
	<path class="st2" d="M385.9,132c-6.3-6.8-9.4-16.1-9.4-27.9c0-11.9,3.2-21.2,9.5-28c6.3-6.7,15-10.1,26-10.1
		c3.9,0,7.7,0.5,11.3,1.4c3.5,0.9,7.2,2.3,10.7,4.2v17.3c-2.8-2.4-6-4.3-9-5.5c-3-1.2-6.6-1.9-10.3-1.9c-6.4,0-11,2.1-14.1,5.9
		c-3.3,3.9-5,9.5-5,16.7c0,7.2,1.7,12.7,5,16.6c3.3,3.9,8,5.8,14.2,5.8c3.6,0,7-0.6,10.3-1.9c2.8-1,6-2.8,9-5.5v17.3
		c-3.4,2-6.6,3.2-10.3,4.1s-7.2,1.4-11.6,1.4C400.9,142.1,392.2,138.7,385.9,132z"/>
	<path class="st2" d="M459.5,39.9h18.8v38.9c1.4-4,3.7-7.1,6.8-9.3c3.2-2.2,7.2-3.3,11.7-3.3c6.8,0,11.9,2.3,15.4,6.8
		c3.5,4.6,5.2,11.3,5.2,20.3v46.9h-18.8v-44c0-5.2-0.7-8.9-2.2-11.2c-1.5-2.3-4-3.4-7.2-3.4c-3.5,0-6.3,1.5-8.2,4.5
		c-1.9,3-2.9,7.3-2.9,12.6v41.3h-18.8V39.9z"/>
</g>
</svg>
