<?xml version="1.0" encoding="utf-8"?>
<!-- Generator: Adobe Illustrator 21.1.0, SVG Export Plug-In . SVG Version: 6.00 Build 0)  -->
<!DOCTYPE svg PUBLIC "-//W3C//DTD SVG 1.1//EN" "http://www.w3.org/Graphics/SVG/1.1/DTD/svg11.dtd">
<svg version="1.1" id="Layer_1" xmlns="http://www.w3.org/2000/svg" xmlns:xlink="http://www.w3.org/1999/xlink" x="0px" y="0px"
	 width="345px" height="95px" viewBox="0 0 345 95" style="enable-background:new 0 0 345 95;" xml:space="preserve">
<g>
	<path d="M36.3,36.9L24.7,24.7v11.9h-3.1V17.8l0.5-0.1l11.4,12V18h3.2v18.8L36.3,36.9z"/>
	<path d="M44.8,36.6V18h11.3v2.9H48v4.9h7.4v2.8H48v5.1h8.1v2.9H44.8z"/>
	<path d="M63.7,36.6V18h3.2v18.5L63.7,36.6L63.7,36.6z"/>
	<path d="M89.7,26.8v8.1c-2,1.3-4.1,2-6.9,2c-5.3,0-9.8-3.8-9.8-9.6s4.6-9.6,9.8-9.6c2.7,0,4.7,0.8,6.6,1.9L88,22.1
		c-1.5-1-3.3-1.5-5-1.5c-4.2,0-6.6,3-6.6,6.7c0,3.9,2.9,6.8,6.6,6.8c1.6,0,2.7-0.3,3.7-0.9v-3.6h-4.3v-2.8
		C82.4,26.8,89.7,26.8,89.7,26.8z"/>
	<path d="M109,36.6v-8h-8.5v8h-3.2V18h3.2v7.7h8.5V18h3.2v18.5L109,36.6L109,36.6z"/>
	<path d="M125.3,36.7c-1.6,0-3.4-0.2-5-0.4V18.2c1.4-0.2,3.2-0.4,4.8-0.4c4.9,0,7.3,2.4,7.3,4.9c0,1.9-0.9,3.4-3.2,4.2
		c2.7,0.8,3.7,2.4,3.7,4.5C132.8,34.2,130.3,36.7,125.3,36.7z M125.6,20.6c-0.8,0-1.6,0.1-2.2,0.2v5.1c0.5,0.1,1.1,0.1,1.9,0.1
		c2.7,0,3.8-1.2,3.8-2.7C129,21.7,127.9,20.6,125.6,20.6z M125.3,28.2c-0.7,0-1.5,0-1.9,0.1v5.6c0.6,0.1,1.4,0.1,2.3,0.1
		c2.5,0,3.8-1.2,3.8-2.9C129.4,29.5,128,28.2,125.3,28.2z"/>
	<path d="M147.5,36.9c-5.4,0-9.3-4.1-9.3-9.6s4.1-9.6,9.5-9.6c5.4,0,9.3,4.1,9.3,9.6S152.9,36.9,147.5,36.9z M147.6,20.6
		c-3.5,0-6,2.9-6,6.8c0,3.8,2.5,6.8,6,6.8s6-2.9,6-6.8C153.6,23.4,151.2,20.6,147.6,20.6z"/>
	<path d="M170.6,36.9c-4.6,0-7.4-2.6-7.4-7.4V18h3.2v11.2c0,3.2,1.6,4.8,4.3,4.8s4.2-1.6,4.2-4.8V18h3.2v11.4
		C178.1,34.2,175.2,36.9,170.6,36.9z"/>
	<path d="M196,36.6l-4-6.7c-0.3,0-0.6,0-1,0c-0.6,0-1.2,0-1.8-0.1v6.7H186V18.2c1.5-0.2,3-0.3,4.9-0.3c5.3,0,7.6,2.6,7.6,5.8
		c0,2.4-1.3,4.4-3.6,5.4l4.9,7.5L196,36.6L196,36.6z M191.3,20.7c-0.8,0-1.5,0-2.1,0.2v6.3c0.6,0.1,1.2,0.1,1.8,0.1
		c2.8,0,4.1-1.3,4.1-3.4C195.1,22,193.7,20.7,191.3,20.7z"/>
	<path d="M217.7,36.6v-8h-8.6v8h-3.2V18h3.2v7.7h8.5V18h3.2v18.5L217.7,36.6L217.7,36.6L217.7,36.6z"/>
	<path d="M236.8,36.9c-5.4,0-9.3-4.1-9.3-9.6s4.1-9.6,9.5-9.6s9.3,4.1,9.3,9.6S242.2,36.9,236.8,36.9z M236.9,20.6
		c-3.5,0-6,2.9-6,6.8c0,3.8,2.5,6.8,6,6.8s6-2.9,6-6.8C242.9,23.4,240.4,20.6,236.9,20.6z"/>
	<path d="M261.4,36.9c-5.4,0-9.3-4.1-9.3-9.6s4.1-9.6,9.5-9.6s9.3,4.1,9.3,9.6C270.8,32.8,266.7,36.9,261.4,36.9z M261.5,20.6
		c-3.5,0-6,2.9-6,6.8c0,3.8,2.5,6.8,6,6.8s6-2.9,6-6.8C267.5,23.4,265,20.6,261.5,20.6z"/>
	<path d="M283.4,36.7c-2,0-3.5-0.1-5.3-0.3V18.2c1.8-0.2,3.3-0.3,5.2-0.3c7.3,0,11,4.2,11,9.2C294.2,32.3,290.8,36.7,283.4,36.7z
		 M283.6,20.7c-0.9,0-1.7,0.1-2.4,0.2v12.9c0.8,0.1,1.4,0.2,2.7,0.2c4.8,0,6.9-2.9,6.9-6.8C290.8,23.3,288.4,20.7,283.6,20.7z"/>
	<path d="M301.5,36.6V18h3.2v18.5L301.5,36.6L301.5,36.6z"/>
	<path d="M312.8,36.6V18h11.3v2.9H316v4.9h7.4v2.8H316v5.1h8.1v2.9H312.8z"/>
	<path d="M169.9,73.7c-2.1,0-4.2-0.8-5.8-1.8l1.1-2.8c1.5,1.1,3.2,1.7,4.8,1.7c1.9,0,2.8-1.1,2.8-2.4c0-1.3-0.6-2.1-3.5-3.3
		c-3.2-1.4-4.4-3-4.4-5.3c0-2.7,2.2-5.2,6.1-5.2c1.8,0,3.6,0.6,4.7,1.3l-1,2.8c-1-0.7-2.5-1.3-3.7-1.3c-1.9,0-2.9,1.1-2.9,2.3
		s0.9,2,3.2,3c3.7,1.6,4.7,3.1,4.7,5.5C176.1,71.1,173.8,73.7,169.9,73.7z"/>
	<path d="M191.2,73.7c-5.4,0-9.3-4.1-9.3-9.6s4.1-9.6,9.5-9.6s9.3,4.1,9.3,9.6C200.6,69.6,196.5,73.7,191.2,73.7z M191.3,57.4
		c-3.5,0-6,2.9-6,6.8c0,3.8,2.5,6.8,6,6.8s6-2.9,6-6.8C197.2,60.2,194.8,57.4,191.3,57.4z"/>
	<path d="M210.8,57.7v5.4h7.2v2.8h-7.2v7.4h-3.2V54.8h11.3v2.9H210.8z"/>
	<path d="M232.6,57.7v15.7h-3.2V57.7h-5.9v-2.9h14.9v2.9H232.6z"/>
	<path d="M261.5,73.7l-0.5,0.1l-5.8-12.9l-5.7,12.8l-0.5-0.1l-5.9-18.8h3.5l3.3,11.7l5.2-11.8h0.4l5.2,11.8l3.3-11.6h3.4L261.5,73.7
		z"/>
	<path d="M283.9,73.4l-1.8-4.2h-7.3l-1.8,4.2h-3.3l8.6-18.8h0.5l8.5,18.8C287.3,73.4,283.9,73.4,283.9,73.4z M278.5,60.4l-2.6,6.2
		h5.3L278.5,60.4z"/>
	<path d="M303.1,73.4l-4-6.7c-0.3,0-0.6,0-1,0c-0.6,0-1.2,0-1.8-0.1v6.7h-3.2V55c1.5-0.2,3-0.3,4.9-0.3c5.3,0,7.6,2.6,7.6,5.8
		c0,2.4-1.3,4.4-3.6,5.4l4.9,7.5H303.1z M298.4,57.5c-0.8,0-1.5,0-2.1,0.2V64c0.6,0.1,1.2,0.1,1.8,0.1c2.8,0,4.1-1.3,4.1-3.4
		C302.2,58.8,300.8,57.5,298.4,57.5z"/>
	<path d="M312.8,73.4V54.8h11.3v2.9H316v4.9h7.4v2.8H316v5.1h8.1v2.9H312.8z"/>
</g>
</svg>
