<?xml version="1.0" encoding="utf-8"?>
<!-- Generator: Adobe Illustrator 18.1.0, SVG Export Plug-In . SVG Version: 6.00 Build 0)  -->
<svg version="1.1" id="Layer_1" xmlns="http://www.w3.org/2000/svg" xmlns:xlink="http://www.w3.org/1999/xlink" x="0px" y="0px"
	 viewBox="-92 326.3 425.2 141.7" enable-background="new -92 326.3 425.2 141.7" xml:space="preserve" width="425.2" height="141.7">
<g>
	<path fill="none" d="M72.1,360.9c-4.3,6.5-6.8,14.4-6.8,22.7s2.5,16.2,6.8,22.7c4.3-6.5,6.8-14.3,6.8-22.7S76.4,367.4,72.1,360.9z"
		/>
	<path fill="none" d="M-31.1,439.5c-1.7,0-3.2,0.7-4.3,1.9c-1.1,1.2-1.8,2.8-1.8,4.6c0,1.8,0.7,3.4,1.8,4.6c1.1,1.2,2.6,1.9,4.3,1.9
		c1.6,0,3-0.7,4.1-1.9c1.1-1.1,1.8-2.8,1.8-4.6c0-1.8-0.7-3.4-1.8-4.6C-28.1,440.2-29.6,439.5-31.1,439.5z"/>
	<path fill="none" d="M74.6,357.4c5.2,7.4,8.3,16.4,8.3,26.2s-3.1,18.7-8.3,26.2c7.7,9.5,19.4,15.6,32.5,15.6c9,0,17.4-2.9,24.3-7.8
		v-67.9c-6.8-4.9-15.2-7.8-24.3-7.8C94,341.8,82.3,347.9,74.6,357.4z"/>
	<path fill="none" d="M-4.7,383.6c0,12.1,5.2,23.1,13.5,30.7v-61.4C0.6,360.5-4.7,371.5-4.7,383.6z"/>
	<path fill="none" d="M172.8,341.8h-26.3c-5.6,0-10.3,2.6-11,5.9c10.6,8.4,17.4,21.3,17.4,35.9c0,14.5-6.8,27.5-17.4,35.9
		c0.7,3.3,5.5,5.9,11,5.9h26.3"/>
	<path fill="none" d="M177.2,425.4c9,0,17.4-2.9,24.3-7.8v-67.9c-6.8-4.9-15.2-7.8-24.3-7.8"/>
	<path fill="none" d="M37.1,341.8c-9,0-17.4,2.9-24.3,7.8v67.9c6.8,4.9,15.2,7.8,24.3,7.8c13.1,0,24.9-6.1,32.5-15.6
		c-5.2-7.4-8.3-16.4-8.3-26.2s3.1-18.7,8.3-26.2C62,347.9,50.2,341.8,37.1,341.8z"/>
	<path fill="none" d="M148.9,383.6c0-12.1-5.2-23.1-13.5-30.7v61.4C143.7,406.7,148.9,395.7,148.9,383.6z"/>
	<path fill="none" d="M-13.3,440h-1.6v12.6h1.6c3.5,0,6.2-2.8,6.2-6.3C-7,442.8-9.8,440-13.3,440z"/>
	<path fill="none" d="M218.9,383.6c0-12.1-5.2-23.1-13.5-30.7v61.4C213.7,406.7,218.9,395.7,218.9,383.6z"/>
	<path fill="none" d="M236.2,341.8h-21.9c-4.5,0-8.3,2.6-8.9,5.9c10.6,8.4,17.4,21.4,17.4,35.9c0,14.5-6.8,27.5-17.4,35.9
		c0.6,3.3,4.3,5.9,8.9,5.9h21.9c4.5,0,8.3-2.6,8.9-5.9c-10.6-8.4-17.4-21.4-17.4-35.9c0-14.5,6.8-27.5,17.4-35.9
		C244.5,344.4,240.8,341.8,236.2,341.8z"/>
	<path fill="none" d="M-52.7,439.5c-1.7,0-3.2,0.7-4.3,1.9c-1.1,1.2-1.8,2.8-1.8,4.6c0,1.8,0.7,3.4,1.8,4.6c1.1,1.2,2.6,1.9,4.3,1.9
		c1.6,0,3-0.7,4.1-1.9c1.1-1.1,1.8-2.8,1.8-4.6c0-1.8-0.7-3.4-1.8-4.6C-49.6,440.2-51.1,439.5-52.7,439.5z"/>
	<path fill="none" d="M308.4,341.8h-35c-9,0-17.4,2.9-24.3,7.8v67.9c6.8,4.9,15.2,7.8,24.3,7.8h35c3.7,0,6.8-3,6.8-6.8v-13.1
		c0-3.7-3-6.8-6.8-6.8v-4c3.8,0,6.8-3,6.8-6.8v-8.8c0-4-3.6-6.8-6.8-6.8v-4c3.7,0,6.8-3,6.8-6.8v-13.1
		C315.2,344.9,312.2,341.8,308.4,341.8z"/>
	<path fill="none" d="M231.7,383.6c0,12.1,5.2,23.1,13.5,30.7v-61.4C236.9,360.5,231.7,371.5,231.7,383.6z"/>
	<path fill="none" d="M2.1,341.8h-17.5c-3.7,0-6.8,3-6.8,6.8c0,5.9-4.8,10.8-10.8,10.8s-10.8-4.8-10.8-10.8c0-3.7-3-6.8-6.8-6.8
		h-17.5c-3.7,0-6.8,3-6.8,6.8v70c0,3.7,3,6.8,6.8,6.8h17.5c3.7,0,6.8-3,6.8-6.8c0-5.9,4.8-10.8,10.8-10.8s10.8,4.8,10.8,10.8
		c0,3.7,3,6.8,6.8,6.8H2.1c3.4,0,6.2-2.6,6.7-5.9c-10.6-8.4-17.4-21.4-17.4-35.9c0-14.5,6.8-27.5,17.4-35.9
		C8.3,344.4,5.5,341.8,2.1,341.8z"/>
	<path fill="#2E3192" d="M8.8,352.9v61.4c1.3,1.2,2.6,2.2,4,3.2v-67.9C11.4,350.6,10.1,351.7,8.8,352.9z"/>
	<path fill="#2E3192" d="M2.1,425.4h-17.5c-3.7,0-6.8-3-6.8-6.8c0-5.9-4.8-10.8-10.8-10.8s-10.8,4.8-10.8,10.8c0,3.7-3,6.8-6.8,6.8
		h-17.5c-3.7,0-6.8-3-6.8-6.8v-70c0-3.7,3-6.8,6.8-6.8h17.5c3.7,0,6.8,3,6.8,6.8c0,5.9,4.8,10.8,10.8,10.8s10.8-4.8,10.8-10.8
		c0-3.7,3-6.8,6.8-6.8H2.1c3.4,0,6.2,2.6,6.7,5.9c1.1-0.9,2.3-1.7,3.5-2.5c-1.4-4.3-5.5-7.3-10.2-7.3h-17.5
		c-5.9,0-10.8,4.8-10.8,10.8c0,3.7-3,6.8-6.8,6.8s-6.8-3-6.8-6.8c0-5.9-4.8-10.8-10.8-10.8h-17.5c-5.9,0-10.8,4.8-10.8,10.8v70
		c0,5.9,4.8,10.8,10.8,10.8h17.5c5.9,0,10.8-4.8,10.8-10.8c0-3.7,3-6.8,6.8-6.8s6.8,3,6.8,6.8c0,5.9,4.8,10.8,10.8,10.8H2.1
		c4.7,0,8.8-3.1,10.2-7.3c-1.2-0.8-2.4-1.6-3.5-2.5C8.3,422.8,5.5,425.4,2.1,425.4z"/>
	<path fill="#009444" d="M37.1,425.4c-9,0-17.4-2.9-24.3-7.8c-1.4-1-2.7-2.1-4-3.2c-8.3-7.6-13.5-18.6-13.5-30.7s5.2-23.1,13.5-30.7
		c1.3-1.2,2.6-2.2,4-3.2c6.8-4.9,15.2-7.8,24.3-7.8c13.1,0,24.9,6.1,32.5,15.6c0.8-1.1,1.6-2.2,2.5-3.3c-8.4-10-21-16.3-35-16.3
		c-9.1,0-17.7,2.7-24.8,7.3c-1.2,0.8-2.4,1.6-3.5,2.5C-1.8,356.1-8.7,369-8.7,383.6s6.8,27.5,17.4,35.9c1.1,0.9,2.3,1.7,3.5,2.5
		c7.2,4.6,15.7,7.3,24.8,7.3c14,0,26.6-6.4,35-16.3c-0.9-1-1.7-2.1-2.5-3.3C62,419.3,50.2,425.4,37.1,425.4z"/>
	<path fill="#009444" d="M74.6,357.4c-0.9,1.1-1.7,2.3-2.5,3.4c4.3,6.5,6.8,14.4,6.8,22.7s-2.5,16.2-6.8,22.7
		c0.8,1.2,1.6,2.3,2.5,3.4c5.2-7.4,8.3-16.4,8.3-26.2S79.8,364.8,74.6,357.4z"/>
	<path fill="#FBB040" d="M131.4,417.6c-6.8,4.9-15.2,7.8-24.3,7.8c-13.1,0-24.9-6.1-32.5-15.6c-0.9-1.1-1.7-2.3-2.5-3.4
		c-4.3-6.5-6.8-14.3-6.8-22.7s2.5-16.2,6.8-22.7c0.8-1.2,1.6-2.3,2.5-3.4c7.7-9.5,19.4-15.6,32.5-15.6c9,0,17.4,2.9,24.3,7.8v-1
		c0-1.2,0.3-2.3,0.7-3.3c-7.2-4.7-15.8-7.4-25-7.4c-14,0-26.6,6.4-35,16.3c-0.9,1-1.7,2.1-2.5,3.3c-5.2,7.4-8.3,16.4-8.3,26.2
		s3.1,18.7,8.3,26.2c0.8,1.1,1.6,2.2,2.5,3.3c8.4,10,21,16.3,35,16.3c9.2,0,17.8-2.7,25-7.4c-0.5-1-0.7-2.2-0.7-3.3L131.4,417.6
		L131.4,417.6z"/>
	<path fill="#FBB040" d="M152.9,383.6c0-14.5-6.8-27.5-17.4-35.9c-0.1,0.3-0.1,0.6-0.1,0.9v4.3c8.3,7.6,13.5,18.6,13.5,30.7
		s-5.2,23.1-13.5,30.7v4.3c0,0.3,0,0.6,0.1,0.9C146.1,411.1,152.9,398.1,152.9,383.6z"/>
	<path fill="#F15A29" d="M146.5,341.8c-5.6,0-10.3,2.6-11,5.9c-0.1,0.3-0.1,0.6-0.1,0.9v4.3v61.4v4.3c0,0.3,0,0.6,0.1,0.9
		c0.7,3.3,5.5,5.9,11,5.9h30.6c9,0,17.4-2.9,24.3-7.8v1c0,1.2,0.2,2.3,0.7,3.4c-7.2,4.7-15.7,7.4-24.9,7.4h-30.6
		c-6.9,0-12.5-3.1-14.4-7.4c-0.5-1-0.7-2.2-0.7-3.3v-1v-67.9v-1c0-1.2,0.3-2.3,0.7-3.3c1.9-4.4,7.6-7.4,14.4-7.4h30.6
		c9.2,0,17.7,2.7,24.9,7.4c-0.4,1.1-0.7,2.2-0.7,3.4v1c-6.8-4.9-15.2-7.8-24.3-7.8L146.5,341.8L146.5,341.8z"/>
	<path fill="#F15A29" d="M222.9,383.6c0-14.5-6.8-27.5-17.4-35.9c0,0.3-0.1,0.6-0.1,0.9v4.3c8.3,7.6,13.5,18.6,13.5,30.7
		s-5.2,23.1-13.5,30.7v4.3c0,0.3,0,0.6,0.1,0.9C216.1,411.1,222.9,398.1,222.9,383.6z"/>
	<path fill="#603913" d="M245.2,352.9v61.4c1.3,1.2,2.6,2.2,4,3.2v-67.9C247.8,350.6,246.4,351.7,245.2,352.9z"/>
	<path fill="#603913" d="M236.2,425.4h-21.9c-4.5,0-8.3-2.6-8.9-5.9c0-0.3-0.1-0.6-0.1-0.9v-4.3v-61.4v-4.3c0-0.3,0-0.6,0.1-0.9
		c0.6-3.3,4.3-5.9,8.9-5.9h21.9c4.5,0,8.3,2.6,8.9,5.9c1.1-0.9,2.2-1.7,3.4-2.5c-1.7-4.3-6.6-7.4-12.3-7.4h-21.9
		c-5.7,0-10.6,3.1-12.3,7.4c-0.4,1.1-0.7,2.2-0.7,3.3v1v67.9v1c0,1.2,0.2,2.3,0.7,3.3c1.7,4.3,6.6,7.4,12.3,7.4h21.9
		c5.7,0,10.6-3.1,12.3-7.4c-1.2-0.8-2.3-1.6-3.4-2.5C244.5,422.8,240.8,425.4,236.2,425.4z"/>
	<path fill="#2E3192" d="M-67.6,437.1c-0.8,0-1.4,0.6-1.4,1.4v6.3h-6.8v-6.3c0-0.8-0.7-1.4-1.5-1.4c-0.8,0-1.4,0.6-1.4,1.4V454
		c0,0.8,0.6,1.4,1.4,1.4c0.8,0,1.5-0.6,1.5-1.4v-6.3h6.8v6.3c0,0.8,0.6,1.4,1.4,1.4c0.8,0,1.5-0.6,1.5-1.4v-15.5
		C-66.1,437.7-66.7,437.1-67.6,437.1z"/>
	<path fill="#2E3192" d="M-52.7,436.5c-2.5,0-4.8,1.1-6.4,2.8c-1.6,1.7-2.6,4-2.6,6.6c0,2.6,1,4.9,2.6,6.6c1.6,1.7,3.9,2.8,6.4,2.8
		c2.4,0,4.7-1.1,6.3-2.8c1.6-1.7,2.7-4,2.7-6.6c0-2.6-1-4.9-2.7-6.6C-47.9,437.6-50.3,436.5-52.7,436.5z M-48.5,450.6
		c-1.1,1.2-2.6,1.9-4.1,1.9c-1.7,0-3.2-0.7-4.3-1.9c-1.1-1.1-1.8-2.8-1.8-4.6c0-1.8,0.7-3.4,1.8-4.6c1.1-1.2,2.6-1.9,4.3-1.9
		c1.6,0,3,0.7,4.1,1.9c1.1,1.2,1.8,2.8,1.8,4.6C-46.7,447.8-47.4,449.4-48.5,450.6z"/>
	<path fill="#2E3192" d="M-31.1,436.5c-2.5,0-4.8,1.1-6.4,2.8c-1.6,1.7-2.6,4-2.6,6.6c0,2.6,1,4.9,2.6,6.6c1.6,1.7,3.9,2.8,6.4,2.8
		c2.4,0,4.7-1.1,6.3-2.8c1.6-1.7,2.7-4,2.7-6.6c0-2.6-1-4.9-2.7-6.6C-26.4,437.6-28.7,436.5-31.1,436.5z M-27,450.6
		c-1.1,1.2-2.6,1.9-4.1,1.9c-1.7,0-3.2-0.7-4.3-1.9c-1.1-1.1-1.8-2.8-1.8-4.6c0-1.8,0.7-3.4,1.8-4.6c1.1-1.2,2.6-1.9,4.3-1.9
		c1.6,0,3,0.7,4.1,1.9c1.1,1.2,1.8,2.8,1.8,4.6C-25.2,447.8-25.9,449.4-27,450.6z"/>
	<path fill="#2E3192" d="M-13.3,437.1h-3.1c-0.8,0-1.4,0.6-1.4,1.4V454c0,0.8,0.6,1.4,1.4,1.4h3.1c5.1,0,9.2-4.1,9.2-9.2
		C-4.1,441.2-8.2,437.1-13.3,437.1z M-13.3,452.5h-1.6V440h1.6c3.5,0,6.2,2.8,6.2,6.2C-7,449.7-9.8,452.5-13.3,452.5z"/>
	<path fill="#2E3192" d="M-0.7,451.7c-1.1,0-1.9,0.9-1.9,2c0,1.1,0.9,1.9,1.9,1.9c1.1,0,2-0.9,2-1.9C1.2,452.6,0.3,451.7-0.7,451.7z
		"/>
	<path fill="#2E3192" d="M5.6,437.1c-0.8,0-1.4,0.6-1.4,1.4V454c0,0.8,0.6,1.4,1.4,1.4c0.8,0,1.5-0.6,1.5-1.4v-15.5
		C7,437.7,6.4,437.1,5.6,437.1z"/>
	<path fill="#2E3192" d="M22,440c0.8,0,1.4-0.7,1.4-1.5s-0.7-1.4-1.4-1.4h-8.5c-0.1,0-0.1,0-0.1,0h0c-0.8,0-1.4,0.6-1.4,1.4V454
		c0,0.8,0.6,1.4,1.4,1.4l0,0c0,0,0,0,0.1,0H22c0.8,0,1.4-0.7,1.4-1.4c0-0.8-0.7-1.5-1.4-1.5h-7.1v-4.8H21c0.8,0,1.4-0.7,1.4-1.5
		c0-0.8-0.7-1.4-1.4-1.4h-6.1V440L22,440L22,440z"/>
	<path fill="#BE1E2D" d="M319.2,361.7v-13.1c0-5.9-4.8-10.8-10.8-10.8h-35c-9.2,0-17.7,2.7-24.9,7.4c-1.2,0.8-2.3,1.6-3.4,2.5
		c-10.6,8.4-17.4,21.4-17.4,35.9c0,14.5,6.8,27.5,17.4,35.9c1.1,0.9,2.2,1.7,3.4,2.5c7.2,4.7,15.7,7.4,24.9,7.4h35
		c5.9,0,10.8-4.8,10.8-10.8v-13.1c0-3.6-1.8-6.8-4.5-8.7c2.7-1.9,4.5-5.1,4.5-8.8v-8.8c0-3.8-1.9-6.8-4.6-8.7
		C317.4,368.6,319.2,365.3,319.2,361.7z M315.2,361.7c0,3.7-3,6.8-6.8,6.8v4c3.2,0,6.8,2.8,6.8,6.8v8.8c0,3.8-3,6.8-6.8,6.8v4
		c3.7,0,6.8,3,6.8,6.8v13.1c0,3.7-3,6.8-6.8,6.8h-35c-9,0-17.4-2.9-24.3-7.8c-1.4-1-2.7-2.1-4-3.2c-8.3-7.6-13.5-18.6-13.5-30.7
		s5.2-23.1,13.5-30.7c1.3-1.2,2.6-2.2,4-3.2c6.8-4.9,15.2-7.8,24.3-7.8h35c3.7,0,6.8,3,6.8,6.8V361.7z"/>
</g>
</svg>
