<?xml version="1.0" encoding="utf-8"?>
<!-- Generator: Adobe Illustrator 16.0.0, SVG Export Plug-In . SVG Version: 6.00 Build 0)  -->
<!DOCTYPE svg PUBLIC "-//W3C//DTD SVG 1.1//EN" "http://www.w3.org/Graphics/SVG/1.1/DTD/svg11.dtd">
<svg version="1.1" class="icon-base" xmlns="http://www.w3.org/2000/svg" xmlns:xlink="http://www.w3.org/1999/xlink" x="0px" y="0px"
	 width="546px" height="69px" viewBox="0 0 546 69" preserveAspectRatio="xMidYMid meet" xml:space="preserve">
<g>
	<g>
		<path fill="#5C9733" d="M37.163,37.728c-3.144-2.358-11.007-7.86-11.007-18.864C26.156,7.86,34.019,0,45.024,0
			c11.007,0,18.87,7.86,18.87,18.863c0,11.004-7.862,16.506-11.007,18.864c3.932-4.716,8.65-9.432,8.65-18.864
			c0-9.431-7.077-15.719-16.512-15.719c-9.434,0-16.51,6.288-16.51,15.719C28.515,28.295,33.232,33.011,37.163,37.728z"/>
		<path fill="#38601E" d="M36.498,40.871c2.238,1.572,10.886,1.572,17.175,0C49.743,44.801,35.591,45.588,36.498,40.871z"/>
		<path fill="#38601E" d="M37.163,44.801c2.238,1.572,9.436,1.572,15.724,0C48.957,48.731,36.256,49.518,37.163,44.801z"/>
		<path fill="#38601E" d="M37.949,48.731c2.238,1.571,7.862,1.571,14.151,0C48.169,52.661,37.042,53.447,37.949,48.731z"/>
		<path fill="#38601E" d="M44.035,37.559c3.919-0.887,3.938-5.36,1.553-10.129c-2.323-4.644-5.029-7.099-4.66-9.76
			c0.371-2.661,9.912-2.367,9.098,0.519c4.4-3.957-10.317-5.103-10.724-0.667c-0.285,3.097,2.848,5.915,5.177,10.278
			C46.802,32.15,47.399,35.896,44.035,37.559z"/>
		<path fill="#38601E" d="M53.739,64.484c33.698,9.256,45.154-2.181,29.141-14.781c-0.491,0.512-1.401,1.322-1.985,1.764
			c9.38,9.261,2.083,14.334-18.617,10.217C59.372,62.755,56.821,63.613,53.739,64.484z"/>
		<path fill="#38601E" d="M78.257,46.513c-4.231-2.593-9.633-5.164-16.25-7.549c6.126,3.145,10.973,6.128,14.601,8.859
			C77.152,47.47,77.765,46.977,78.257,46.513z"/>
		<path fill="#38601E" d="M22.29,27.541C-3.804,21.645,2.977,46.594,42.375,60.854c1.937-0.429,5.126-1.232,8.154-2.104
			c-1.941-0.569-3.958-1.198-6.05-1.892C14.562,46.963-3.301,25.322,22.29,27.541z"/>
		<path fill="#5C9733" d="M14.622,46.592c-0.504-0.383-1.17-0.955-1.643-1.398c-25.93,11.971-12.32,32.34,34.68,19.945
			c43.973-11.594,50.7-32.682,15.791-29.281c29.73,0.297,22.063,15.58-16.9,25.066C11.329,69.5-6.942,58.939,14.622,46.592z"/>
		<path fill="#5C9733" d="M20.518,43.629c2.737-1.225,5.873-2.451,9.427-3.666c-3.943,0.779-7.487,1.71-10.637,2.754
			C19.72,43.068,20.052,43.308,20.518,43.629z"/>
	</g>
	<g>
		<path fill="#5C9733" d="M97.911,67.969V1.326h12.493v66.643H97.911z"/>
		<path fill="#5C9733" d="M149.396,67.969V29.72c0-0.618-0.342-0.927-1.025-0.927h-16.788c-0.651,0-0.976,0.309-0.976,0.927v38.249
			h-12.493V28.793c0-1.918,1.122-3.545,3.367-4.879c2.179-1.138,4.522-1.708,7.027-1.708h22.985c1.236,0,2.472,0.155,3.708,0.463
			c1.236,0.31,2.351,0.749,3.343,1.317c0.992,0.57,1.797,1.261,2.416,2.074c0.618,0.813,0.927,1.724,0.927,2.732v39.176H149.396z"/>
		<path fill="#5C9733" d="M200.783,67.969V29.72c0-0.618-0.342-0.927-1.025-0.927h-16.788c-0.651,0-0.976,0.309-0.976,0.927v38.249
			h-12.493V28.793c0-1.918,1.123-3.545,3.367-4.879c2.179-1.138,4.522-1.708,7.027-1.708h22.985c1.236,0,2.472,0.155,3.708,0.463
			c1.236,0.31,2.351,0.749,3.343,1.317c0.992,0.57,1.797,1.261,2.416,2.074c0.618,0.813,0.927,1.724,0.927,2.732v39.176H200.783z"/>
		<path fill="#5C9733" d="M263.639,64.041c-0.618,0.83-1.423,1.537-2.416,2.123c-0.993,0.585-2.107,1.033-3.343,1.341
			c-1.237,0.31-2.473,0.464-3.709,0.464h-22.985c-2.603,0-4.945-0.602-7.027-1.805c-2.245-1.27-3.367-2.895-3.367-4.879V28.793
			c0-1.918,1.123-3.545,3.367-4.879c2.18-1.138,4.522-1.708,7.027-1.708h22.985c1.236,0,2.472,0.155,3.709,0.463
			c1.236,0.31,2.35,0.749,3.343,1.317c0.992,0.57,1.797,1.261,2.416,2.074c0.618,0.813,0.927,1.724,0.927,2.732v32.492
			C264.566,62.293,264.256,63.212,263.639,64.041z M252.073,29.72c0-0.618-0.341-0.927-1.025-0.927h-16.787
			c-0.651,0-0.976,0.309-0.976,0.927v30.735c0,0.554,0.325,0.83,0.976,0.83h16.787c0.684,0,1.025-0.276,1.025-0.83V29.72z"/>
		<path fill="#38601E" d="M282.378,67.969c-2.602,0-4.944-0.602-7.027-1.805c-2.245-1.27-3.367-2.895-3.367-4.879V8.01
			c0-1.918,1.122-3.545,3.367-4.878c2.083-1.203,4.426-1.805,7.027-1.805h41.676V8.01h-38.601c-0.65,0-0.977,0.277-0.977,0.83
			v51.616c0,0.554,0.326,0.83,0.977,0.83h26.108V32.208c0-1.659-1.041-2.488-3.124-2.488h-10.492v-6.732h26.108v44.981H282.378z"/>
		<path fill="#38601E" d="M340.842,67.969c-2.603,0-4.944-0.602-7.027-1.805c-2.245-1.27-3.367-2.895-3.367-4.879V41.282
			c0-1.919,1.122-3.545,3.367-4.879c2.181-1.138,4.522-1.708,7.027-1.708h20.887V29.72c0-0.618-0.342-0.927-1.025-0.927h-28.157
			v-6.586h31.281c1.235,0,2.473,0.155,3.709,0.463c1.235,0.31,2.35,0.749,3.344,1.317c0.991,0.57,1.796,1.261,2.414,2.074
			c0.619,0.813,0.928,1.724,0.928,2.732v39.176H340.842z M361.729,41.282h-17.812c-0.65,0-0.976,0.31-0.976,0.927v18.246
			c0,0.554,0.325,0.83,0.976,0.83h17.812V41.282z"/>
		<path fill="#38601E" d="M431.758,67.969V29.72c0-0.618-0.342-0.927-1.025-0.927H420.24c-0.649,0-0.976,0.309-0.976,0.927v38.249
			h-12.493V29.72c0-0.618-0.342-0.927-1.024-0.927h-10.492c-0.65,0-0.977,0.309-0.977,0.927v38.249h-12.493V28.793
			c0-1.918,1.123-3.545,3.367-4.879c2.181-1.138,4.523-1.708,7.027-1.708h41.677c1.302-0.032,2.57,0.106,3.806,0.415
			c1.236,0.309,2.335,0.756,3.295,1.341c0.959,0.585,1.739,1.293,2.343,2.122c0.602,0.83,0.918,1.732,0.951,2.708v39.176H431.758z"
			/>
		<path fill="#38601E" d="M494.613,44.429c-0.619,0.829-1.423,1.537-2.415,2.122c-0.993,0.586-2.108,1.041-3.344,1.366
			c-1.235,0.326-2.474,0.488-3.709,0.488h-20.887v12.05c0,0.554,0.326,0.83,0.977,0.83h28.108v6.684H462.16
			c-2.602,0-4.944-0.602-7.027-1.805c-2.244-1.27-3.367-2.895-3.367-4.879V28.793c0-1.918,1.123-3.545,3.367-4.879
			c2.181-1.138,4.523-1.708,7.027-1.708h22.985c1.235,0,2.474,0.155,3.709,0.463c1.235,0.31,2.351,0.749,3.344,1.317
			c0.992,0.57,1.796,1.261,2.415,2.074c0.618,0.813,0.927,1.724,0.927,2.732v12.879C495.54,42.682,495.231,43.6,494.613,44.429z
			 M483.047,29.72c0-0.618-0.341-0.927-1.024-0.927h-16.787c-0.65,0-0.977,0.309-0.977,0.927v11.952h17.764
			c0.684,0,1.024-0.259,1.024-0.779V29.72z"/>
		<path fill="#38601E" d="M545.073,64.041c-0.619,0.83-1.423,1.537-2.415,2.123c-0.993,0.585-2.108,1.033-3.344,1.341
			c-1.235,0.31-2.473,0.464-3.709,0.464h-33.38v-6.684h30.257c0.684,0,1.024-0.276,1.024-0.83v-11.27c0-0.52-0.341-0.78-1.024-0.78
			H512.62c-2.504,0-4.847-0.569-7.027-1.708c-2.244-1.268-3.367-2.942-3.367-5.025V28.793c0-1.918,1.123-3.545,3.367-4.879
			c2.181-1.138,4.523-1.708,7.027-1.708H546v6.586h-30.305c-0.65,0-0.977,0.309-0.977,0.927v11.173c0,0.521,0.326,0.779,0.977,0.779
			h19.91c1.236,0,2.474,0.164,3.709,0.488c1.235,0.326,2.351,0.781,3.344,1.366c0.992,0.585,1.796,1.293,2.415,2.122
			c0.619,0.83,0.927,1.748,0.927,2.757v12.88C546,62.293,545.692,63.212,545.073,64.041z"/>
	</g>
</g>
</svg>
