<?xml version="1.0" encoding="UTF-8" standalone="no"?>
<svg
   xmlns:dc="http://purl.org/dc/elements/1.1/"
   xmlns:cc="http://creativecommons.org/ns#"
   xmlns:rdf="http://www.w3.org/1999/02/22-rdf-syntax-ns#"
   xmlns:svg="http://www.w3.org/2000/svg"
   xmlns="http://www.w3.org/2000/svg"
   viewBox="0 0 197.78667 48"
   height="48"
   width="197.78667"
   xml:space="preserve"
   id="svg2"
   version="1.1"><metadata
     id="metadata8"><rdf:RDF><cc:Work
         rdf:about=""><dc:format>image/svg+xml</dc:format><dc:type
           rdf:resource="http://purl.org/dc/dcmitype/StillImage" /></cc:Work></rdf:RDF></metadata><defs
     id="defs6" /><g
     transform="matrix(1.3333333,0,0,-1.3333333,0,48)"
     id="g10"><g
       transform="scale(0.1)"
       id="g12"><path
         id="path14"
         style="fill:#231f20;fill-opacity:1;fill-rule:nonzero;stroke:none"
         d="m 1459.23,72.0117 h -4.18 v 8.4688 h 5.3 c 2.75,0 5.86,-0.4532 5.86,-4.0352 0,-4.1015 -3.14,-4.4336 -6.98,-4.4336 z m 4.16,-2.5195 c 4.23,0.5195 6.44,2.8516 6.44,6.7578 0,4.7656 -2.9,7.0781 -8.82,7.0781 h -9.55 V 58.2617 h 3.59 v 10.918 h 4.43 l 0.1,-0.1367 6.88,-10.7813 h 3.83 l -7.38,11.1641 0.48,0.0664" /><path
         id="path16"
         style="fill:#231f20;fill-opacity:1;fill-rule:nonzero;stroke:none"
         d="m 1459.65,50.1563 c -11.36,0 -20.27,8.9648 -20.27,20.6054 0,11.6328 8.91,20.6055 20.27,20.6055 11.35,0 20.23,-8.9727 20.23,-20.6055 0,-11.6406 -8.88,-20.6054 -20.23,-20.6054 z m 0,44.3164 c -13.32,0 -23.75,-10.4102 -23.75,-23.711 0,-13.3125 10.43,-23.7109 23.75,-23.7109 13.28,0 23.72,10.3984 23.72,23.7109 0,13.3008 -10.44,23.711 -23.72,23.711" /><path
         id="path18"
         style="fill:#231f20;fill-opacity:1;fill-rule:nonzero;stroke:none"
         d="M 0,306.758 H 55.5234 V 104.492 H 158.34 V 53.2422 H 0 V 306.758" /><path
         id="path20"
         style="fill:#231f20;fill-opacity:1;fill-rule:nonzero;stroke:none"
         d="m 209.563,310.52 c 17.085,0 30.96,-13.875 30.96,-30.969 0,-17.09 -13.875,-30.922 -30.96,-30.922 -17.079,0 -30.95,13.832 -30.95,30.922 0,17.094 13.871,30.969 30.95,30.969 m -26.692,-85.403 h 53.375 V 53.3203 H 182.871 V 225.117" /><path
         id="path22"
         style="fill:#231f20;fill-opacity:1;fill-rule:nonzero;stroke:none"
         d="m 459.371,306.758 h 53.332 V 155.254 l 60.465,69.941 h 65.406 l -69.988,-79.543 68.523,-92.4098 h -67.058 l -56.653,84.9338 h -0.695 V 53.2422 H 459.371 V 306.758" /><path
         id="path24"
         style="fill:#231f20;fill-opacity:1;fill-rule:nonzero;stroke:none"
         d="m 265.766,225.078 h 51.238 v -23.469 h 0.711 c 7.109,13.508 24.547,27.746 50.523,27.746 54.086,0 64.047,-35.585 64.047,-81.835 V 53.3203 H 378.91 v 83.5277 c 0,19.922 -0.363,45.531 -27.762,45.531 -27.75,0 -32.007,-21.695 -32.007,-44.109 V 53.3203 H 265.766 V 225.078" /><path
         id="path26"
         style="fill:#231f20;fill-opacity:1;fill-rule:nonzero;stroke:none"
         d="M 796.113,83.0664 C 779.004,61.3477 750.918,48.8867 723.164,48.8867 c -53.375,0 -96.074,35.586 -96.074,90.7543 0,55.129 42.699,90.718 96.074,90.718 49.832,0 81.113,-35.589 81.113,-90.718 V 122.922 H 680.465 c 4.238,-20.293 19.578,-33.4572 40.195,-33.4572 17.453,0 29.168,8.8868 38.07,20.9842 z M 750.918,159.18 c 0.336,17.8 -13.531,32.738 -32.766,32.738 -23.464,0 -36.261,-16.016 -37.687,-32.738 h 70.453" /><path
         id="path28"
         style="fill:#231f20;fill-opacity:1;fill-rule:nonzero;stroke:none"
         d="m 1007.3,53.3398 h -49.124 v 22.793 H 957.48 C 949.258,63.6602 928.645,49.082 904.453,49.082 c -51.262,0 -85.058,36.9922 -85.058,89.285 0,48.059 29.902,92.164 79.003,92.164 22.082,0 42.696,-6.027 54.805,-22.754 h 0.692 v 98.981 H 1007.3 Z M 915.469,183.574 c -26.668,0 -42.703,-17.804 -42.703,-43.761 0,-25.997 16.035,-43.7778 42.703,-43.7778 26.711,0 42.707,17.7808 42.707,43.7778 0,25.957 -15.996,43.761 -42.707,43.761" /><path
         id="path30"
         style="fill:#0977b6;fill-opacity:1;fill-rule:nonzero;stroke:none"
         d="m 1394.03,360 h -306.8 c -14.65,0 -26.56,-11.621 -26.56,-25.957 V 25.9766 C 1060.67,11.6406 1072.58,0 1087.23,0 h 306.8 c 14.69,0 26.63,11.6406 26.63,25.9766 V 334.043 c 0,14.336 -11.94,25.957 -26.63,25.957" /><path
         id="path32"
         style="fill:#ffffff;fill-opacity:1;fill-rule:nonzero;stroke:none"
         d="m 1140.75,310.441 c 17.08,0 30.95,-13.875 30.95,-30.964 0,-17.094 -13.87,-30.965 -30.95,-30.965 -17.15,0 -30.97,13.871 -30.97,30.965 0,17.089 13.82,30.964 30.97,30.964 m -26.73,-85.402 h 53.44 V 53.2422 h -53.44 V 225.039" /><path
         id="path34"
         style="fill:#ffffff;fill-opacity:1;fill-rule:nonzero;stroke:none"
         d="m 1200.96,225.039 h 51.18 v -23.484 h 0.73 c 7.12,13.504 24.55,27.746 50.53,27.746 54.05,0 64.04,-35.571 64.04,-81.84 V 53.2422 h -53.38 v 83.5428 c 0,19.926 -0.35,45.555 -27.75,45.555 -27.78,0 -32.02,-21.715 -32.02,-44.125 V 53.2422 h -53.33 V 225.039" /></g></g></svg>