<?xml version="1.0" encoding="utf-8"?>
<!-- Generator: Adobe Illustrator 21.1.0, SVG Export Plug-In . SVG Version: 6.00 Build 0)  -->
<!DOCTYPE svg PUBLIC "-//W3C//DTD SVG 1.1//EN" "http://www.w3.org/Graphics/SVG/1.1/DTD/svg11.dtd">
<svg version="1.1" id="Ebene_1" xmlns="http://www.w3.org/2000/svg" xmlns:xlink="http://www.w3.org/1999/xlink" x="0px" y="0px"
	 width="386px" height="203px" viewBox="0 0 386 203" style="enable-background:new 0 0 386 203;" xml:space="preserve">
<style type="text/css">
	.st0{fill:#0078D7;}
</style>
<g>
	<g>
		<path class="st0" d="M72.8,76.5h-8.3V28.7c0-3.8,0.2-8.4,0.7-13.9h-0.2c-0.8,3.2-1.5,5.5-2.1,6.9L38.4,76.5h-4.1L10,22.1
			c-0.7-1.6-1.4-4-2.1-7.3H7.7c0.3,2.9,0.4,7.5,0.4,14v47.8H0V5.2h11l21.9,49.8c1.7,3.8,2.8,6.7,3.3,8.6h0.3
			c1.4-3.9,2.6-6.8,3.4-8.8L62.3,5.2h10.5V76.5z"/>
		<path class="st0" d="M91.6,12.6c-1.5,0-2.7-0.5-3.7-1.5c-1-1-1.5-2.3-1.5-3.8c0-1.5,0.5-2.8,1.5-3.8c1-1,2.3-1.5,3.7-1.5
			c1.5,0,2.8,0.5,3.8,1.5c1,1,1.6,2.3,1.6,3.8c0,1.5-0.5,2.7-1.6,3.7C94.4,12.1,93.1,12.6,91.6,12.6z M95.6,76.5h-8.2v-51h8.2V76.5z
			"/>
		<path class="st0" d="M143.8,74.2c-3.9,2.4-8.6,3.5-13.9,3.5c-7.3,0-13.1-2.4-17.6-7.1c-4.5-4.7-6.7-10.9-6.7-18.4
			c0-8.4,2.4-15.1,7.2-20.2c4.8-5.1,11.2-7.6,19.3-7.6c4.5,0,8.4,0.8,11.8,2.5v8.4c-3.8-2.7-7.8-4-12.1-4c-5.2,0-9.5,1.9-12.8,5.6
			c-3.3,3.7-5,8.6-5,14.7c0,6,1.6,10.7,4.7,14.1c3.1,3.5,7.3,5.2,12.6,5.2c4.4,0,8.6-1.5,12.5-4.4V74.2z"/>
		<path class="st0" d="M180.8,33.8c-1.4-1.1-3.5-1.6-6.2-1.6c-3.5,0-6.4,1.6-8.7,4.9c-2.3,3.3-3.5,7.8-3.5,13.4v26h-8.2v-51h8.2
			v10.5h0.2c1.2-3.6,2.9-6.4,5.3-8.4c2.4-2,5.1-3,8-3c2.1,0,3.7,0.2,4.9,0.7V33.8z"/>
		<path class="st0" d="M206.6,77.7c-7.5,0-13.5-2.4-18-7.1c-4.5-4.8-6.7-11.1-6.7-18.9c0-8.6,2.3-15.2,7-20.1c4.7-4.8,11-7.2,19-7.2
			c7.6,0,13.5,2.3,17.8,7c4.3,4.7,6.4,11.2,6.4,19.5c0,8.1-2.3,14.6-6.9,19.5C220.5,75.3,214.3,77.7,206.6,77.7z M207.2,31.3
			c-5.2,0-9.4,1.8-12.4,5.3c-3.1,3.6-4.6,8.5-4.6,14.8c0,6,1.5,10.8,4.6,14.3c3.1,3.5,7.2,5.2,12.4,5.2c5.3,0,9.3-1.7,12.2-5.1
			c2.8-3.4,4.3-8.3,4.3-14.6c0-6.4-1.4-11.3-4.3-14.7C216.5,33,212.4,31.3,207.2,31.3z"/>
		<path class="st0" d="M238.4,74.7v-8.8c4.1,3.3,8.5,4.9,13.4,4.9c6.5,0,9.8-2.4,9.8-7.2c0-1.4-0.3-2.5-0.8-3.5
			c-0.6-0.9-1.3-1.8-2.3-2.5c-1-0.7-2.1-1.4-3.4-2c-1.3-0.6-2.7-1.2-4.2-1.8c-2.1-0.9-3.9-1.8-5.4-2.7c-1.6-0.9-2.9-1.9-3.9-3.1
			c-1-1.1-1.8-2.4-2.4-3.9c-0.5-1.5-0.8-3.2-0.8-5.1c0-2.4,0.5-4.5,1.5-6.3c1-1.8,2.3-3.4,4-4.6c1.7-1.2,3.6-2.2,5.7-2.8
			c2.1-0.6,4.3-0.9,6.6-0.9c4,0,7.6,0.8,10.8,2.3v8.3c-3.4-2.5-7.4-3.7-11.8-3.7c-1.4,0-2.7,0.2-3.8,0.5c-1.1,0.3-2.1,0.8-2.9,1.5
			c-0.8,0.6-1.4,1.4-1.9,2.3c-0.4,0.9-0.7,1.9-0.7,2.9c0,1.3,0.2,2.4,0.7,3.3c0.4,0.9,1.1,1.7,1.9,2.4c0.8,0.7,1.9,1.3,3.1,1.9
			c1.2,0.6,2.6,1.2,4.1,1.8c2.1,0.9,3.9,1.7,5.5,2.7c1.6,0.9,3,1.9,4.2,3.1c1.2,1.1,2,2.5,2.7,4c0.6,1.5,0.9,3.3,0.9,5.3
			c0,2.5-0.5,4.7-1.5,6.6c-1,1.9-2.4,3.4-4.1,4.6c-1.7,1.2-3.7,2.1-5.9,2.7c-2.2,0.6-4.5,0.9-7,0.9C246,77.7,241.9,76.7,238.4,74.7z
			"/>
		<path class="st0" d="M299.5,77.7c-7.5,0-13.5-2.4-18-7.1c-4.5-4.8-6.7-11.1-6.7-18.9c0-8.6,2.3-15.2,7-20.1c4.7-4.8,11-7.2,19-7.2
			c7.6,0,13.5,2.3,17.8,7c4.3,4.7,6.4,11.2,6.4,19.5c0,8.1-2.3,14.6-6.9,19.5C313.4,75.3,307.3,77.7,299.5,77.7z M300.1,31.3
			c-5.2,0-9.4,1.8-12.4,5.3c-3.1,3.6-4.6,8.5-4.6,14.8c0,6,1.5,10.8,4.6,14.3c3.1,3.5,7.2,5.2,12.4,5.2c5.3,0,9.3-1.7,12.2-5.1
			c2.8-3.4,4.3-8.3,4.3-14.6c0-6.4-1.4-11.3-4.3-14.7C309.5,33,305.4,31.3,300.1,31.3z"/>
		<path class="st0" d="M358.3,8.3c-1.6-0.9-3.4-1.3-5.4-1.3c-5.7,0-8.6,3.6-8.6,10.8v7.9h11.9v7h-11.9v44h-8.1v-44h-8.7v-7h8.7v-8.3
			c0-5.3,1.5-9.6,4.6-12.7c3.1-3.1,6.9-4.7,11.5-4.7c2.5,0,4.5,0.3,5.9,0.9V8.3z"/>
		<path class="st0" d="M386,76c-1.9,1.1-4.5,1.6-7.6,1.6c-8.9,0-13.4-5-13.4-14.9V32.5h-8.8v-7h8.8V13.1l8.2-2.6v15.1H386v7h-12.8
			v28.7c0,3.4,0.6,5.9,1.7,7.3c1.2,1.5,3.1,2.2,5.8,2.2c2.1,0,3.8-0.6,5.3-1.7V76z"/>
	</g>
	<g>
		<path class="st0" d="M37.8,179.1H0v-71.4h36.2v7.6H8.4V139h25.8v7.5H8.4v25h29.5V179.1z"/>
		<path class="st0" d="M91,179.1h-8.2v-8.7h-0.2c-3.8,6.6-9.6,9.9-17.5,9.9c-6.4,0-11.5-2.3-15.4-6.8c-3.8-4.6-5.7-10.8-5.7-18.6
			c0-8.4,2.1-15.2,6.4-20.3c4.2-5.1,9.9-7.6,17-7.6c7,0,12.1,2.8,15.3,8.3h0.2v-31.6H91V179.1z M82.8,156v-7.5
			c0-4.1-1.4-7.6-4.1-10.5c-2.7-2.9-6.2-4.3-10.4-4.3c-5,0-8.9,1.8-11.7,5.5c-2.9,3.6-4.3,8.7-4.3,15.1c0,5.9,1.4,10.5,4.1,13.9
			c2.7,3.4,6.4,5.1,11,5.1c4.5,0,8.2-1.6,11.1-4.9C81.4,165.2,82.8,161,82.8,156z"/>
		<path class="st0" d="M148,175c0,18.7-9,28.1-26.9,28.1c-6.3,0-11.8-1.2-16.5-3.6v-8.2c5.7,3.2,11.2,4.8,16.4,4.8
			c12.5,0,18.8-6.7,18.8-20v-5.6h-0.2c-3.9,6.5-9.7,9.8-17.5,9.8c-6.3,0-11.4-2.3-15.3-6.8c-3.9-4.5-5.8-10.6-5.8-18.2
			c0-8.7,2.1-15.5,6.2-20.7c4.2-5.1,9.9-7.7,17.1-7.7c6.9,0,12,2.8,15.3,8.3h0.2v-7.1h8.2V175z M139.8,156v-7.5
			c0-4-1.4-7.5-4.1-10.4c-2.7-2.9-6.1-4.3-10.2-4.3c-5,0-9,1.8-11.8,5.5c-2.9,3.7-4.3,8.8-4.3,15.4c0,5.7,1.4,10.2,4.1,13.6
			c2.7,3.4,6.4,5.1,10.9,5.1c4.6,0,8.3-1.6,11.2-4.9C138.4,165.3,139.8,161.1,139.8,156z"/>
		<path class="st0" d="M202.4,155.6h-36c0.1,5.7,1.7,10.1,4.6,13.1c2.9,3.1,6.9,4.6,12,4.6c5.7,0,11-1.9,15.8-5.7v7.7
			c-4.5,3.3-10.4,4.9-17.8,4.9c-7.2,0-12.9-2.3-17-6.9c-4.1-4.6-6.2-11.1-6.2-19.5c0-7.9,2.2-14.4,6.7-19.4c4.5-5,10.1-7.5,16.7-7.5
			c6.7,0,11.8,2.2,15.5,6.5c3.6,4.3,5.5,10.3,5.5,18V155.6z M194.1,148.7c0-4.7-1.2-8.4-3.4-11c-2.2-2.6-5.3-3.9-9.3-3.9
			c-3.8,0-7.1,1.4-9.8,4.1c-2.7,2.8-4.3,6.4-5,10.8H194.1z"/>
	</g>
</g>
</svg>
