<?xml version="1.0" encoding="utf-8"?>
<!-- Generator: Adobe Illustrator 21.1.0, SVG Export Plug-In . SVG Version: 6.00 Build 0)  -->
<!DOCTYPE svg PUBLIC "-//W3C//DTD SVG 1.1//EN" "http://www.w3.org/Graphics/SVG/1.1/DTD/svg11.dtd">
<svg version="1.1" id="Ebene_1" xmlns="http://www.w3.org/2000/svg" xmlns:xlink="http://www.w3.org/1999/xlink" x="0px" y="0px"
	 width="442.9px" height="136.7px" viewBox="0 0 442.9 136.7" style="enable-background:new 0 0 442.9 136.7;" xml:space="preserve"
	>
<style type="text/css">
	.st0{clip-path:url(#SVGID_2_);fill:#E3071D;}
	.st1{clip-path:url(#SVGID_2_);fill:#817E7F;}
</style>
<g>
	<defs>
		<rect id="SVGID_1_" width="442.9" height="136.7"/>
	</defs>
	<clipPath id="SVGID_2_">
		<use xlink:href="#SVGID_1_"  style="overflow:visible;"/>
	</clipPath>
	<path class="st0" d="M119,22.5c-1.1,6.1-5.2,11.1-10.7,13.6c-1.9,1.2-3.3,3.4-3.3,5.8v51c0,2.7,1.7,5,4,6.2
		c5.5,2.9,9.6,8.4,10.2,14.9c10.9-12.1,17.5-28.1,17.5-45.6C136.7,50.7,130,34.6,119,22.5"/>
	<path class="st0" d="M26.6,98.9L26.6,98.9c2.2-1,3.8-3.3,3.8-6V69.7c0-3.1-1.3-4.8-3.2-6c-0.2-0.1-0.3-0.2-0.5-0.2
		c0,0-0.1,0-0.1-0.1h0c-6-3.1-10.1-9.4-10.1-16.6c0-10.4,8.4-18.8,18.8-18.8c10.4,0,18.8,8.5,18.8,18.8c0,2.4-0.5,4.6-1.3,7h0
		c-0.5,1.9,0,4.8,1.6,6.5l33.7,34.3h0c3.5,3.6,7.4,2.2,7.4-1.8v-51c0-2.5-1.2-4.8-3.1-5.9c-0.2-0.1-0.2-0.2-0.4-0.2c0,0-0.1,0-0.1,0
		h0c-6-3.4-10.1-9.4-10.1-16.7c0-6.4,3.3-12.1,8.2-15.5C83.2,1.2,75.9,0,68.3,0C30.6,0,0,30.6,0,68.3C0,85.4,6.3,101,16.6,113
		C17.5,107,21.3,101.9,26.6,98.9"/>
	<path class="st0" d="M100.6,28.3c5.1,0,9.2-4.1,9.2-9.2c0-5.1-4.1-9.2-9.2-9.2c-5.1,0-9.2,4.1-9.2,9.2
		C91.4,24.1,95.5,28.3,100.6,28.3"/>
	<path class="st1" d="M91.4,115.8c0,5.1,4.1,9.2,9.2,9.2c5.1,0,9.2-4.1,9.2-9.2s-4.1-9.2-9.2-9.2C95.5,106.6,91.4,110.7,91.4,115.8"
		/>
	<path class="st0" d="M81.8,115.7c0-2.4,0.4-4.6,1.2-6.7l0,0c0.3-0.8,0.5-1.6,0.5-2.5c0-2-0.8-3.7-2.1-5l0,0L47.5,67
		c-3.2-3.1-7.6-2.6-7.6,2.7v23.2c0,2.7,1.6,5,3.8,6.2c6.1,3.1,10.2,9.4,10.2,16.7c0,7.1-4,13.3-9.8,16.5c7.5,2.8,15.7,4.4,24.2,4.4
		c8.3,0,16.3-1.5,23.7-4.2C86,129.3,81.8,123,81.8,115.7"/>
	<path class="st0" d="M35.2,106.6c-5.1,0-9.2,4.1-9.2,9.2s4.1,9.2,9.2,9.2s9.2-4.1,9.2-9.2S40.3,106.6,35.2,106.6"/>
	<path class="st1" d="M44.5,46.8c0-5.1-4.1-9.2-9.2-9.2c-5.1,0-9.2,4.1-9.2,9.2c0,5.1,4.1,9.2,9.2,9.2
		C40.3,56.1,44.5,51.9,44.5,46.8"/>
	<path class="st1" d="M174.8,87V65c0-9.1-3.3-13.6-9.8-13.6c-3.6,0-6.6,1.3-9,4c-2.3,2.7-3.5,6-3.5,9.9V87h-3.4V49.2h3.4V56h0.1
		c2.8-5.2,7.1-7.8,12.9-7.8c4.1,0,7.2,1.4,9.4,4.1c2.2,2.7,3.3,6.6,3.3,11.7v23H174.8z"/>
	<path class="st1" d="M190.4,68.2c0,5.2,1.2,9.3,3.6,12.2c2.4,2.9,5.7,4.4,9.9,4.4c4.2,0,8.4-1.6,12.4-4.7v3.6
		c-3.9,2.8-8.3,4.2-13.1,4.2c-4.9,0-8.8-1.7-11.8-5.2c-3-3.5-4.5-8.4-4.5-14.8c0-5.5,1.6-10.2,4.7-13.9c3.1-3.8,7.2-5.7,12.2-5.7
		c4.7,0,8.3,1.7,10.8,5c2.5,3.3,3.8,7.8,3.8,13.5v1.5H190.4z M214.9,65.1c-0.1-4.4-1.2-7.7-3.1-10.2c-1.9-2.4-4.6-3.6-8.1-3.6
		c-3.5,0-6.5,1.2-8.8,3.6c-2.3,2.4-3.8,5.8-4.3,10.2H214.9z"/>
	<path class="st1" d="M250.4,87v-7.6h-0.1c-1.2,2.6-3,4.6-5.3,6.2c-2.3,1.5-4.9,2.3-7.7,2.3c-3.6,0-6.4-1-8.5-3
		c-2.1-2-3.1-4.6-3.1-7.6c0-6.6,4.4-10.6,13.1-12l11.6-1.7c0-8.1-3.1-12.2-9.2-12.2c-4.2,0-8.2,1.7-12.2,5v-4.1
		c1.4-1.1,3.3-2.1,5.7-2.8c2.4-0.8,4.7-1.2,6.8-1.2c3.9,0,6.9,1.2,9,3.6c2.1,2.4,3.2,5.9,3.2,10.5V87H250.4z M240,68.2
		c-4,0.6-6.8,1.5-8.4,2.8c-1.6,1.3-2.4,3.3-2.4,6.2c0,2.2,0.7,4.1,2.2,5.5c1.5,1.5,3.6,2.2,6.2,2.2c3.6,0,6.7-1.3,9.1-4
		c2.4-2.7,3.6-6.2,3.6-10.4v-3.7L240,68.2z"/>
	<path class="st1" d="M283,52.7c-1.1-0.8-2.5-1.2-4-1.2c-3,0-5.5,1.5-7.5,4.6c-2,3.1-3,7.5-3,13.1V87h-3.3V49.2h3.3v8.4h0.1
		c0.9-2.9,2.2-5.1,4.1-6.7c1.9-1.6,4-2.4,6.5-2.4c1.4,0,2.7,0.2,3.8,0.7V52.7z"/>
	<polygon class="st0" points="294.6,37.4 294.6,59 314.2,59 314.2,62.3 294.6,62.3 294.6,87 290.9,87 290.9,34 315.7,34 315.7,37.4 
			"/>
	<path class="st0" d="M340.5,87.9c-5.5,0-9.9-1.8-13.1-5.4c-3.2-3.6-4.8-8.4-4.8-14.2c0-6.3,1.7-11.2,5-14.7
		c3.4-3.5,7.8-5.3,13.3-5.3c5.4,0,9.7,1.8,12.8,5.3c3.1,3.5,4.7,8.4,4.7,14.6c0,5.9-1.6,10.7-4.8,14.3
		C350.4,86.1,346.1,87.9,340.5,87.9 M340.8,51.4c-4.5,0-8,1.5-10.7,4.5c-2.6,3-4,7.2-4,12.5c0,5,1.3,8.9,3.9,11.9s6.1,4.5,10.6,4.5
		c4.6,0,8.1-1.5,10.5-4.4c2.5-3,3.7-7.1,3.7-12.3c0-5.4-1.2-9.5-3.7-12.4C348.7,52.8,345.3,51.4,340.8,51.4"/>
	<path class="st0" d="M385.7,52.7c-1.1-0.8-2.5-1.2-4-1.2c-3,0-5.5,1.5-7.5,4.6c-2,3.1-3,7.5-3,13.1V87h-3.3V49.2h3.3v8.4h0.1
		c0.9-2.9,2.2-5.1,4.1-6.7c1.9-1.6,4-2.4,6.5-2.4c1.4,0,2.7,0.2,3.8,0.7V52.7z"/>
	<path class="st0" d="M439.5,87V64.2c0-4.8-0.7-8.1-2.2-10c-1.5-1.9-3.9-2.9-7.1-2.9c-3,0-5.6,1.3-7.7,3.8c-2.2,2.6-3.2,5.8-3.2,9.6
		V87h-3.4V64c0-8.4-3.2-12.6-9.6-12.6c-3.1,0-5.6,1.3-7.7,3.9c-2,2.6-3.1,5.9-3.1,10V87H392V49.2h3.4v6.3h0.1
		c2.6-4.8,6.5-7.2,11.6-7.2c2.8,0,5.1,0.8,7.1,2.4c2,1.6,3.3,3.7,4,6.3c1.2-2.7,2.9-4.9,5.1-6.4c2.2-1.5,4.6-2.3,7.2-2.3
		c8.3,0,12.4,5.1,12.4,15.4V87H439.5z"/>
</g>
</svg>
