<?xml version="1.0" standalone="no"?>
<!DOCTYPE svg PUBLIC "-//W3C//DTD SVG 20010904//EN"
 "http://www.w3.org/TR/2001/REC-SVG-20010904/DTD/svg10.dtd">
<svg version="1.0" xmlns="http://www.w3.org/2000/svg"
 width="596.000000pt" height="213.000000pt" viewBox="0 0 596.000000 213.000000"
 preserveAspectRatio="xMidYMid meet">
<metadata>
Created by potrace 1.14, written by Peter Selinger 2001-2017
</metadata>
<g transform="translate(0.000000,213.000000) scale(0.100000,-0.100000)"
fill="#000000" stroke="none">
<path d="M3200 2119 c-69 -14 -146 -56 -204 -113 -205 -201 -147 -547 113
-670 60 -28 75 -31 166 -31 82 0 112 4 164 24 86 33 170 111 213 199 32 64 33
72 33 182 0 110 -1 118 -33 182 -41 84 -103 148 -178 186 -95 48 -177 60 -274
41z"/>
<path d="M873 2093 c-56 -2 -93 -8 -93 -14 0 -6 106 -474 235 -1040 129 -567
235 -1032 235 -1035 0 -2 178 -4 395 -4 347 0 395 2 395 15 0 9 -90 415 -201
903 -126 560 -209 908 -225 943 -47 104 -150 181 -285 214 -67 16 -292 25
-456 18z"/>
<path d="M0 1045 l0 -1045 370 0 370 0 -2 1043 -3 1042 -367 3 -368 2 0 -1045z"/>
<path d="M2090 1045 l0 -1045 365 0 365 0 0 1045 0 1045 -365 0 -365 0 0
-1045z"/>
<path d="M3747 2083 c-4 -3 -7 -474 -7 -1045 l0 -1038 365 0 365 0 0 1045 0
1045 -358 0 c-197 0 -362 -3 -365 -7z"/>
<path d="M5100 1988 c-35 -57 -102 -166 -150 -243 -48 -77 -95 -156 -105 -175
-10 -19 -60 -101 -112 -183 -116 -181 -168 -288 -168 -342 0 -51 49 -154 150
-316 43 -68 128 -205 188 -304 61 -99 129 -211 153 -250 24 -38 57 -94 74
-122 l31 -53 401 0 c220 0 398 4 396 9 -1 4 -136 225 -297 491 -281 460 -295
486 -299 539 -3 49 0 62 25 101 16 25 76 122 133 215 56 94 139 229 183 300
136 220 249 408 254 422 4 11 -65 13 -395 13 l-400 0 -62 -102z"/>
</g>
</svg>
