<?xml version="1.0" encoding="utf-8"?>
<!-- Generator: Adobe Illustrator 21.0.0, SVG Export Plug-In . SVG Version: 6.00 Build 0)  -->
<!DOCTYPE svg PUBLIC "-//W3C//DTD SVG 1.1//EN" "http://www.w3.org/Graphics/SVG/1.1/DTD/svg11.dtd">
<svg version="1.1" id="Ebene_1" xmlns="http://www.w3.org/2000/svg" xmlns:xlink="http://www.w3.org/1999/xlink" x="0px" y="0px"
	 width="594px" height="414px" viewBox="0 0 594 414" style="enable-background:new 0 0 594 414;" xml:space="preserve">
<style type="text/css">
	.st0{fill:#3F51B5;}
	.st1{fill:#536DFE;}
	.st2{opacity:0.2;fill:#FFFFFF;enable-background:new    ;}
	.st3{opacity:0.25;fill:#3E2723;enable-background:new    ;}
	.st4{fill:#7986CB;}
	.st5{fill:#FF4081;}
	.st6{clip-path:url(#SVGID_2_);}
	.st7{clip-path:url(#SVGID_4_);}
	.st8{clip-path:url(#SVGID_6_);}
	.st9{fill:#3B78E7;}
	.st10{clip-path:url(#SVGID_8_);}
	.st11{opacity:0.5;enable-background:new    ;}
	.st12{opacity:0.3;enable-background:new    ;}
	.st13{opacity:0.1;enable-background:new    ;}
	.st14{opacity:0.1;fill:#FFFFFF;enable-background:new    ;}
	.st15{opacity:0.2;enable-background:new    ;}
	.st16{opacity:0.4;enable-background:new    ;}
	.st17{fill:url(#SVGID_9_);}
</style>
<g>
	<path class="st0" d="M445.6,30.9l49.5,88l-49.5,88L396,119"/>
	<path class="st1" d="M247.5,30.9h-99L49.4,207l49.5,88"/>
	<path class="st0" d="M148.4,207l49.5,88l-49.5,88l-49.5-88"/>
	<path class="st2" d="M444.7,32.5l49.7,87.7l0.7-1.2l-49.5-88"/>
	<path class="st3" d="M396,119l49.5,88l0.8-1.3l-49.4-88.2"/>
	<path class="st4" d="M495.1,119l49.5,88l-99,176.1h-99"/>
	<path class="st5" d="M445.6,30.9h-99L148.4,383.1h99"/>
	<path class="st3" d="M247.5,383.1h-99l2.2-1.4h96.3L443.4,32.3l1.1-0.7l1.1-0.7 M98.9,295l-49.5-88h1.4l48.3,85.3l146.2-260
		l1.1-0.7l1.1-0.7"/>
	<path class="st2" d="M346.5,30.9h99l-2.1,1.4h-96.3L150.6,381.7l-2.2,1.4 M148.4,30.9h99l-2.1,1.4H149L50.8,207h-1.4"/>
	<path class="st3" d="M445.6,383.1h-99l2.2-1.4H445L543.2,207h1.4"/>
	<path class="st2" d="M495.1,119l49.5,88h-1.4l-48.3-85.3l-146.2,260l-1.1,0.7l-1.1,0.7 M147.6,208.5l49.7,87.7l0.7-1.2l-49.5-88"/>
	<path class="st3" d="M98.9,295l49.5,88l0.7-1.2l-49.4-88.3"/>
	<g>
		<defs>
			<polygon id="SVGID_1_" points="445.6,30.9 495.1,119 445.6,207 396,119 			"/>
		</defs>
		<clipPath id="SVGID_2_">
			<use xlink:href="#SVGID_1_"  style="overflow:visible;"/>
		</clipPath>
		<g class="st6">
			
				<image style="overflow:visible;opacity:0.2;enable-background:new    ;" width="122" height="142" xlink:href="B4E205735A5E9CD3.png"  transform="matrix(2.7285 0 0 2.7317 131.5768 19.9257)">
			</image>
			<path class="st5" d="M445.6,30.9h-99L148.4,383.1h99"/>
		</g>
	</g>
	<g>
		<defs>
			<polygon id="SVGID_3_" points="445.6,30.9 495.1,119 445.6,207 396,119 			"/>
		</defs>
		<clipPath id="SVGID_4_">
			<use xlink:href="#SVGID_3_"  style="overflow:visible;"/>
		</clipPath>
		<g class="st7">
			
				<image style="overflow:visible;opacity:0.2;enable-background:new    ;" width="86" height="110" xlink:href="B4E205735A5E9CD1.png"  transform="matrix(2.7191 0 0 2.7261 329.6555 107.9606)">
			</image>
			<path class="st4" d="M495.1,119l49.5,88l-99,176.1h-99"/>
		</g>
	</g>
	<g>
		<defs>
			<polygon id="SVGID_5_" points="148.4,207 198,295 148.4,383.1 98.9,295 			"/>
		</defs>
		<clipPath id="SVGID_6_">
			<use xlink:href="#SVGID_5_"  style="overflow:visible;"/>
		</clipPath>
		<g class="st8">
			
				<image style="overflow:visible;opacity:0.2;enable-background:new    ;" width="86" height="110" xlink:href="B4E205735A5E9CD7.png"  transform="matrix(2.7191 0 0 2.7261 38.0396 19.9257)">
			</image>
			<path class="st9" d="M247.5,30.9h-99L49.4,207l49.5,88"/>
		</g>
	</g>
	<g>
		<defs>
			<polygon id="SVGID_7_" points="148.4,207 198,295 148.4,383.1 98.9,295 			"/>
		</defs>
		<clipPath id="SVGID_8_">
			<use xlink:href="#SVGID_7_"  style="overflow:visible;"/>
		</clipPath>
		<g class="st10">
			
				<image style="overflow:visible;opacity:0.2;enable-background:new    ;" width="122" height="142" xlink:href="B4E205735A5E9CD0.png"  transform="matrix(2.7285 0 0 2.7317 131.5768 19.9257)">
			</image>
			<path class="st5" d="M445.6,30.9h-99L148.4,383.1h99"/>
		</g>
	</g>
	<path class="st11" d="M148.4,383.1l49.5-88l49.5,88"/>
	<path class="st12" d="M346.5,383.1l49.5-88l49.5,88 M198,295l49.5-88l49.5,88"/>
	<path class="st13" d="M49.4,207l49.5-88l49.5,88"/>
	<path class="st14" d="M98.9,119l49.5-88l49.5,88"/>
	<path class="st13" d="M396,295l49.5-88l49.5,88 M247.5,207l49.5-88l49.5,88"/>
	<path class="st14" d="M445.6,207l49.5-88l49.5,88 M297,119l49.5-88l49.5,88"/>
	<path class="st15" d="M396,119l49.5-88l49.5,88"/>
	<path class="st2" d="M445.6,30.9L396,119l-49.5-88"/>
	<path class="st15" d="M346.5,207L297,295l-49.5-88 M148.4,207l-49.5,88l-49.5-88"/>
	<path class="st2" d="M247.5,30.9L198,119l-49.5-88"/>
	<path class="st16" d="M297,295l-49.5,88L198,295"/>
	<path class="st15" d="M495.1,295l-49.5,88L396,295 M198,295l-49.5,88l-49.5-88"/>
	
		<radialGradient id="SVGID_9_" cx="217.2651" cy="157.4028" r="438.8104" gradientTransform="matrix(1 0 0 -1 0 191.89)" gradientUnits="userSpaceOnUse">
		<stop  offset="0" style="stop-color:#FFFFFF;stop-opacity:0.1"/>
		<stop  offset="1" style="stop-color:#FFFFFF;stop-opacity:0"/>
	</radialGradient>
	<path class="st17" d="M247.5,30.9h-99L49.4,207l99,176.1h99L396,119l49.5,88l-99,176.1h99l99-176.1l-99-176.1h-99L198,295l-49.5-88
		"/>
</g>
</svg>
