<?xml version="1.0" encoding="utf-8"?>
<!-- Generator: Adobe Illustrator 21.1.0, SVG Export Plug-In . SVG Version: 6.00 Build 0)  -->
<!DOCTYPE svg PUBLIC "-//W3C//DTD SVG 1.1//EN" "http://www.w3.org/Graphics/SVG/1.1/DTD/svg11.dtd">
<svg version="1.1" id="Ebene_1" xmlns="http://www.w3.org/2000/svg" xmlns:xlink="http://www.w3.org/1999/xlink" x="0px" y="0px"
	 width="170.1px" height="56.7px" viewBox="0 0 170.1 56.7" style="enable-background:new 0 0 170.1 56.7;" xml:space="preserve">
<style type="text/css">
	.st0{fill:#333333;}
</style>
<title>Project A_Logo-Frame_B-W_rgb</title>
<path class="st0" d="M30.6,31.4h2.1c2.2,0,4-0.2,5.6-1.7c1.3-1.3,2-3.1,2-5c0-2-0.8-3.8-2.3-5.1c-1.6-1.3-4-1.4-5.9-1.4h-6.3v19.2
	h4.7V31.4z M30.6,22.5h1.8c1.6,0,3.2,0.3,3.2,2.3s-1.5,2.3-3.1,2.3h-2V22.5z"/>
<path class="st0" d="M47,29.5c0-2.2,1.5-2.6,3.4-2.7v-4.3c-1.5-0.2-2.9,0.6-3.6,2h-0.1V23h-4.1v14.4H47L47,29.5z"/>
<path class="st0" d="M59.3,37.9c4.2-0.1,7.6-3.5,7.6-7.8s-3.5-7.6-7.8-7.6c-4.2,0.1-7.6,3.5-7.6,7.7c-0.1,4.2,3.2,7.6,7.4,7.7
	C59.1,37.9,59.2,37.9,59.3,37.9z M59.3,26.6c2-0.1,3.7,1.4,3.8,3.5c0.1,2-1.4,3.7-3.5,3.8c-2,0.1-3.7-1.4-3.8-3.5c0-0.1,0-0.1,0-0.2
	C55.8,28.3,57.3,26.6,59.3,26.6C59.3,26.6,59.3,26.6,59.3,26.6z"/>
<path class="st0" d="M73.8,37.1V23h-4.3v14.3c0,1.1-0.1,2.2-1.5,2.2h-0.6v3.3h1.1C72.7,42.7,73.8,41.1,73.8,37.1z"/>
<rect x="69.4" y="18.2" class="st0" width="4.3" height="3.3"/>
<path class="st0" d="M83.7,37.9c3.1-0.1,5.9-2.1,7-5h-4.4c-0.6,0.9-1.5,1.4-2.6,1.4c-1.7,0.1-3.1-1.1-3.4-2.7h10.8
	c0.1-0.4,0.1-0.8,0.1-1.1c0-4.2-3.3-7.6-7.5-7.7c-4.2,0-7.6,3.3-7.7,7.5c0,4.2,3.3,7.6,7.5,7.7C83.6,37.9,83.6,37.9,83.7,37.9z
	 M83.7,26.1c1.5-0.1,2.9,1,3.2,2.5h-6.6C80.7,27.1,82.1,26,83.7,26.1z"/>
<path class="st0" d="M100.4,37.9c3.6,0,6.8-2.5,7.6-6h-4.4c-0.6,1.2-1.8,2-3.1,1.9c-2-0.2-3.5-1.9-3.4-3.9c0.1-1.8,1.5-3.2,3.3-3.4
	c1.4-0.1,2.7,0.7,3.2,2h4.4c-0.9-4.2-5-6.8-9.2-5.9c-4.2,0.9-6.8,5-5.9,9.2C93.6,35.3,96.8,37.8,100.4,37.9L100.4,37.9z"/>
<polygon class="st0" points="111.2,37.4 115.5,37.4 115.5,26.3 117.6,26.3 117.6,23 115.5,23 115.5,18.2 111.2,18.2 111.2,23 
	109,23 109,26.3 111.2,26.3 "/>
<path class="st0" d="M132.3,34.7h6.7l0.9,2.8h5.3l-7.6-19.3h-3.9L126,37.4h5.3L132.3,34.7z M135.6,24.2L135.6,24.2l2.1,6.6h-4
	L135.6,24.2z"/>
<path class="st0" d="M0,0L0,0v56.7h170.1V0H0z M165.4,52.2H4.7V4.4h160.7V52.2z"/>
</svg>
