<?xml version="1.0" encoding="utf-8"?>
<!-- Generator: Adobe Illustrator 21.1.0, SVG Export Plug-In . SVG Version: 6.00 Build 0)  -->
<!DOCTYPE svg PUBLIC "-//W3C//DTD SVG 1.1//EN" "http://www.w3.org/Graphics/SVG/1.1/DTD/svg11.dtd">
<svg version="1.1" id="Layer_1" xmlns="http://www.w3.org/2000/svg" xmlns:xlink="http://www.w3.org/1999/xlink" x="0px" y="0px"
	 width="261.2px" height="104.8px" viewBox="0 0 261.2 104.8" style="enable-background:new 0 0 261.2 104.8;" xml:space="preserve"
	>
<style type="text/css">
	.st0{fill:url(#SVGID_3_);}
	.st1{fill:url(#SVGID_4_);}
	.st2{opacity:0.28;fill:url(#SVGID_5_);}
	.st3{opacity:0.28;fill:#FFFFFF;}
</style>
<g>
	<g>
		<defs>
			<path id="SVGID_1_" d="M104.6,42.1c-0.4-0.7-0.9-1.3-1.6-1.7c-0.7-0.4-1.4-0.7-2.3-0.9c-0.9-0.2-1.8-0.3-2.8-0.3
				c-0.7,0-1.3,0.1-2,0.2c-0.7,0.1-1.3,0.4-1.8,0.7c-0.5,0.4-1,0.8-1.3,1.3c-0.4,0.5-0.5,1.2-0.5,2c0,0.7,0.1,1.3,0.4,1.8
				c0.3,0.5,0.8,0.9,1.7,1.3c0.8,0.4,2,0.8,3.4,1.2c1.5,0.4,3.4,0.9,5.7,1.5c0.7,0.1,1.7,0.4,2.9,0.8c1.2,0.4,2.5,1,3.7,1.8
				c1.2,0.8,2.3,1.9,3.2,3.2c0.9,1.4,1.3,3.1,1.3,5.2c0,1.7-0.3,3.3-1,4.8c-0.7,1.5-1.7,2.7-3,3.8c-1.3,1.1-2.9,1.9-4.9,2.5
				c-1.9,0.6-4.2,0.9-6.8,0.9c-2.1,0-4.1-0.3-6-0.8c-1.9-0.5-3.7-1.3-5.2-2.4c-1.5-1.1-2.7-2.5-3.6-4.2c-0.9-1.7-1.3-3.7-1.3-6h8
				c0,1.3,0.2,2.3,0.7,3.2c0.5,0.9,1.1,1.6,1.8,2.1c0.8,0.5,1.6,0.9,2.7,1.2c1,0.3,2.1,0.4,3.2,0.4c0.7,0,1.5-0.1,2.4-0.2
				c0.8-0.1,1.6-0.4,2.4-0.7c0.7-0.4,1.4-0.8,1.8-1.4c0.5-0.6,0.7-1.4,0.7-2.3c0-1-0.3-1.8-1-2.5c-0.6-0.6-1.5-1.2-2.6-1.6
				c-1.1-0.4-2.2-0.8-3.6-1.1c-1.3-0.3-2.7-0.7-4.1-1.1c-1.4-0.4-2.8-0.8-4.1-1.3c-1.3-0.5-2.5-1.2-3.6-2c-1.1-0.8-1.9-1.8-2.6-3
				c-0.6-1.2-1-2.7-1-4.4c0-1.9,0.4-3.6,1.2-5c0.8-1.4,1.9-2.6,3.2-3.6c1.3-0.9,2.8-1.6,4.5-2.1c1.7-0.5,3.4-0.7,5.1-0.7
				c2,0,3.9,0.2,5.7,0.7c1.8,0.4,3.4,1.2,4.8,2.1c1.4,1,2.5,2.2,3.3,3.8c0.8,1.5,1.2,3.4,1.2,5.6h-8C105.2,43.7,105,42.8,104.6,42.1
				L104.6,42.1z M143.8,59.4h-19.6c0.1,2.4,0.7,4.2,1.8,5.3c1.1,1.1,2.7,1.6,4.8,1.6c1.5,0,2.8-0.4,3.9-1.1c1.1-0.8,1.8-1.6,2-2.4
				h6.6c-1.1,3.3-2.7,5.6-4.8,7c-2.2,1.4-4.8,2.1-7.9,2.1c-2.1,0-4.1-0.3-5.8-1c-1.7-0.7-3.2-1.7-4.4-2.9c-1.2-1.3-2.1-2.8-2.8-4.5
				c-0.7-1.8-1-3.7-1-5.8c0-2,0.3-3.9,1-5.7c0.7-1.8,1.6-3.3,2.8-4.6c1.2-1.3,2.7-2.3,4.4-3c1.7-0.7,3.6-1.1,5.7-1.1
				c2.3,0,4.3,0.4,6.1,1.3c1.7,0.9,3.1,2.1,4.2,3.6c1.1,1.5,1.9,3.2,2.4,5.2C143.7,55.3,143.9,57.3,143.8,59.4L143.8,59.4z
				 M134.4,50.4c-0.9-1-2.3-1.5-4.1-1.5c-1.2,0-2.2,0.2-3,0.6c-0.8,0.4-1.4,0.9-1.9,1.5c-0.5,0.6-0.8,1.2-1,1.9
				c-0.2,0.7-0.3,1.3-0.3,1.8h12.2C136,52.8,135.3,51.4,134.4,50.4L134.4,50.4z M165.3,71.2V55.8c0-2.2-0.3-3.9-1.1-5
				c-0.7-1.1-1.9-1.7-3.7-1.7c-2,0-3.5,0.6-4.4,1.8c-0.9,1.2-1.4,3.2-1.4,6v14.3h-7.5V44h7.1v3.8h0.2c0.9-1.6,2.2-2.7,3.7-3.4
				c1.5-0.7,3.1-1.1,4.6-1.1c2,0,3.6,0.3,4.9,0.8c1.3,0.5,2.3,1.3,3,2.3c0.7,1,1.3,2.1,1.6,3.5c0.3,1.4,0.4,2.9,0.4,4.6v16.7H165.3
				L165.3,71.2z M189.2,48.9c-1.2,0-2.2,0.3-3,0.8c-0.8,0.5-1.5,1.2-2,2.1c-0.5,0.9-0.9,1.8-1.1,2.8c-0.2,1-0.3,2.1-0.3,3.1
				c0,1,0.1,2,0.3,3c0.2,1,0.6,1.9,1,2.8c0.5,0.8,1.1,1.5,1.9,2c0.8,0.5,1.8,0.8,2.9,0.8c1.8,0,3.2-0.5,4.1-1.5c1-1,1.6-2.3,1.8-4
				h7.2c-0.5,3.6-1.9,6.4-4.2,8.3c-2.3,1.9-5.3,2.8-8.9,2.8c-2,0-3.9-0.3-5.6-1c-1.7-0.7-3.2-1.6-4.3-2.9c-1.2-1.2-2.1-2.7-2.8-4.4
				c-0.7-1.7-1-3.6-1-5.6c0-2.1,0.3-4.1,0.9-5.9c0.6-1.8,1.5-3.4,2.7-4.7c1.2-1.3,2.6-2.3,4.4-3.1c1.7-0.7,3.7-1.1,5.9-1.1
				c1.6,0,3.2,0.2,4.7,0.6c1.5,0.4,2.8,1.1,4,1.9c1.2,0.9,2.1,1.9,2.9,3.2c0.7,1.3,1.2,2.8,1.3,4.6h-7.3
				C194.3,50.5,192.4,48.9,189.2,48.9L189.2,48.9z M223.6,71.2V55.8c0-2.2-0.3-3.9-1.1-5c-0.7-1.1-1.9-1.7-3.7-1.7
				c-2,0-3.5,0.6-4.4,1.8c-0.9,1.2-1.4,3.2-1.4,6v14.3h-7.5V33.6h7.5v14.2h0.2c0.9-1.6,2.2-2.7,3.6-3.4c1.5-0.7,2.9-1.1,4.3-1.1
				c2,0,3.6,0.3,4.9,0.8c1.3,0.5,2.3,1.3,3,2.3c0.7,1,1.3,2.1,1.6,3.5c0.3,1.4,0.4,2.9,0.4,4.6v16.7H223.6L223.6,71.2z M253.6,71.2
				c-0.1-0.4-0.3-0.9-0.3-1.3c-0.1-0.4-0.1-0.9-0.2-1.3c-1.2,1.2-2.6,2.1-4.2,2.6c-1.6,0.5-3.3,0.7-4.9,0.7c-1.3,0-2.5-0.2-3.6-0.5
				c-1.1-0.3-2.1-0.8-2.9-1.5c-0.8-0.7-1.5-1.5-2-2.5c-0.5-1-0.7-2.2-0.7-3.6c0-1.5,0.3-2.8,0.8-3.8c0.5-1,1.2-1.8,2.1-2.4
				c0.9-0.6,1.8-1,2.9-1.3c1.1-0.3,2.2-0.5,3.3-0.7c1.1-0.2,2.2-0.3,3.3-0.4c1.1-0.1,2.1-0.3,2.9-0.5c0.8-0.2,1.5-0.5,2-0.9
				c0.5-0.4,0.7-1,0.7-1.8c0-0.8-0.1-1.4-0.4-1.9c-0.3-0.5-0.6-0.8-1.1-1.1c-0.4-0.3-0.9-0.4-1.5-0.5c-0.6-0.1-1.2-0.1-1.9-0.1
				c-1.5,0-2.6,0.3-3.5,0.9c-0.8,0.6-1.3,1.7-1.5,3.2h-7.5c0.1-1.8,0.5-3.2,1.3-4.4c0.8-1.2,1.8-2.1,2.9-2.8c1.2-0.7,2.5-1.2,4-1.5
				c1.5-0.3,3-0.4,4.5-0.4c1.4,0,2.8,0.1,4.2,0.3c1.4,0.2,2.7,0.6,3.8,1.1c1.2,0.6,2.1,1.3,2.8,2.3c0.7,1,1.1,2.3,1.1,4v14.2
				c0,1.2,0.1,2.4,0.2,3.5c0.1,1.1,0.4,2,0.7,2.5H253.6L253.6,71.2z M252.8,57.9c-0.3,0.3-0.7,0.5-1.2,0.7c-0.5,0.2-1,0.3-1.5,0.4
				c-0.5,0.1-1.1,0.2-1.7,0.3c-0.6,0.1-1.2,0.2-1.8,0.3c-0.6,0.1-1.1,0.2-1.7,0.4c-0.5,0.2-1,0.4-1.4,0.7c-0.4,0.3-0.7,0.7-1,1.1
				c-0.2,0.5-0.4,1-0.4,1.7c0,0.7,0.1,1.2,0.4,1.7c0.2,0.5,0.6,0.8,1,1.1c0.4,0.3,0.9,0.4,1.5,0.6c0.6,0.1,1.1,0.2,1.7,0.2
				c1.5,0,2.6-0.2,3.4-0.7c0.8-0.5,1.4-1.1,1.8-1.8c0.4-0.7,0.6-1.4,0.7-2.1c0.1-0.7,0.1-1.3,0.1-1.7V57.9L252.8,57.9z"/>
		</defs>
		<use xlink:href="#SVGID_1_"  style="overflow:visible;"/>
		<clipPath id="SVGID_2_">
			<use xlink:href="#SVGID_1_"  style="overflow:visible;"/>
		</clipPath>
	</g>
</g>
<g>
	<g>
		
			<linearGradient id="SVGID_3_" gradientUnits="userSpaceOnUse" x1="10066.8271" y1="4598.9346" x2="10000.4385" y2="4665.3228" gradientTransform="matrix(0 -1 1 0 -4597.5684 10086.0332)">
			<stop  offset="0" style="stop-color:#C5D82D"/>
			<stop  offset="0.1897" style="stop-color:#C2D62D"/>
			<stop  offset="0.3354" style="stop-color:#B8CF2C"/>
			<stop  offset="0.4665" style="stop-color:#A8C42B"/>
			<stop  offset="0.5891" style="stop-color:#91B42A"/>
			<stop  offset="0.7057" style="stop-color:#739F28"/>
			<stop  offset="0.8177" style="stop-color:#4E8625"/>
			<stop  offset="0.9242" style="stop-color:#236822"/>
			<stop  offset="1" style="stop-color:#005020"/>
		</linearGradient>
		<path class="st0" d="M42,78c5,2.4,8.5,7.6,8.5,13.5c0,5.7-3.2,10.7-8,13.3l7-3.6c11.6-5.8,19.5-17.8,19.5-31.6
			c0-13.6-7.7-25.5-19-31.3l-23-11.5c-5-2.4-8.5-7.6-8.5-13.5c0-5.7,3.2-10.7,8-13.3l-7,3.6C8,9.4,0,21.4,0,35.2
			c0,13.6,7.7,25.5,19,31.3L42,78z"/>
		<linearGradient id="SVGID_4_" gradientUnits="userSpaceOnUse" x1="50.2766" y1="36.1547" x2="18.3136" y2="68.1177">
			<stop  offset="0" style="stop-color:#8BC53F"/>
			<stop  offset="0.2181" style="stop-color:#88C23E"/>
			<stop  offset="0.3856" style="stop-color:#7EBA3C"/>
			<stop  offset="0.5362" style="stop-color:#6EAC38"/>
			<stop  offset="0.6769" style="stop-color:#579933"/>
			<stop  offset="0.8108" style="stop-color:#39802D"/>
			<stop  offset="0.9378" style="stop-color:#156125"/>
			<stop  offset="1" style="stop-color:#005020"/>
		</linearGradient>
		<path class="st1" d="M50.1,38.3L28.3,27.3l-1.8,3.2c-3.9,7.3-11.8,12-20.6,11.6c-1.9-0.1-3.6-0.4-5.3-0.9
			c1.9,11,8.9,20.3,18.5,25.3l4.8,2.4c4.2,1.3,8.7,2.1,13.3,2.3c11.5,0.5,22.3-2.7,31.3-8.6C66.3,52,59.4,43.1,50.1,38.3z"/>
		<linearGradient id="SVGID_5_" gradientUnits="userSpaceOnUse" x1="66.2415" y1="87.3703" x2="11.6196" y2="30.8076">
			<stop  offset="0" style="stop-color:#8BC53F"/>
			<stop  offset="0.2181" style="stop-color:#88C23E"/>
			<stop  offset="0.3856" style="stop-color:#7EBA3C"/>
			<stop  offset="0.5362" style="stop-color:#6EAC38"/>
			<stop  offset="0.6769" style="stop-color:#579933"/>
			<stop  offset="0.8108" style="stop-color:#39802D"/>
			<stop  offset="0.9378" style="stop-color:#156125"/>
			<stop  offset="1" style="stop-color:#005020"/>
		</linearGradient>
		<path class="st2" d="M69.1,69.6c0-13.6-7.7-25.5-19-31.3l-23-11.5c-2.4-1.2-4.4-3-5.9-5.2c-6.1,15.4-5.7,31.8,0.1,46L42,78
			c5,2.4,8.5,7.6,8.5,13.5c0,4-1.5,7.6-4.1,10.3l0.6,0.7l2.5-1.3C61.2,95.4,69.1,83.4,69.1,69.6z"/>
	</g>
	<path class="st3" d="M68.4,62.7L68.4,62.7L68.4,62.7c-0.4-2-1-3.9-1.7-5.8c0,0,0,0,0,0c-0.7-1.8-1.6-3.6-2.6-5.3c0,0,0-0.1-0.1-0.1
		c-0.7-1.1-1.4-2.1-2.1-3.1c0,0,0,0-0.1-0.1c-0.4-0.5-0.7-1-1.1-1.4c-0.1-0.1-0.1-0.1-0.2-0.2c-0.4-0.5-0.8-0.9-1.2-1.4c0,0,0,0,0,0
		c-0.4-0.4-0.8-0.8-1.2-1.2C58.1,44,58,43.9,58,43.9c-0.4-0.4-0.9-0.8-1.3-1.2c-0.1-0.1-0.2-0.1-0.2-0.2c-0.4-0.4-0.9-0.7-1.4-1.1
		c0,0,0,0-0.1,0c-0.5-0.3-0.9-0.7-1.4-1c-0.1-0.1-0.2-0.1-0.3-0.2c-0.5-0.3-1-0.6-1.4-0.9c-0.1-0.1-0.2-0.1-0.3-0.2
		c-0.5-0.3-1-0.6-1.5-0.9L28.3,27.3l0,0l-1.2-0.6c-0.3-0.1-0.6-0.3-0.9-0.5c-0.1-0.1-0.2-0.1-0.3-0.2c-0.2-0.1-0.4-0.2-0.6-0.3
		c-0.1-0.1-0.3-0.2-0.4-0.3c-0.1-0.1-0.3-0.2-0.4-0.3c-0.1-0.1-0.3-0.2-0.4-0.3c-0.1-0.1-0.2-0.2-0.4-0.3c-0.1-0.1-0.3-0.3-0.4-0.4
		c-0.1-0.1-0.2-0.2-0.3-0.3c-0.1-0.1-0.3-0.3-0.4-0.4c-0.1-0.1-0.2-0.2-0.3-0.3c-0.1-0.2-0.3-0.3-0.4-0.5c-0.1-0.1-0.2-0.2-0.2-0.3
		c-0.1-0.2-0.2-0.3-0.4-0.5c-1.7-2.4-2.7-5.4-2.7-8.6c0-5.7,3.2-10.7,8-13.3l-7,3.6C8,9.4,0,21.4,0,35.2c0,2.8,0.3,5.4,0.9,8
		c0,0.1,0,0.1,0,0.2c0.2,0.6,0.3,1.3,0.5,1.9c0,0,0,0.1,0,0.1c0.4,1.3,0.8,2.5,1.3,3.7c0,0.1,0,0.1,0.1,0.2c0.2,0.6,0.5,1.1,0.8,1.7
		c0,0.1,0.1,0.1,0.1,0.2c0.6,1.1,1.2,2.2,1.9,3.3c0,0.1,0.1,0.1,0.1,0.2c0.3,0.5,0.7,1,1,1.5c0.1,0.1,0.1,0.1,0.2,0.2
		c0.4,0.5,0.7,1,1.1,1.5c0,0,0,0,0.1,0.1c0.4,0.5,0.8,0.9,1.2,1.4c0,0,0.1,0.1,0.1,0.1c0.4,0.4,0.8,0.9,1.3,1.3
		c0.1,0.1,0.1,0.1,0.2,0.2c0.4,0.4,0.9,0.8,1.3,1.2c0.1,0,0.1,0.1,0.2,0.1c0.5,0.4,0.9,0.8,1.4,1.1c0,0,0.1,0,0.1,0.1
		c0.5,0.4,1,0.7,1.5,1.1c0.1,0.1,0.2,0.1,0.3,0.2c0.5,0.3,1,0.6,1.5,0.9c0.1,0.1,0.2,0.1,0.3,0.2c0.5,0.3,1.1,0.6,1.6,0.9L42,78
		c5,2.4,8.5,7.6,8.5,13.5c0,0.3,0,0.6,0,1c0,0.1,0,0.2,0,0.3c0,0.3,0,0.5-0.1,0.8c0,0,0,0.1,0,0.1c0,0.3-0.1,0.6-0.2,0.9
		c0,0.1,0,0.2-0.1,0.2c-0.1,0.2-0.1,0.5-0.2,0.7c0,0.1,0,0.1-0.1,0.2c-0.1,0.3-0.2,0.6-0.3,0.8c0,0.1-0.1,0.2-0.1,0.2
		c-0.1,0.2-0.2,0.4-0.2,0.6c0,0.1-0.1,0.2-0.1,0.3c-0.1,0.3-0.2,0.5-0.4,0.8c0,0.1-0.1,0.1-0.1,0.2c-0.1,0.2-0.2,0.4-0.3,0.6
		c-0.1,0.1-0.1,0.2-0.2,0.3c-0.1,0.2-0.3,0.4-0.4,0.7c0,0.1-0.1,0.1-0.1,0.2c-0.1,0.2-0.3,0.4-0.4,0.5c-0.1,0.1-0.1,0.2-0.2,0.2
		c-0.1,0.2-0.3,0.3-0.4,0.5c0,0.1-0.1,0.1-0.1,0.2c-1.1,1.2-2.5,2.2-3.9,3l7-3.6c11.6-5.8,19.5-17.8,19.5-31.6
		C69.1,67.2,68.9,64.9,68.4,62.7z"/>
</g>
</svg>
