<?xml version="1.0" standalone="no"?>
<!DOCTYPE svg PUBLIC "-//W3C//DTD SVG 20010904//EN"
 "http://www.w3.org/TR/2001/REC-SVG-20010904/DTD/svg10.dtd">
<svg version="1.0" xmlns="http://www.w3.org/2000/svg"
 width="500.000000pt" height="174.000000pt" viewBox="0 0 500.000000 174.000000"
 preserveAspectRatio="xMidYMid meet">
<metadata>
Created by potrace 1.14, written by Peter Selinger 2001-2017
</metadata>
<g transform="translate(0.000000,174.000000) scale(0.100000,-0.100000)"
fill="#000000" stroke="none">
<path d="M860 1453 c-14 -9 -31 -24 -37 -33 -20 -24 -173 -288 -173 -297 0 -5
26 -27 58 -50 85 -60 147 -118 197 -183 93 -121 166 -291 181 -417 l7 -63 -52
0 c-47 0 -51 2 -51 23 0 46 -41 183 -75 254 -62 125 -172 247 -296 327 l-26
16 -93 -162 -94 -162 25 -15 c74 -46 152 -154 177 -243 l10 -38 -83 0 c-46 0
-90 3 -99 6 -22 8 -20 36 5 79 21 35 21 36 3 56 -28 31 -84 63 -94 53 -24 -24
-90 -169 -90 -197 0 -18 9 -46 20 -64 35 -58 57 -63 280 -63 l200 0 0 58 c0
75 -32 202 -66 261 -15 25 -45 68 -67 95 l-40 48 24 44 c13 24 27 44 31 44 15
0 118 -138 148 -199 41 -83 70 -199 70 -283 l0 -68 186 0 187 0 -6 118 c-13
263 -110 476 -304 671 -52 51 -93 96 -91 100 18 40 75 132 84 135 7 3 19 -1
28 -7 8 -7 124 -201 257 -431 185 -322 239 -423 232 -435 -6 -10 -28 -17 -57
-19 l-46 -3 0 -65 0 -64 88 0 c93 0 126 12 159 60 23 33 20 97 -7 150 -84 166
-527 920 -555 948 -29 27 -42 32 -83 32 -28 0 -57 -7 -72 -17z"/>
<path d="M2113 1186 c-97 -32 -138 -90 -131 -187 6 -83 39 -120 164 -186 108
-56 131 -82 114 -127 -5 -15 -22 -31 -37 -37 -38 -15 -133 -4 -194 22 -27 12
-51 20 -52 18 -2 -2 -10 -27 -19 -56 l-16 -52 52 -22 c62 -27 194 -37 263 -19
111 27 169 119 142 225 -15 58 -56 96 -175 158 -93 49 -99 54 -102 85 -7 72
63 92 187 53 l60 -19 15 46 c9 25 16 51 16 57 0 17 -106 47 -180 51 -38 2 -83
-2 -107 -10z"/>
<path d="M3600 1151 l-55 -17 -3 -47 -3 -47 -45 0 -44 0 0 -55 0 -55 44 0 44
0 4 -152 c3 -124 7 -159 21 -186 25 -46 71 -64 160 -60 l72 3 3 53 3 52 -50 0
c-39 0 -53 4 -61 19 -5 11 -10 76 -10 145 l0 126 60 0 60 0 0 50 0 49 -57 3
-58 3 -3 68 c-3 75 0 73 -82 48z"/>
<path d="M2582 1029 c-46 -14 -106 -77 -126 -134 -18 -56 -21 -152 -5 -210 14
-52 90 -126 145 -143 52 -15 186 -14 239 2 39 11 40 12 43 64 2 28 2 52 0 52
-2 0 -25 -7 -52 -15 -64 -19 -149 -19 -187 1 -27 14 -59 65 -59 94 0 6 58 10
165 10 l165 0 0 58 c0 31 -5 75 -11 97 -14 51 -73 110 -124 124 -48 13 -147
13 -193 0z m147 -93 c27 -14 51 -53 51 -81 0 -12 -19 -15 -99 -15 l-100 0 9
31 c20 70 77 96 139 65z"/>
<path d="M3145 1028 c-11 -6 -30 -20 -43 -32 -20 -17 -24 -18 -32 -6 -5 8 -10
21 -10 28 0 8 -18 12 -55 12 l-55 0 0 -245 0 -245 69 0 69 0 4 163 c3 185 11
209 73 226 43 11 91 -2 105 -29 6 -10 10 -95 10 -189 l0 -171 70 0 70 0 0 193
c0 180 -2 194 -23 232 -31 55 -75 75 -162 75 -38 0 -79 -6 -90 -12z"/>
<path d="M4034 1015 c-23 -14 -45 -33 -49 -42 -6 -15 -10 -11 -19 17 -12 34
-15 35 -69 38 l-57 3 0 -246 0 -245 69 0 69 0 4 148 c3 120 7 152 21 174 21
31 83 58 132 58 l35 0 0 60 0 60 -47 0 c-33 0 -61 -8 -89 -25z"/>
<path d="M4211 1003 c6 -16 49 -131 95 -256 81 -219 83 -229 69 -257 -23 -44
-53 -60 -112 -60 l-53 0 0 -49 c0 -28 5 -53 10 -56 6 -3 39 -6 75 -6 84 0 144
26 183 80 18 24 69 151 130 318 55 153 103 286 107 296 6 15 0 17 -68 17 l-76
0 -45 -142 c-25 -79 -48 -155 -51 -170 -4 -16 -11 -28 -15 -28 -4 0 -11 12
-15 28 -3 15 -27 91 -51 170 l-46 142 -74 0 -74 0 11 -27z"/>
</g>
</svg>
