<?xml version="1.0" encoding="utf-8"?>
<!-- Generator: Adobe Illustrator 21.1.0, SVG Export Plug-In . SVG Version: 6.00 Build 0)  -->
<!DOCTYPE svg PUBLIC "-//W3C//DTD SVG 1.1//EN" "http://www.w3.org/Graphics/SVG/1.1/DTD/svg11.dtd">
<svg version="1.1" id="shopify-full-color-black" xmlns="http://www.w3.org/2000/svg" xmlns:xlink="http://www.w3.org/1999/xlink"
	 x="0px" y="0px" width="608px" height="173.7px" viewBox="0 0 608 173.7" style="enable-background:new 0 0 608 173.7;"
	 xml:space="preserve">
<style type="text/css">
	.st0{fill:#95BF47;}
	.st1{fill:#5E8E3E;}
	.st2{fill:#FFFFFF;}
</style>
<path class="st0" d="M130.6,33c-0.1-0.9-0.9-1.3-1.5-1.4s-13.7-1-13.7-1s-9.1-9-10-10c-1-1-2.9-0.7-3.7-0.5c-0.1,0-2,0.6-5.1,1.6
	C93.7,13,88.3,5,78.9,5h-0.8c-2.7-3.5-6-5.1-8.8-5.1C47.4,0,37,27.3,33.7,41.2c-8.5,2.6-14.5,4.5-15.3,4.7c-4.7,1.5-4.9,1.6-5.5,6.1
	C12.4,55.5,0,151.5,0,151.5l96.7,18.1l52.4-11.3C149.1,158.2,130.7,33.9,130.6,33z M91.3,23.4c-2.4,0.8-5.2,1.6-8.2,2.5v-1.8
	c0-5.4-0.8-9.8-2-13.2C86,11.6,89.3,17.1,91.3,23.4z M75.2,12c1.3,3.4,2.2,8.2,2.2,14.7v0.9c-5.3,1.6-11.1,3.4-16.9,5.2
	C63.8,20.4,69.9,14.3,75.2,12z M68.7,5.9c0.9,0,1.9,0.3,2.8,0.9C64.5,10.1,57,18.4,53.8,35c-4.6,1.4-9.2,2.8-13.4,4.1
	C44.2,26.5,53,5.9,68.7,5.9z"/>
<path class="st1" d="M129.1,31.6c-0.6-0.1-13.7-1-13.7-1s-9.1-9-10-10c-0.4-0.4-0.9-0.6-1.4-0.6l-7.3,149.6l52.4-11.3
	c0,0-18.4-124.4-18.5-125.2C130.5,32.2,129.7,31.7,129.1,31.6z"/>
<path class="st2" d="M78.9,60.6l-6.5,19.2c0,0-5.7-3-12.6-3c-10.2,0-10.7,6.4-10.7,8c0,8.8,22.9,12.1,22.9,32.7
	c0,16.2-10.3,26.6-24.1,26.6c-16.6,0-25.1-10.3-25.1-10.3l4.4-14.7c0,0,8.7,7.5,16.1,7.5c4.8,0,6.8-3.8,6.8-6.6
	c0-11.5-18.8-12-18.8-30.8C31.3,73.4,42.7,58,65.6,58C74.6,58.1,78.9,60.6,78.9,60.6z"/>
<path d="M210.2,96.6c-5.2-2.8-7.9-5.2-7.9-8.5c0-4.2,3.7-6.9,9.6-6.9c6.8,0,12.8,2.8,12.8,2.8l4.8-14.6c0,0-4.4-3.4-17.3-3.4
	c-18,0-30.5,10.3-30.5,24.8c0,8.2,5.8,14.5,13.6,19c6.3,3.6,8.5,6.1,8.5,9.9c0,3.9-3.1,7-9,7c-8.7,0-16.9-4.5-16.9-4.5l-5.1,14.6
	c0,0,7.6,5.1,20.3,5.1c18.5,0,31.8-9.1,31.8-25.5C225,107.5,218.3,101.3,210.2,96.6L210.2,96.6z M284,65.9
	c-9.1,0-16.3,4.3-21.8,10.9l-0.3-0.1l7.9-41.4h-20.6l-20,105.3h20.6l6.9-36c2.7-13.6,9.7-22,16.3-22c4.6,0,6.4,3.1,6.4,7.6
	c0,2.8-0.3,6.3-0.9,9.1l-7.8,41.2h20.6l8.1-42.6c0.9-4.5,1.5-9.9,1.5-13.4C300.8,72.9,294.7,65.9,284,65.9L284,65.9z M347.4,65.9
	c-24.8,0-41.2,22.4-41.2,47.3c0,16,9.9,28.8,28.4,28.8c24.3,0,40.8-21.8,40.8-47.3C375.4,79.9,366.7,65.9,347.4,65.9L347.4,65.9z
	 M337.3,126.2c-7,0-10-6-10-13.4c0-11.8,6.1-31.1,17.3-31.1c7.3,0,9.7,6.3,9.7,12.4C354.3,106.8,348.2,126.2,337.3,126.2z
	 M428.1,65.9c-13.9,0-21.8,12.2-21.8,12.2H406l1.2-11H389c-0.9,7.5-2.5,18.8-4.2,27.3l-14.3,75.4H391l5.7-30.5h0.4
	c0,0,4.2,2.7,12.1,2.7c24.2,0,40-24.8,40-49.9C449.3,78.3,443.1,65.9,428.1,65.9L428.1,65.9z M408.4,126.5c-5.4,0-8.5-3-8.5-3
	l3.4-19.3c2.4-12.8,9.1-21.4,16.3-21.4c6.3,0,8.2,5.8,8.2,11.3C427.8,107.5,419.9,126.5,408.4,126.5z M478.7,36.3
	c-6.6,0-11.8,5.2-11.8,11.9c0,6.1,3.9,10.3,9.7,10.3h0.3c6.4,0,11.9-4.3,12.1-11.9C489,40.6,485,36.3,478.7,36.3L478.7,36.3z
	 M449.9,140.5h20.6l14-73h-20.7 M536.9,67.4h-14.3l0.7-3.4c1.2-7,5.4-13.3,12.2-13.3c3.7,0,6.6,1,6.6,1l4-16.1c0,0-3.6-1.8-11.2-1.8
	c-7.3,0-14.6,2.1-20.2,6.9c-7,6-10.3,14.6-11.9,23.3l-0.6,3.4h-9.6l-3,15.5h9.6l-10.9,57.6H509l10.9-57.6h14.2L536.9,67.4z
	 M586.5,67.5c0,0-12.9,32.5-18.7,50.2h-0.3c-0.4-5.7-5.1-50.2-5.1-50.2h-21.7l12.4,67c0.3,1.5,0.1,2.4-0.4,3.4
	c-2.4,4.6-6.4,9.1-11.2,12.4c-3.9,2.8-8.2,4.6-11.6,5.8l5.7,17.5c4.2-0.9,12.8-4.3,20.2-11.2c9.4-8.8,18.1-22.4,27-40.9l25.2-54
	L586.5,67.5L586.5,67.5z"/>
</svg>
