<?xml version="1.0" encoding="utf-8"?>
<!-- Generator: Adobe Illustrator 21.0.0, SVG Export Plug-In . SVG Version: 6.00 Build 0)  -->
<!DOCTYPE svg PUBLIC "-//W3C//DTD SVG 1.1//EN" "http://www.w3.org/Graphics/SVG/1.1/DTD/svg11.dtd">
<svg version="1.1" id="Ebene_1" xmlns="http://www.w3.org/2000/svg" xmlns:xlink="http://www.w3.org/1999/xlink" x="0px" y="0px"
	 width="792px" height="230px" viewBox="0 0 792 230" style="enable-background:new 0 0 792 230;" xml:space="preserve">
<g>
	<path d="M59.6,163.4c-15.3,0-23.2-8.2-23.6-24.7c0-0.8,0.3-1.4,1.1-1.5l11.7-1.9c0.6-0.2,1.3,0.2,1.5,0.8c0,0.1,0.1,0.3,0,0.4
		c0.4,10,3.3,13.9,9.7,13.9s8.9-3.2,8.9-13.5s-1.9-13.5-9.3-16.2l-5.7-2.2c-13-5.4-17-12-17-26.9c0-16.2,7.4-25.2,22.9-25.2
		S82.2,74.7,83,89.5c0,0.8-0.4,1.2-1.2,1.5l-11.1,1.7c-0.8,0-1.5-0.3-1.5-1.1c-0.3-7.8-2.8-12.1-8.9-12.1s-8.6,3.6-8.6,11.4
		c0,8.7,1.7,11.4,9.2,14.3l5.7,2.2c12.4,4.8,17.2,11.5,17.2,27.6C83.6,153.7,77.5,163.4,59.6,163.4z M88.2,69.1
		c-0.1-0.7,0.5-1.3,1.2-1.4c0.1,0,0.2,0,0.2,0h12.1c0.7-0.1,1.3,0.5,1.4,1.2c0,0.1,0,0.2,0,0.2v91.6c0.1,0.7-0.5,1.3-1.2,1.4
		c-0.1,0-0.2,0-0.2,0H89.6c-0.7,0.1-1.3-0.5-1.4-1.2c0-0.1,0-0.2,0-0.2V69.1z M110.8,69.1c-0.1-0.7,0.5-1.3,1.2-1.4
		c0.1,0,0.2,0,0.2,0h14.5c0.9-0.1,1.8,0.5,1.9,1.4l17.5,65.3h0.7V69.1c-0.1-0.7,0.5-1.3,1.2-1.4c0.1,0,0.2,0,0.2,0h10.3
		c0.7-0.1,1.3,0.5,1.4,1.2c0,0.1,0,0.2,0,0.2v91.6c0.1,0.7-0.5,1.3-1.2,1.4c-0.1,0-0.2,0-0.2,0H145c-0.9,0.1-1.8-0.5-1.9-1.4
		l-18.3-65.3H124v65.4c0.1,0.7-0.5,1.3-1.2,1.4c-0.1,0-0.2,0-0.2,0h-10.3c-0.7,0.1-1.3-0.5-1.4-1.2c0-0.1,0-0.2,0-0.2L110.8,69.1z
		 M167.9,69.1c-0.1-0.7,0.5-1.3,1.2-1.4c0.1,0,0.2,0,0.2,0H184c0.9-0.1,1.8,0.5,1.9,1.4l17.5,65.3h0.7V69.1
		c-0.1-0.7,0.5-1.3,1.2-1.4c0.1,0,0.2,0,0.2,0h10.3c0.7-0.1,1.3,0.5,1.4,1.2c0,0.1,0,0.2,0,0.2v91.6c0.1,0.7-0.5,1.3-1.2,1.4
		c-0.1,0-0.2,0-0.2,0h-13.7c-0.9,0.1-1.8-0.5-1.9-1.4l-18.3-65.3H181v65.4c0.1,0.7-0.5,1.3-1.2,1.4c-0.1,0-0.2,0-0.2,0h-10.3
		c-0.7,0.1-1.3-0.5-1.4-1.2c0-0.1,0-0.2,0-0.2L167.9,69.1z M225,69.1c-0.1-0.7,0.5-1.3,1.2-1.4c0.1,0,0.2,0,0.2,0h38.7
		c0.7-0.1,1.3,0.5,1.4,1.2c0,0.1,0,0.2,0,0.2v10.8c0.1,0.7-0.5,1.3-1.2,1.4c-0.1,0-0.2,0-0.2,0h-24.5c-0.4,0-0.8,0.3-0.8,0.7v0.1
		V107c0,0.4,0.3,0.8,0.7,0.8h0.1h21.1c0.7-0.1,1.3,0.5,1.4,1.2c0,0.1,0,0.2,0,0.2V120c0.1,0.7-0.5,1.3-1.2,1.4c-0.1,0-0.2,0-0.2,0
		h-21.1c-0.4,0-0.8,0.3-0.8,0.7v0.1V148c0,0.4,0.3,0.8,0.7,0.8h0.1h24.5c0.7-0.1,1.3,0.5,1.4,1.2c0,0.1,0,0.2,0,0.2V161
		c0.1,0.7-0.5,1.3-1.2,1.4c-0.1,0-0.2,0-0.2,0h-38.7c-0.7,0.1-1.3-0.5-1.4-1.2c0-0.1,0-0.2,0-0.2L225,69.1L225,69.1z M309.8,162.1
		c-0.7,0.1-1.3-0.3-1.5-1l-11.5-37.7h-7.1c-0.4,0-0.8,0.3-0.8,0.7v0.1v36.4c0.1,0.7-0.5,1.3-1.2,1.4c-0.1,0-0.2,0-0.2,0h-12.1
		c-0.7,0.1-1.3-0.5-1.4-1.2c0-0.1,0-0.2,0-0.2V69c-0.1-0.7,0.5-1.3,1.2-1.4c0.1,0,0.2,0,0.2,0h19c16.8,0,26.9,7.4,26.9,28.1
		c0,12.4-4.1,20.1-11.3,24.2l13.4,40.8c0.3,0.7,0,1.4-0.7,1.4L309.8,162.1z M306.5,95.7c0-11.1-3.6-14.6-12-14.6h-4.8
		c-0.4,0-0.8,0.3-0.8,0.7v0.1v27.5c0,0.4,0.3,0.8,0.7,0.8h0.1h4.8c8.1-0.1,11.7-3.3,11.7-14.5H306.5z M350.7,163.4
		c-15.3,0-23.2-8.2-23.6-24.7c0-0.8,0.3-1.4,1.1-1.5l11.7-1.9c0.6-0.2,1.3,0.2,1.5,0.8c0,0.1,0.1,0.3,0,0.4
		c0.4,10,3.3,13.9,9.7,13.9s8.9-3.2,8.9-13.5s-1.9-13.5-9.3-16.2l-5.7-2.2c-13-5.4-17-12-17-26.9c0-16.2,7.4-25.2,22.9-25.2
		s22.4,8.3,23.2,23.1c0,0.8-0.4,1.2-1.2,1.5l-11.1,1.7c-0.8,0-1.5-0.3-1.5-1.1c-0.3-7.8-2.8-12.1-8.9-12.1s-8.6,3.6-8.6,11.4
		c0,8.7,1.7,11.4,9.2,14.3l5.7,2.2c12.4,4.8,17.2,11.5,17.2,27.6C374.9,153.7,368.6,163.4,350.7,163.4z M380.4,114.9
		c0-26.2,0.5-30.2,1.8-34c2.8-9.4,11.8-15.4,21.5-14.4c13.5,0,21.9,6.9,22.8,22.6c0,0.8,0,1.5-1,1.7l-11.3,1.9
		c-0.6,0.2-1.3-0.2-1.5-0.8c0-0.1-0.1-0.3,0-0.4c-0.4-8.1-3.2-11.5-8.6-11.5c-3.5-0.4-6.7,2-7.5,5.4c-0.7,2.2-1,4.1-1,29.7
		s0.3,27.5,1,29.7c0.8,3.4,4,5.7,7.5,5.4c5.4,0,8.2-3.4,8.6-11.5c-0.1-0.7,0.4-1.2,1.1-1.3c0.1,0,0.3,0,0.4,0l11.3,1.9
		c0.8,0,1.1,0.8,1,1.7c-0.8,15.7-9.3,22.6-22.8,22.6c-9.7,1-18.8-5.1-21.5-14.4C381,145.1,380.4,141.2,380.4,114.9z M434.5,69.1
		c-0.1-0.7,0.5-1.3,1.2-1.4c0.1,0,0.2,0,0.2,0H448c0.7-0.1,1.3,0.5,1.4,1.2c0,0.1,0,0.2,0,0.2v37.2c0,0.4,0.3,0.8,0.7,0.8h0.1h16.2
		c0.4,0,0.8-0.3,0.8-0.7v-0.1V69.1c-0.1-0.7,0.5-1.3,1.2-1.4c0.1,0,0.2,0,0.2,0h12.1c0.7-0.1,1.3,0.5,1.4,1.2c0,0.1,0,0.2,0,0.2
		v91.6c0.1,0.7-0.5,1.3-1.2,1.4c-0.1,0-0.2,0-0.2,0h-12.1c-0.7,0.1-1.3-0.5-1.4-1.2c0-0.1,0-0.2,0-0.2v-39.3c0-0.4-0.3-0.8-0.7-0.8
		h-0.1h-16.2c-0.4,0-0.8,0.3-0.8,0.7v0.1v39.3c0.1,0.7-0.5,1.3-1.2,1.4c-0.1,0-0.2,0-0.2,0h-12.1c-0.7,0.1-1.3-0.5-1.4-1.2
		c0-0.1,0-0.2,0-0.2V69.1z M525.3,162.1c-0.7,0.1-1.3-0.3-1.5-1l-11.5-37.7h-7.1c-0.4-0.1-0.8,0.2-0.9,0.6c0,0.1,0,0.1,0,0.2v36.4
		c0.1,0.7-0.5,1.3-1.2,1.4c-0.1,0-0.2,0-0.2,0h-12.1c-0.7,0.1-1.3-0.5-1.4-1.2c0-0.1,0-0.2,0-0.2V69c-0.1-0.7,0.5-1.3,1.2-1.4
		c0.1,0,0.2,0,0.2,0h19c16.8,0,26.9,7.4,26.9,28.1c0,12.4-4.1,20.1-11.3,24.2l13.4,40.8c0.3,0.7,0,1.4-0.7,1.4L525.3,162.1z
		 M521.9,95.7c0-11.1-3.6-14.6-12-14.6h-4.8c-0.4-0.1-0.8,0.2-0.9,0.6c0,0.1,0,0.1,0,0.2v27.5c0,0.4,0.3,0.8,0.7,0.8
		c0.1,0,0.1,0,0.2,0h4.8c8.5-0.1,12.1-3.3,12.1-14.5H521.9z M563.5,69.1c0.3-0.8,0.7-1.4,1.5-1.4h11.7c0.8,0,1.5,0.6,1.5,1.4
		l20,91.6c0.2,0.6-0.1,1.2-0.7,1.4c-0.1,0-0.3,0.1-0.4,0h-11.8c-0.8,0.1-1.4-0.5-1.5-1.3v-0.1l-3.8-19h-18.7l-3.8,19
		c0,0.8-0.7,1.4-1.5,1.4l0,0h-11.8c-0.6,0.1-1.1-0.4-1.2-1c0-0.1,0-0.3,0-0.4L563.5,69.1z M577.7,129.2L571,94h-0.4l-6.9,35.1
		L577.7,129.2z M603.1,69.1c-0.1-0.7,0.5-1.3,1.2-1.4c0.1,0,0.2,0,0.2,0H626c12.4,0,19.6,5,22.9,15.1c1.7,5.4,2.4,11.5,2.4,32.3
		s-0.7,26.9-2.4,32.3c-3.3,10.1-10.8,15.1-22.9,15.1h-21.5c-0.7,0.1-1.3-0.5-1.4-1.2c0-0.1,0-0.2,0-0.2V69.1z M618.8,148.7h6
		c4.6,0.5,8.8-2.4,10-6.8c1.1-3.4,1.7-8.1,1.7-26.9c0-18.9-0.5-23.5-1.7-26.9c-1.2-4.4-5.5-7.3-10-6.8h-6c-0.4,0-0.8,0.3-0.8,0.7
		v0.1V148C618,148.3,618.3,148.7,618.8,148.7C618.7,148.7,618.8,148.7,618.8,148.7z M657.7,69.1c-0.1-0.7,0.5-1.3,1.2-1.4
		c0.1,0,0.2,0,0.2,0h38.6c0.7-0.1,1.3,0.5,1.4,1.2c0,0.1,0,0.2,0,0.2v10.8c0.1,0.7-0.5,1.3-1.2,1.4c-0.1,0-0.2,0-0.2,0h-24.2
		c-0.4-0.1-0.8,0.2-0.9,0.6c0,0.1,0,0.1,0,0.2V107c0,0.4,0.3,0.8,0.7,0.8c0.1,0,0.1,0,0.2,0h21.1c0.7-0.1,1.3,0.5,1.4,1.2
		c0,0.1,0,0.2,0,0.2V120c0.1,0.7-0.5,1.3-1.2,1.4c-0.1,0-0.2,0-0.2,0h-21.1c-0.4-0.1-0.8,0.2-0.9,0.6c0,0.1,0,0.1,0,0.2V148
		c0,0.4,0.3,0.8,0.7,0.8c0.1,0,0.1,0,0.2,0h24.2c0.7-0.1,1.3,0.5,1.4,1.2c0,0.1,0,0.2,0,0.2V161c0.1,0.7-0.5,1.3-1.2,1.4
		c-0.1,0-0.2,0-0.2,0H659c-0.7,0.1-1.3-0.5-1.4-1.2c0-0.1,0-0.2,0-0.2L657.7,69.1z M742.3,162.1c-0.7,0.1-1.3-0.3-1.5-1l-11.5-37.7
		h-7.1c-0.4,0-0.8,0.3-0.8,0.7v0.1v36.4c0.1,0.7-0.5,1.3-1.2,1.4c-0.1,0-0.2,0-0.2,0h-12.1c-0.7,0.1-1.3-0.5-1.4-1.2
		c0-0.1,0-0.2,0-0.2V69c-0.1-0.7,0.5-1.3,1.2-1.4c0.1,0,0.2,0,0.2,0h19c16.8,0,26.9,7.4,26.9,28.1c0,12.4-4.1,20.1-11.3,24.2
		l13.4,40.8c0.3,0.7,0,1.4-0.7,1.4L742.3,162.1z M738.9,95.7c0-11.1-3.6-14.6-12-14.6h-4.8c-0.4,0-0.8,0.3-0.8,0.7v0.1v27.5
		c0,0.4,0.3,0.8,0.7,0.8h0.1h4.8C735.3,110.2,738.9,107,738.9,95.7z"/>
</g>
</svg>
