<?xml version="1.0" encoding="utf-8"?>
<!-- Generator: Adobe Illustrator 21.1.0, SVG Export Plug-In . SVG Version: 6.00 Build 0)  -->
<!DOCTYPE svg PUBLIC "-//W3C//DTD SVG 1.1//EN" "http://www.w3.org/Graphics/SVG/1.1/DTD/svg11.dtd">
<svg version="1.1" id="Ebene_1" xmlns="http://www.w3.org/2000/svg" xmlns:xlink="http://www.w3.org/1999/xlink" x="0px" y="0px"
	 width="507px" height="504px" viewBox="0 0 507 504" style="enable-background:new 0 0 507 504;" xml:space="preserve">
<style type="text/css">
	.st0{fill:#2F3849;}
</style>
<title>Group</title>
<g>
	<path class="st0" d="M180.8,371.5c0-15.9,0-31.7,0-47.6c0-4.7-0.7-5.7-5.3-7.1C123.9,301,72.3,285.2,20.6,269.5
		c-3.6-1.1-5.3-3-5.6-6.8c-1.5-17.4-3.1-34.8-4.7-52.1c-1.7-18.9-3.5-37.8-5.2-56.7c-1.5-16.6-3-33.2-4.5-49.7
		c-0.1-1.5-0.3-3-0.5-4.5c-0.4-4.5,0.5-5.8,4.7-7.1c15.1-4.7,30.1-9.3,45.2-14c14.6-4.5,29.1-9.1,43.7-13.6c5.3-1.6,5.9-1.3,6.5,4.2
		c1.2,11.8,2.2,23.7,3.3,35.6c1.3,14.7,2.7,29.3,4.1,44c1.1,12,2.2,23.9,3.2,35.9c0.4,4.7,1.3,6,6,7.5
		c37.1,11.3,74.2,22.7,111.4,33.9c2.9,0.9,6.5,0.9,9.4,0.1c37.5-11.2,74.8-22.7,112.3-34.1c3.2-1,4.9-2.7,5.2-6.2
		c1.9-22.1,4-44.2,6-66.3c1.6-17.2,3.2-34.4,4.8-51.5c0.3-3.3,1.7-4.1,5.3-2.9c13.6,4.2,27.3,8.3,40.9,12.5c16.3,5,32.6,10,49,15.1
		c4.3,1.3,5.1,2.3,4.7,6.7c-1.5,17.4-3.1,34.8-4.7,52.1c-1.3,14.5-2.6,28.9-3.9,43.4c-1.3,14.5-2.7,28.9-4,43.4
		c-0.7,7.7-1.5,15.5-2,23.2c-0.4,5.4-1.2,6.6-6.3,8.2c-51.4,15.7-102.8,31.4-154.2,47.1c-5.2,1.6-5.9,2.5-5.9,7.9
		c0,31.4,0,62.8,0,94.2c0,5.3-0.6,6.1-5.7,7.8c-13.7,4.3-27.3,8.7-41.1,12.7c-3,0.9-6.7,0.9-9.7,0c-14.1-4.1-28-8.6-42-13
		c-4.1-1.3-5.1-2.7-5.1-7C180.8,403.4,180.8,387.4,180.8,371.5 M466.9,402.2c3,0,5.6,0,8.2,0c10.8-0.1,18.8-9.6,17-20.1
		c-2.3-13.4-12.5-16.8-25.2-14.6V402.2L466.9,402.2z M453,384.5c0-8.9,0-17.8,0-26.7c0-3.8,0.2-4.1,4.2-4c7.8,0.1,15.6-0.2,23.4,0.5
		c15,1.4,26.7,15.4,26.4,30.9c-0.3,15-12.5,28.5-27.3,29.6c-7.9,0.5-15.8,0.2-23.7,0.4c-2.6,0.1-3-1.3-3-3.4
		C453,402.7,453,393.6,453,384.5L453,384.5z"/>
	<path class="st0" d="M357.7,372.5c3.4-5,6.9-9.5,9.8-14.5c2-3.4,4.4-4.9,8.4-4.3c1.7,0.3,3.5-0.1,5.2,0.1c1.1,0.1,2.4,0.4,3.1,1.2
		c0.3,0.4-0.4,2-0.9,2.8c-5.7,8.6-11.5,17-17.2,25.6c-0.9,1.3-1.4,3.1-1.4,4.7c-0.1,7.9-0.1,15.7,0,23.6c0,2.5-0.8,3.5-3.3,3.4
		c-2.4-0.1-4.9-0.1-7.3,0c-2.5,0.1-3.4-0.8-3.4-3.3c0.1-7.8,0.1-15.5,0-23.3c0-1.8-0.6-3.8-1.6-5.3c-5.5-8.5-11.1-16.8-16.7-25.3
		c-0.6-0.9-0.7-2.2-1.1-3.3c1.1-0.3,2.2-0.7,3.4-0.9c7.6-1.5,12.8,1.3,16.2,8.4C352.5,365.8,355.3,368.9,357.7,372.5 M413.9,402.2
		h14.4c8.1,0,8.1,0,8.1,8.2c0,0.7,0,1.4,0,2.1c0.2,1.8-0.7,2.6-2.4,2.6c-10.5,0-21.1,0-31.6,0c-2.1,0-2.4-1.3-2.4-3
		c0-6.3,0-12.5,0-18.8c0-11.9,0.1-23.8-0.1-35.7c0-2.9,1-4.1,3.9-3.9c2.2,0.2,4.5,0.1,6.7,0c2.7-0.1,3.5,1,3.5,3.6
		c-0.1,13.7,0,27.5,0,41.2L413.9,402.2"/>
</g>
</svg>
