<?xml version="1.0" encoding="utf-8"?>
<!-- Generator: Adobe Illustrator 21.1.0, SVG Export Plug-In . SVG Version: 6.00 Build 0)  -->
<!DOCTYPE svg PUBLIC "-//W3C//DTD SVG 1.1//EN" "http://www.w3.org/Graphics/SVG/1.1/DTD/svg11.dtd">
<svg version="1.1" id="Ebene_1" xmlns="http://www.w3.org/2000/svg" xmlns:xlink="http://www.w3.org/1999/xlink" x="0px" y="0px"
	 width="400px" height="80.8px" viewBox="0 0 400 80.8" style="enable-background:new 0 0 400 80.8;" xml:space="preserve">
<style type="text/css">
	.st0{fill:#FF6900;}
</style>
<path d="M133.5,67.2H99.1c-1.2,0-2-0.9-2-2.1v-4.3c0-1.1,0.3-1.5,1-2.3l27.4-32.6H98.6c-1.2,0-2-0.9-2-2.1v-3c0-1.2,0.9-2.1,2-2.1
	h34.8c1.2,0,2,0.9,2,2.1v4.4c0,0.8-0.3,1.5-0.9,2.2L107.1,60h26.5c1.2,0,2,0.9,2,2.1v3C135.5,66.3,134.7,67.2,133.5,67.2z M201.3,68
	L201.3,68c2.5,0,4.3-0.6,5-1.4c0.2-0.3,0.4-0.6,0.3-1c0-0.3,0-0.3-0.7-3.5l0-0.1c-0.1-0.9-0.7-1.2-1.2-1.2c0,0-0.1,0-0.1,0
	c0,0-0.6,0-1.2,0l0,0c-1.8-0.1-3.2-0.3-3.2-2.9V2.8c0-0.9-0.5-1.9-1.6-1.9h-0.3l-4.8,1.3c-0.8,0.1-1.7,0.7-1.6,1.8v54.1
	C191.9,64.5,195.2,68,201.3,68L201.3,68L201.3,68z M298.5,67.2h-4.3c-1.2,0-2-0.9-2-2.1V31.9c-0.1-5.6-1.7-7.2-7.6-7.2
	c-6.7,0-13.4,1.7-15.7,2.3v38.1c0,1.2-0.8,2.1-1.9,2.1h-4.4c-1.2,0-2-0.9-2-2.1V27.9c-0.1-3.4,0.3-5.8,5-7.4c4.6-1.6,13.3-3,19.1-3
	c11,0,15.8,4.1,15.8,13.6v34C300.5,66.3,299.6,67.2,298.5,67.2L298.5,67.2z M341.6,26c-1.6-0.4-6.1-1.5-11.1-1.5
	c-9.2,0.1-13.1,2.6-13.2,18.4c0.1,17.3,5.1,18.2,13.3,18.3v0.4v-0.4c5.1,0,9.5-1.1,11-1.5L341.6,26L341.6,26L341.6,26z M343.8,66.5
	l-0.5,0.1c-2.7,0.7-6.5,1.7-13,1.7h0c-18,0-21.6-9.4-21.6-25.5c0-18.5,5.7-25.4,21.1-25.4c5.4,0,9.1,0.7,11.8,1.4l0-14.9
	c0-0.7,0.3-1.5,1.8-1.8l4.8-1.3h0.3c1.1,0,1.5,1,1.5,1.9v55.9C350,62.3,349.6,65.3,343.8,66.5L343.8,66.5z M378.8,61.1
	c-11.8-0.1-12.4-6.3-12.5-18.2c0.1-12,0.7-18.2,12.5-18.3c11.8,0.1,12.4,6.3,12.5,18.3C391.2,54.8,390.6,61.1,378.8,61.1L378.8,61.1
	z M378.8,17.4c-19.5,0-21.1,13.2-21.2,25.5c0,12.3,1.7,25.4,21.2,25.4c19.5,0,21.1-13.1,21.2-25.4C400,30,398.3,17.5,378.8,17.4
	L378.8,17.4L378.8,17.4z M243.6,43.2c-2,0-11.4,0.2-15.2,1l-0.3,0.1c-4.2,1-7.6,1.8-7.6,8.2c0,8.1,6.1,8.8,12.2,8.9v0.4v-0.4
	c3.9,0,7.5-0.6,10.9-1.7L243.6,43.2L243.6,43.2L243.6,43.2z M252,31.4v25.7c0.1,6.4-1.5,8.4-7.8,9.9c-2.7,0.6-7,1.3-11.6,1.3
	c-6.7,0-20.7,0-20.8-15.5c0-12.2,7.1-14.3,15.7-15.7c5.7-0.9,11.4-1.1,14.3-1.1c0.8,0,1.3,0,1.6,0v-4.4c0-2.9,0-4.7-2.7-5.7
	c-1.6-0.7-4.1-1-7.7-1c-6,0-11.3,1.4-14.9,2.3l-1.4,0.3c-0.1,0-0.3,0.1-0.5,0.1c-0.6,0-1.3-0.4-1.6-1.2l0-0.1l-0.8-4.1V22
	c0-1,0.7-1.6,1.4-1.8c2.8-1.1,10.4-2.8,18.5-2.8c5.9,0,10.2,0.8,13.1,2.4C252,22.5,252,27.4,252,31.4z M173.6,59.6
	c-3.3,1.1-7,1.7-10.9,1.7v0.4v-0.4c-6.2-0.1-12.2-0.8-12.2-8.9c0-6.5,3.4-7.2,7.6-8.2l0.3-0.1c3.8-0.8,13.2-1,15.2-1V59.6
	L173.6,59.6L173.6,59.6z M177.1,19.9c-2.9-1.6-7.2-2.4-13.1-2.4c-8.1,0-15.7,1.7-18.5,2.8c-0.6,0.2-1.3,0.8-1.4,1.8v0.2l0.8,4.1
	l0,0.1c0.3,0.8,0.9,1.2,1.6,1.2c0.2,0,0.4,0,0.5-0.1l1.4-0.3c3.5-0.9,8.9-2.3,14.9-2.3c3.6,0,6.1,0.3,7.7,1c2.6,1,2.6,2.8,2.7,5.7
	V36c-0.3,0-0.8,0-1.6,0c-2.9,0-8.7,0.1-14.3,1.1c-8.6,1.4-15.8,3.5-15.7,15.7c0,15.5,14,15.5,20.8,15.5c4.6,0,8.8-0.7,11.6-1.3
	c6.3-1.5,7.9-3.5,7.8-9.9V31.4C182,27.4,182,22.5,177.1,19.9L177.1,19.9z"/>
<path class="st0" d="M72.8,31.7c-5.7-7.1-13.5-14-23.9-20.2l0,0c-10.4-6.1-20.2-9.6-29-11.1c-5.5-0.9-8.1,0.1-9.3,0.9
	C9.3,1.9,7.1,3.7,5.1,9.1c-3.2,8.6-5,19-5.1,31.3v0c0.1,12.3,2,22.8,5.1,31.3c2,5.4,4.2,7.1,5.4,7.9c1.2,0.7,3.8,1.8,9.3,0.9
	c8.8-1.5,18.6-5,29-11.1l0,0c10.4-6.2,18.2-13.1,23.9-20.2c3.5-4.4,3.9-7.3,3.9-8.7C76.7,39,76.4,36.1,72.8,31.7"/>
</svg>
