<?xml version="1.0" encoding="utf-8"?>
<!-- Generator: Adobe Illustrator 21.1.0, SVG Export Plug-In . SVG Version: 6.00 Build 0)  -->
<!DOCTYPE svg PUBLIC "-//W3C//DTD SVG 1.1//EN" "http://www.w3.org/Graphics/SVG/1.1/DTD/svg11.dtd">
<svg version="1.1" id="Ebene_1" xmlns="http://www.w3.org/2000/svg" xmlns:xlink="http://www.w3.org/1999/xlink" x="0px" y="0px"
	 width="540px" height="107px" viewBox="0 0 540 107" style="enable-background:new 0 0 540 107;" xml:space="preserve">
<style type="text/css">
	.st0{fill:#6F8F9D;}
	.st1{fill:#E77A39;}
</style>
<title>Untitled</title>
<desc>Created with Sketch.</desc>
<g id="Page-1">
	<g id="logo_zalando_cmyk_hor_all">
		<g id="Clip-2">
		</g>
		<path id="Fill-1" class="st0" d="M180,89h-46.4c-1.5,0-2.7-1.2-2.7-2.7v-5.7c0-1.4,0.4-2,1.3-3.1l36.9-42.9h-36.2
			c-1.6,0-2.7-1.2-2.7-2.7v-4c0-1.5,1.2-2.7,2.7-2.7h46.9c1.5,0,2.7,1.2,2.7,2.7v5.8c0,1-0.3,1.9-1.2,2.9l-37,43H180
			c1.5,0,2.7,1.2,2.7,2.7v4C182.8,87.8,181.6,89,180,89L180,89z M271.5,90.2L271.5,90.2c3.3-0.1,5.8-0.7,6.7-1.8
			c0.3-0.4,0.5-0.8,0.5-1.3c0-0.4,0-0.4-0.9-4.6l0-0.1c-0.2-1.1-1-1.6-1.7-1.6l-0.1,0c0,0-0.8,0-1.7,0h0c-2.4-0.1-4.3-0.4-4.4-3.9
			V4.3c0-1.2-0.7-2.5-2.1-2.5l-0.4,0L261,3.5c-1.1,0.1-2.3,0.9-2.2,2.4v71.2C258.8,85.5,263.3,90.2,271.5,90.2L271.5,90.2z
			 M402.5,89h-5.8c-1.5,0-2.7-1.2-2.7-2.7V42.6c-0.1-7.4-2.3-9.4-10.3-9.5c-9,0-18.1,2.3-21.1,3.1v50.1c0,1.6-1.1,2.7-2.6,2.7h-5.9
			c-1.5,0-2.7-1.2-2.7-2.7v-49c-0.1-4.5,0.3-7.7,6.8-9.8c6.2-2.1,18-3.9,25.8-3.9c14.9,0,21.2,5.4,21.2,17.9v44.7
			C405.2,87.8,404,89,402.5,89L402.5,89z M460.6,34.9c-2.2-0.5-8.2-1.9-15-1.9c-12.5,0.1-17.7,3.5-17.8,24.2
			c0.1,22.7,6.9,23.9,17.9,24.1l0,0.5v-0.5c6.9,0,12.7-1.4,14.8-2L460.6,34.9z M463.6,88.2l-0.7,0.2c-3.7,0.9-8.7,2.2-17.6,2.2h0
			c-24.3,0-29.1-12.3-29.1-33.5c0-24.3,7.7-33.4,28.4-33.4c7.3,0,12.3,0.9,15.9,1.8l0-19.6c0-0.9,0.4-2,2.4-2.4l6.5-1.7h0.4
			c1.5,0,2,1.4,2,2.5v73.6C471.9,82.6,471.3,86.5,463.6,88.2L463.6,88.2z M510.8,81.1c-16-0.1-16.8-8.3-16.9-23.9
			c0.1-15.8,0.9-24,16.9-24.1c16,0.1,16.8,8.3,16.9,24.1C527.6,72.8,526.8,81,510.8,81.1L510.8,81.1z M510.8,23.6
			c-26.3,0-28.5,17.3-28.6,33.5c0,16.1,2.3,33.4,28.6,33.4h0c26.3,0,28.5-17.2,28.6-33.4C539.3,40.2,537.1,23.7,510.8,23.6
			L510.8,23.6z M328.5,57.5c-2.6,0-15.4,0.2-20.5,1.3l-0.4,0.1c-5.7,1.3-10.2,2.3-10.3,10.8c0,10.7,8.2,11.6,16.5,11.7l0,0.5v-0.5
			c5.2,0,10.2-0.7,14.7-2.2L328.5,57.5z M339.8,41.9v33.9c0.1,8.4-2,11.1-10.5,13.1c-3.7,0.8-9.4,1.7-15.6,1.7h0
			c-9.1,0-28-0.1-28-20.4c-0.1-16,9.6-18.8,21.2-20.6c7.6-1.2,15.4-1.4,19.3-1.4c1.1,0,1.8,0,2.2,0v-5.7c0-3.8-0.1-6.1-3.6-7.5
			c-2.2-0.9-5.5-1.4-10.4-1.4c-8.1,0-15.3,1.8-20,3l-1.8,0.4c-0.2,0.1-0.4,0.1-0.7,0.1h0c-0.8,0-1.8-0.5-2.1-1.6l0-0.1l-1.1-5.4
			l0-0.3c0-1.3,0.9-2,1.8-2.3c3.8-1.4,14-3.7,25-3.7c8,0,13.8,1,17.7,3.2C339.8,30.3,339.8,36.8,339.8,41.9L339.8,41.9z M234.1,79.1
			c-4.5,1.5-9.4,2.2-14.7,2.2v0.5l0-0.5c-8.3-0.1-16.5-1-16.5-11.7c0.1-8.5,4.6-9.5,10.3-10.8l0.4-0.1c5.1-1.1,17.9-1.3,20.5-1.3
			V79.1z M238.8,26.8c-3.9-2.1-9.7-3.2-17.7-3.2c-11,0-21.1,2.3-25,3.7c-0.9,0.3-1.8,1-1.8,2.3l0,0.3l1.1,5.4l0,0.1
			c0.3,1.1,1.3,1.6,2.1,1.6h0c0.3,0,0.5-0.1,0.7-0.1l1.8-0.4c4.8-1.2,12-3,20-3c4.9,0,8.2,0.4,10.4,1.4c3.6,1.4,3.6,3.7,3.6,7.5v5.7
			c-0.4,0-1.1,0-2.2,0c-3.9,0-11.7,0.2-19.3,1.4c-11.6,1.8-21.3,4.6-21.2,20.6c0,20.4,18.9,20.4,28,20.4h0c6.2,0,11.8-0.9,15.6-1.7
			c8.5-2,10.6-4.7,10.5-13.1V41.9C245.4,36.8,245.4,30.3,238.8,26.8L238.8,26.8z"/>
		<path id="Fill-3" class="st1" d="M21.5,107c-3.9,0-6.1-0.9-7.3-1.6c-1.6-0.9-4.6-3.3-7.3-10.3C2.6,83.8,0.1,70,0,53.9v-0.1
			c0.1-16.2,2.6-29.9,6.9-41.2c2.7-7,5.7-9.4,7.3-10.3c1.2-0.7,3.3-1.6,7.3-1.6c1.5,0,3.3,0.1,5.3,0.5c11.9,1.9,25.1,6.6,39.1,14.6
			l0.1,0C79.9,23.9,90.6,33,98.2,42.4c4.8,5.8,5.3,9.6,5.3,11.5c0,1.9-0.6,5.6-5.3,11.5C90.6,74.7,79.9,83.7,66,91.9l-0.1,0
			c-14.1,8-27.2,12.7-39.1,14.6C24.7,106.9,23,107,21.5,107"/>
	</g>
</g>
</svg>
